solid OpenSCAD_Model
  facet normal 0.9112 0.0397837 0.41004
    outer loop
      vertex 22.2151 1.94357 19
      vertex 13.3 0 39
      vertex 22.3 0 19
    endloop
  endfacet
  facet normal 0.904265 0.119049 0.41004
    outer loop
      vertex 21.9612 3.87235 19
      vertex 13.0979 2.30952 39
      vertex 22.2151 1.94357 19
    endloop
  endfacet
  facet normal 0.616184 0.672447 0.41004
    outer loop
      vertex 14.3342 17.0828 19
      vertex 8.54908 10.1884 39
      vertex 9.40452 9.40452 39
    endloop
  endfacet
  facet normal 0.809014 -0.421146 0.41004
    outer loop
      vertex 20.2107 -9.42439 19
      vertex 12.0539 -5.62082 39
      vertex 19.3124 -11.15 19
    endloop
  endfacet
  facet normal -0.197407 0.890448 0.41004
    outer loop
      vertex -3.87235 21.9612 19
      vertex -5.77166 21.5401 19
      vertex -2.30952 13.0979 39
    endloop
  endfacet
  facet normal 0.274264 0.869854 0.41004
    outer loop
      vertex 5.77166 21.5401 19
      vertex 4.54887 12.4979 39
      vertex 7.62705 20.9551 19
    endloop
  endfacet
  facet normal 0.616184 -0.672447 0.41004
    outer loop
      vertex 15.7685 -15.7685 19
      vertex 9.40452 -9.40452 39
      vertex 14.3342 -17.0828 19
    endloop
  endfacet
  facet normal 0.904265 -0.119049 0.41004
    outer loop
      vertex 22.2151 -1.94357 19
      vertex 13.0979 -2.30952 39
      vertex 21.9612 -3.87235 19
    endloop
  endfacet
  facet normal -0.76923 0.490054 0.41004
    outer loop
      vertex -18.2671 12.7908 19
      vertex -19.3124 11.15 19
      vertex -10.8947 7.62857 39
    endloop
  endfacet
  facet normal -0.616184 0.672447 0.41004
    outer loop
      vertex -14.3342 17.0828 19
      vertex -15.7685 15.7685 19
      vertex -9.40452 9.40452 39
    endloop
  endfacet
  facet normal -0.869854 -0.274264 0.41004
    outer loop
      vertex -12.4979 -4.54887 39
      vertex -21.5401 -5.77166 19
      vertex -20.9551 -7.62705 19
    endloop
  endfacet
  facet normal -0.842641 0.349033 0.41004
    outer loop
      vertex -20.2107 9.42439 19
      vertex -20.9551 7.62705 19
      vertex -12.4979 4.54887 39
    endloop
  endfacet
  facet normal -0.904265 0.119049 0.41004
    outer loop
      vertex -21.9612 3.87235 19
      vertex -22.2151 1.94357 19
      vertex -13.0979 2.30952 39
    endloop
  endfacet
  facet normal 0.616184 0.672447 0.41004
    outer loop
      vertex 14.3342 17.0828 19
      vertex 9.40452 9.40452 39
      vertex 15.7685 15.7685 19
    endloop
  endfacet
  facet normal -0.555232 0.723592 0.41004
    outer loop
      vertex -12.7908 18.2671 19
      vertex -14.3342 17.0828 19
      vertex -8.54908 10.1884 39
    endloop
  endfacet
  facet normal 0.119049 0.904265 0.41004
    outer loop
      vertex 3.87235 21.9612 19
      vertex 1.94357 22.2151 19
      vertex 2.30952 13.0979 39
    endloop
  endfacet
  facet normal -0.0397837 0.9112 0.41004
    outer loop
      vertex 0 22.3 19
      vertex -1.94357 22.2151 19
      vertex 0 13.3 39
    endloop
  endfacet
  facet normal 0.723592 0.555231 0.41004
    outer loop
      vertex 18.2671 12.7908 19
      vertex 10.1884 8.54908 39
      vertex 10.8947 7.62857 39
    endloop
  endfacet
  facet normal 0.890448 0.197407 0.41004
    outer loop
      vertex 21.5401 5.77166 19
      vertex 13.0979 2.30952 39
      vertex 21.9612 3.87235 19
    endloop
  endfacet
  facet normal 0.890448 0.197407 0.41004
    outer loop
      vertex 21.5401 5.77166 19
      vertex 12.8468 3.44229 39
      vertex 13.0979 2.30952 39
    endloop
  endfacet
  facet normal 0.274264 -0.869854 0.41004
    outer loop
      vertex 7.62705 -20.9551 19
      vertex 4.54887 -12.4979 39
      vertex 5.77166 -21.5401 19
    endloop
  endfacet
  facet normal -0.119049 -0.904265 0.41004
    outer loop
      vertex -2.30952 -13.0979 39
      vertex -3.87235 -21.9612 19
      vertex -1.94357 -22.2151 19
    endloop
  endfacet
  facet normal 0.890448 -0.197407 0.41004
    outer loop
      vertex 21.9612 -3.87235 19
      vertex 13.0979 -2.30952 39
      vertex 21.5401 -5.77166 19
    endloop
  endfacet
  facet normal 0.9112 -0.0397837 0.41004
    outer loop
      vertex 22.3 0 19
      vertex 13.3 0 39
      vertex 22.2151 -1.94357 19
    endloop
  endfacet
  facet normal -0.76923 0.490053 0.41004
    outer loop
      vertex -10.8947 7.62857 39
      vertex -19.3124 11.15 19
      vertex -11.5181 6.65 39
    endloop
  endfacet
  facet normal -0.672447 0.616184 0.41004
    outer loop
      vertex -15.7685 15.7685 19
      vertex -17.0828 14.3342 19
      vertex -9.40452 9.40452 39
    endloop
  endfacet
  facet normal -0.890448 -0.197407 0.41004
    outer loop
      vertex -13.0979 -2.30952 39
      vertex -21.5401 -5.77166 19
      vertex -12.8468 -3.44229 39
    endloop
  endfacet
  facet normal -0.904265 0.119049 0.41004
    outer loop
      vertex -13.0979 2.30952 39
      vertex -22.2151 1.94357 19
      vertex -13.2494 1.15917 39
    endloop
  endfacet
  facet normal -0.723592 0.555231 0.41004
    outer loop
      vertex -10.1884 8.54908 39
      vertex -18.2671 12.7908 19
      vertex -10.8947 7.62857 39
    endloop
  endfacet
  facet normal -0.809014 0.421146 0.41004
    outer loop
      vertex -19.3124 11.15 19
      vertex -20.2107 9.42439 19
      vertex -12.0539 5.62082 39
    endloop
  endfacet
  facet normal -0.197407 -0.890448 0.41004
    outer loop
      vertex -3.44229 -12.8468 39
      vertex -5.77166 -21.5401 19
      vertex -2.30952 -13.0979 39
    endloop
  endfacet
  facet normal -0.490053 -0.76923 0.41004
    outer loop
      vertex -7.62857 -10.8947 39
      vertex -11.15 -19.3124 19
      vertex -6.65 -11.5181 39
    endloop
  endfacet
  facet normal 0.0397839 0.9112 0.41004
    outer loop
      vertex 1.94357 22.2151 19
      vertex 0 13.3 39
      vertex 1.15917 13.2494 39
    endloop
  endfacet
  facet normal 0.274264 0.869854 0.41004
    outer loop
      vertex 5.77166 21.5401 19
      vertex 3.44229 12.8468 39
      vertex 4.54887 12.4979 39
    endloop
  endfacet
  facet normal -0.274264 0.869854 0.41004
    outer loop
      vertex -5.77166 21.5401 19
      vertex -7.62705 20.9551 19
      vertex -4.54887 12.4979 39
    endloop
  endfacet
  facet normal -0.616184 0.672447 0.41004
    outer loop
      vertex -8.54908 10.1884 39
      vertex -14.3342 17.0828 19
      vertex -9.40452 9.40452 39
    endloop
  endfacet
  facet normal -0.0397839 0.9112 0.41004
    outer loop
      vertex 0 13.3 39
      vertex -1.94357 22.2151 19
      vertex -1.15917 13.2494 39
    endloop
  endfacet
  facet normal -0.197407 0.890448 0.41004
    outer loop
      vertex -2.30952 13.0979 39
      vertex -5.77166 21.5401 19
      vertex -3.44229 12.8468 39
    endloop
  endfacet
  facet normal 0.119049 0.904265 0.41004
    outer loop
      vertex 1.94357 22.2151 19
      vertex 1.15917 13.2494 39
      vertex 2.30952 13.0979 39
    endloop
  endfacet
  facet normal 0.0397837 0.9112 0.41004
    outer loop
      vertex 0 22.3 19
      vertex 0 13.3 39
      vertex 1.94357 22.2151 19
    endloop
  endfacet
  facet normal 0.723592 0.555232 0.41004
    outer loop
      vertex 17.0828 14.3342 19
      vertex 10.1884 8.54908 39
      vertex 18.2671 12.7908 19
    endloop
  endfacet
  facet normal 0.869854 0.274264 0.41004
    outer loop
      vertex 20.9551 7.62705 19
      vertex 12.4979 4.54887 39
      vertex 21.5401 5.77166 19
    endloop
  endfacet
  facet normal 0.809014 0.421146 0.41004
    outer loop
      vertex 19.3124 11.15 19
      vertex 12.0539 5.62082 39
      vertex 20.2107 9.42439 19
    endloop
  endfacet
  facet normal 0.197407 -0.890448 0.41004
    outer loop
      vertex 5.77166 -21.5401 19
      vertex 2.30952 -13.0979 39
      vertex 3.87235 -21.9612 19
    endloop
  endfacet
  facet normal 0.0397839 -0.9112 0.41004
    outer loop
      vertex 1.15917 -13.2494 39
      vertex 0 -13.3 39
      vertex 1.94357 -22.2151 19
    endloop
  endfacet
  facet normal 0.0397837 -0.9112 0.41004
    outer loop
      vertex 0 -13.3 39
      vertex 0 -22.3 19
      vertex 1.94357 -22.2151 19
    endloop
  endfacet
  facet normal 0.490053 -0.76923 0.41004
    outer loop
      vertex 7.62857 -10.8947 39
      vertex 6.65 -11.5181 39
      vertex 11.15 -19.3124 19
    endloop
  endfacet
  facet normal 0.349033 -0.842641 0.41004
    outer loop
      vertex 9.42439 -20.2107 19
      vertex 4.54887 -12.4979 39
      vertex 7.62705 -20.9551 19
    endloop
  endfacet
  facet normal 0.555232 -0.723592 0.41004
    outer loop
      vertex 14.3342 -17.0828 19
      vertex 8.54908 -10.1884 39
      vertex 12.7908 -18.2671 19
    endloop
  endfacet
  facet normal 0.672447 -0.616184 0.41004
    outer loop
      vertex 17.0828 -14.3342 19
      vertex 9.40452 -9.40452 39
      vertex 15.7685 -15.7685 19
    endloop
  endfacet
  facet normal 0.842641 -0.349033 0.41004
    outer loop
      vertex 20.9551 -7.62705 19
      vertex 12.4979 -4.54887 39
      vertex 20.2107 -9.42439 19
    endloop
  endfacet
  facet normal 0.869854 -0.274264 0.41004
    outer loop
      vertex 21.5401 -5.77166 19
      vertex 12.4979 -4.54887 39
      vertex 20.9551 -7.62705 19
    endloop
  endfacet
  facet normal -0.672447 -0.616184 0.41004
    outer loop
      vertex -10.1884 -8.54908 39
      vertex -17.0828 -14.3342 19
      vertex -9.40452 -9.40452 39
    endloop
  endfacet
  facet normal -0.9112 -0.0397837 0.41004
    outer loop
      vertex -13.3 0 39
      vertex -22.3 0 19
      vertex -22.2151 -1.94357 19
    endloop
  endfacet
  facet normal 0 0 -1
    outer loop
      vertex 10.3 0 19
      vertex 22.3 0 19
      vertex 22.2151 -1.94357 19
    endloop
  endfacet
  facet normal 0 0 -1
    outer loop
      vertex 10.2608 -0.897704 19
      vertex 22.2151 -1.94357 19
      vertex 21.9612 -3.87235 19
    endloop
  endfacet
  facet normal 0 0 -1
    outer loop
      vertex 22.3 0 19
      vertex 10.3 0 19
      vertex 22.2151 1.94357 19
    endloop
  endfacet
  facet normal 0 0 -1
    outer loop
      vertex 10.1435 -1.78858 19
      vertex 21.9612 -3.87235 19
      vertex 21.5401 -5.77166 19
    endloop
  endfacet
  facet normal 0 0 -1
    outer loop
      vertex 10.2608 0.897704 19
      vertex 22.2151 1.94357 19
      vertex 10.3 0 19
    endloop
  endfacet
  facet normal 0 0 -1
    outer loop
      vertex 9.94904 -2.66584 19
      vertex 21.5401 -5.77166 19
      vertex 20.9551 -7.62705 19
    endloop
  endfacet
  facet normal -0 0 -1
    outer loop
      vertex 22.2151 1.94357 19
      vertex 10.2608 0.897704 19
      vertex 21.9612 3.87235 19
    endloop
  endfacet
  facet normal 0 0 -1
    outer loop
      vertex 9.67883 -3.52281 19
      vertex 20.9551 -7.62705 19
      vertex 20.2107 -9.42439 19
    endloop
  endfacet
  facet normal 0 0 -1
    outer loop
      vertex 10.1435 1.78858 19
      vertex 21.9612 3.87235 19
      vertex 10.2608 0.897704 19
    endloop
  endfacet
  facet normal 0 0 -1
    outer loop
      vertex 9.33497 -4.35297 19
      vertex 20.2107 -9.42439 19
      vertex 19.3124 -11.15 19
    endloop
  endfacet
  facet normal -0 0 -1
    outer loop
      vertex 21.9612 3.87235 19
      vertex 10.1435 1.78858 19
      vertex 21.5401 5.77166 19
    endloop
  endfacet
  facet normal 0 0 -1
    outer loop
      vertex 8.92006 -5.15 19
      vertex 19.3124 -11.15 19
      vertex 18.2671 -12.7908 19
    endloop
  endfacet
  facet normal 0 0 -1
    outer loop
      vertex 9.94904 2.66584 19
      vertex 21.5401 5.77166 19
      vertex 10.1435 1.78858 19
    endloop
  endfacet
  facet normal 0 0 -1
    outer loop
      vertex 8.43727 -5.90784 19
      vertex 18.2671 -12.7908 19
      vertex 17.0828 -14.3342 19
    endloop
  endfacet
  facet normal -0 0 -1
    outer loop
      vertex 21.5401 5.77166 19
      vertex 9.94904 2.66584 19
      vertex 20.9551 7.62705 19
    endloop
  endfacet
  facet normal 0 0 -1
    outer loop
      vertex 7.89026 -6.62071 19
      vertex 17.0828 -14.3342 19
      vertex 15.7685 -15.7685 19
    endloop
  endfacet
  facet normal 0 0 -1
    outer loop
      vertex 9.67883 3.52281 19
      vertex 20.9551 7.62705 19
      vertex 9.94904 2.66584 19
    endloop
  endfacet
  facet normal 0 0 -1
    outer loop
      vertex 7.2832 -7.2832 19
      vertex 15.7685 -15.7685 19
      vertex 14.3342 -17.0828 19
    endloop
  endfacet
  facet normal -0 0 -1
    outer loop
      vertex 20.9551 7.62705 19
      vertex 9.67883 3.52281 19
      vertex 20.2107 9.42439 19
    endloop
  endfacet
  facet normal 0 0 -1
    outer loop
      vertex 6.62071 -7.89026 19
      vertex 14.3342 -17.0828 19
      vertex 12.7908 -18.2671 19
    endloop
  endfacet
  facet normal 0 0 -1
    outer loop
      vertex 9.33497 4.35297 19
      vertex 20.2107 9.42439 19
      vertex 9.67883 3.52281 19
    endloop
  endfacet
  facet normal 0 0 -1
    outer loop
      vertex 5.90784 -8.43727 19
      vertex 12.7908 -18.2671 19
      vertex 11.15 -19.3124 19
    endloop
  endfacet
  facet normal -0 0 -1
    outer loop
      vertex 20.2107 9.42439 19
      vertex 9.33497 4.35297 19
      vertex 19.3124 11.15 19
    endloop
  endfacet
  facet normal 0 0 -1
    outer loop
      vertex 8.92006 5.15 19
      vertex 19.3124 11.15 19
      vertex 9.33497 4.35297 19
    endloop
  endfacet
  facet normal 0 0 -1
    outer loop
      vertex 22.2151 -1.94357 19
      vertex 10.2608 -0.897704 19
      vertex 10.3 0 19
    endloop
  endfacet
  facet normal 0 0 -1
    outer loop
      vertex 21.9612 -3.87235 19
      vertex 10.1435 -1.78858 19
      vertex 10.2608 -0.897704 19
    endloop
  endfacet
  facet normal 0 0 -1
    outer loop
      vertex 21.5401 -5.77166 19
      vertex 9.94904 -2.66584 19
      vertex 10.1435 -1.78858 19
    endloop
  endfacet
  facet normal 0 0 -1
    outer loop
      vertex 20.9551 -7.62705 19
      vertex 9.67883 -3.52281 19
      vertex 9.94904 -2.66584 19
    endloop
  endfacet
  facet normal 0 0 -1
    outer loop
      vertex 5.15 -8.92006 19
      vertex 11.15 -19.3124 19
      vertex 9.42439 -20.2107 19
    endloop
  endfacet
  facet normal 0 0 -1
    outer loop
      vertex 20.2107 -9.42439 19
      vertex 9.33497 -4.35297 19
      vertex 9.67883 -3.52281 19
    endloop
  endfacet
  facet normal 0 0 -1
    outer loop
      vertex 19.3124 -11.15 19
      vertex 8.92006 -5.15 19
      vertex 9.33497 -4.35297 19
    endloop
  endfacet
  facet normal 0 0 -1
    outer loop
      vertex 18.2671 -12.7908 19
      vertex 8.43727 -5.90784 19
      vertex 8.92006 -5.15 19
    endloop
  endfacet
  facet normal 0 0 -1
    outer loop
      vertex 17.0828 -14.3342 19
      vertex 7.89026 -6.62071 19
      vertex 8.43727 -5.90784 19
    endloop
  endfacet
  facet normal 0 0 -1
    outer loop
      vertex 4.35297 -9.33497 19
      vertex 9.42439 -20.2107 19
      vertex 7.62705 -20.9551 19
    endloop
  endfacet
  facet normal 0 0 -1
    outer loop
      vertex 15.7685 -15.7685 19
      vertex 7.2832 -7.2832 19
      vertex 7.89026 -6.62071 19
    endloop
  endfacet
  facet normal 0 0 -1
    outer loop
      vertex 14.3342 -17.0828 19
      vertex 6.62071 -7.89026 19
      vertex 7.2832 -7.2832 19
    endloop
  endfacet
  facet normal 0 0 -1
    outer loop
      vertex 12.7908 -18.2671 19
      vertex 5.90784 -8.43727 19
      vertex 6.62071 -7.89026 19
    endloop
  endfacet
  facet normal 0 0 -1
    outer loop
      vertex 3.52281 -9.67883 19
      vertex 7.62705 -20.9551 19
      vertex 5.77166 -21.5401 19
    endloop
  endfacet
  facet normal 0 0 -1
    outer loop
      vertex 11.15 -19.3124 19
      vertex 5.15 -8.92006 19
      vertex 5.90784 -8.43727 19
    endloop
  endfacet
  facet normal 0 0 -1
    outer loop
      vertex 9.42439 -20.2107 19
      vertex 4.35297 -9.33497 19
      vertex 5.15 -8.92006 19
    endloop
  endfacet
  facet normal 0 0 -1
    outer loop
      vertex 2.66584 -9.94904 19
      vertex 5.77166 -21.5401 19
      vertex 3.87235 -21.9612 19
    endloop
  endfacet
  facet normal 0 0 -1
    outer loop
      vertex 7.62705 -20.9551 19
      vertex 3.52281 -9.67883 19
      vertex 4.35297 -9.33497 19
    endloop
  endfacet
  facet normal 0 0 -1
    outer loop
      vertex 5.77166 -21.5401 19
      vertex 2.66584 -9.94904 19
      vertex 3.52281 -9.67883 19
    endloop
  endfacet
  facet normal 0 0 -1
    outer loop
      vertex 1.78858 -10.1435 19
      vertex 3.87235 -21.9612 19
      vertex 1.94357 -22.2151 19
    endloop
  endfacet
  facet normal 0 0 -1
    outer loop
      vertex 3.87235 -21.9612 19
      vertex 1.78858 -10.1435 19
      vertex 2.66584 -9.94904 19
    endloop
  endfacet
  facet normal 0 0 -1
    outer loop
      vertex 1.94357 -22.2151 19
      vertex 0.897704 -10.2608 19
      vertex 1.78858 -10.1435 19
    endloop
  endfacet
  facet normal 0 0 -1
    outer loop
      vertex 0 -22.3 19
      vertex 0.897704 -10.2608 19
      vertex 1.94357 -22.2151 19
    endloop
  endfacet
  facet normal 0 0 -1
    outer loop
      vertex 0 -22.3 19
      vertex 0 -10.3 19
      vertex 0.897704 -10.2608 19
    endloop
  endfacet
  facet normal 0 0 -1
    outer loop
      vertex 0 -22.3 19
      vertex -0.897704 -10.2608 19
      vertex 0 -10.3 19
    endloop
  endfacet
  facet normal 0 0 -1
    outer loop
      vertex -1.94357 -22.2151 19
      vertex -0.897704 -10.2608 19
      vertex 0 -22.3 19
    endloop
  endfacet
  facet normal -0 0 -1
    outer loop
      vertex -0.897704 -10.2608 19
      vertex -1.94357 -22.2151 19
      vertex -1.78858 -10.1435 19
    endloop
  endfacet
  facet normal 0 0 -1
    outer loop
      vertex -3.87235 -21.9612 19
      vertex -1.78858 -10.1435 19
      vertex -1.94357 -22.2151 19
    endloop
  endfacet
  facet normal -0 0 -1
    outer loop
      vertex -1.78858 -10.1435 19
      vertex -3.87235 -21.9612 19
      vertex -2.66584 -9.94904 19
    endloop
  endfacet
  facet normal 0 0 -1
    outer loop
      vertex -5.77166 -21.5401 19
      vertex -2.66584 -9.94904 19
      vertex -3.87235 -21.9612 19
    endloop
  endfacet
  facet normal -0 0 -1
    outer loop
      vertex -2.66584 -9.94904 19
      vertex -5.77166 -21.5401 19
      vertex -3.52281 -9.67883 19
    endloop
  endfacet
  facet normal 0 0 -1
    outer loop
      vertex -7.62705 -20.9551 19
      vertex -3.52281 -9.67883 19
      vertex -5.77166 -21.5401 19
    endloop
  endfacet
  facet normal -0 0 -1
    outer loop
      vertex -3.52281 -9.67883 19
      vertex -7.62705 -20.9551 19
      vertex -4.35297 -9.33497 19
    endloop
  endfacet
  facet normal 0 0 -1
    outer loop
      vertex -9.42439 -20.2107 19
      vertex -4.35297 -9.33497 19
      vertex -7.62705 -20.9551 19
    endloop
  endfacet
  facet normal -0 0 -1
    outer loop
      vertex -4.35297 -9.33497 19
      vertex -9.42439 -20.2107 19
      vertex -5.15 -8.92006 19
    endloop
  endfacet
  facet normal 0 0 -1
    outer loop
      vertex -11.15 -19.3124 19
      vertex -5.15 -8.92006 19
      vertex -9.42439 -20.2107 19
    endloop
  endfacet
  facet normal -0 0 -1
    outer loop
      vertex -5.15 -8.92006 19
      vertex -11.15 -19.3124 19
      vertex -5.90784 -8.43727 19
    endloop
  endfacet
  facet normal 0 0 -1
    outer loop
      vertex -12.7908 -18.2671 19
      vertex -5.90784 -8.43727 19
      vertex -11.15 -19.3124 19
    endloop
  endfacet
  facet normal -0 0 -1
    outer loop
      vertex -5.90784 -8.43727 19
      vertex -12.7908 -18.2671 19
      vertex -6.62071 -7.89026 19
    endloop
  endfacet
  facet normal 0 0 -1
    outer loop
      vertex -14.3342 -17.0828 19
      vertex -6.62071 -7.89026 19
      vertex -12.7908 -18.2671 19
    endloop
  endfacet
  facet normal -0 0 -1
    outer loop
      vertex -6.62071 -7.89026 19
      vertex -14.3342 -17.0828 19
      vertex -7.2832 -7.2832 19
    endloop
  endfacet
  facet normal 0 0 -1
    outer loop
      vertex -15.7685 -15.7685 19
      vertex -7.2832 -7.2832 19
      vertex -14.3342 -17.0828 19
    endloop
  endfacet
  facet normal -0 0 -1
    outer loop
      vertex -7.2832 -7.2832 19
      vertex -15.7685 -15.7685 19
      vertex -7.89026 -6.62071 19
    endloop
  endfacet
  facet normal 0 0 -1
    outer loop
      vertex -17.0828 -14.3342 19
      vertex -7.89026 -6.62071 19
      vertex -15.7685 -15.7685 19
    endloop
  endfacet
  facet normal -0 0 -1
    outer loop
      vertex -7.89026 -6.62071 19
      vertex -17.0828 -14.3342 19
      vertex -8.43727 -5.90784 19
    endloop
  endfacet
  facet normal 0 0 -1
    outer loop
      vertex -18.2671 -12.7908 19
      vertex -8.43727 -5.90784 19
      vertex -17.0828 -14.3342 19
    endloop
  endfacet
  facet normal -0 0 -1
    outer loop
      vertex -8.43727 -5.90784 19
      vertex -18.2671 -12.7908 19
      vertex -8.92006 -5.15 19
    endloop
  endfacet
  facet normal 0 0 -1
    outer loop
      vertex -19.3124 -11.15 19
      vertex -8.92006 -5.15 19
      vertex -18.2671 -12.7908 19
    endloop
  endfacet
  facet normal -0 0 -1
    outer loop
      vertex 19.3124 11.15 19
      vertex 8.92006 5.15 19
      vertex 18.2671 12.7908 19
    endloop
  endfacet
  facet normal 0 0 -1
    outer loop
      vertex 8.43727 5.90784 19
      vertex 18.2671 12.7908 19
      vertex 8.92006 5.15 19
    endloop
  endfacet
  facet normal -0 0 -1
    outer loop
      vertex 18.2671 12.7908 19
      vertex 8.43727 5.90784 19
      vertex 17.0828 14.3342 19
    endloop
  endfacet
  facet normal 0 0 -1
    outer loop
      vertex 7.89026 6.62071 19
      vertex 17.0828 14.3342 19
      vertex 8.43727 5.90784 19
    endloop
  endfacet
  facet normal -0 0 -1
    outer loop
      vertex 17.0828 14.3342 19
      vertex 7.89026 6.62071 19
      vertex 15.7685 15.7685 19
    endloop
  endfacet
  facet normal 0 0 -1
    outer loop
      vertex 7.2832 7.2832 19
      vertex 15.7685 15.7685 19
      vertex 7.89026 6.62071 19
    endloop
  endfacet
  facet normal -0 0 -1
    outer loop
      vertex 15.7685 15.7685 19
      vertex 7.2832 7.2832 19
      vertex 14.3342 17.0828 19
    endloop
  endfacet
  facet normal 0 0 -1
    outer loop
      vertex 6.62071 7.89026 19
      vertex 14.3342 17.0828 19
      vertex 7.2832 7.2832 19
    endloop
  endfacet
  facet normal -0 0 -1
    outer loop
      vertex 14.3342 17.0828 19
      vertex 6.62071 7.89026 19
      vertex 12.7908 18.2671 19
    endloop
  endfacet
  facet normal 0 0 -1
    outer loop
      vertex 5.90784 8.43727 19
      vertex 12.7908 18.2671 19
      vertex 6.62071 7.89026 19
    endloop
  endfacet
  facet normal -0 0 -1
    outer loop
      vertex 12.7908 18.2671 19
      vertex 5.90784 8.43727 19
      vertex 11.15 19.3124 19
    endloop
  endfacet
  facet normal 0 0 -1
    outer loop
      vertex 5.15 8.92006 19
      vertex 11.15 19.3124 19
      vertex 5.90784 8.43727 19
    endloop
  endfacet
  facet normal -0 0 -1
    outer loop
      vertex 11.15 19.3124 19
      vertex 5.15 8.92006 19
      vertex 9.42439 20.2107 19
    endloop
  endfacet
  facet normal 0 0 -1
    outer loop
      vertex 4.35297 9.33497 19
      vertex 9.42439 20.2107 19
      vertex 5.15 8.92006 19
    endloop
  endfacet
  facet normal -0 0 -1
    outer loop
      vertex 9.42439 20.2107 19
      vertex 4.35297 9.33497 19
      vertex 7.62705 20.9551 19
    endloop
  endfacet
  facet normal 0 0 -1
    outer loop
      vertex 3.52281 9.67883 19
      vertex 7.62705 20.9551 19
      vertex 4.35297 9.33497 19
    endloop
  endfacet
  facet normal -0 0 -1
    outer loop
      vertex 7.62705 20.9551 19
      vertex 3.52281 9.67883 19
      vertex 5.77166 21.5401 19
    endloop
  endfacet
  facet normal 0 0 -1
    outer loop
      vertex 2.66584 9.94904 19
      vertex 5.77166 21.5401 19
      vertex 3.52281 9.67883 19
    endloop
  endfacet
  facet normal -0 0 -1
    outer loop
      vertex 5.77166 21.5401 19
      vertex 2.66584 9.94904 19
      vertex 3.87235 21.9612 19
    endloop
  endfacet
  facet normal 0 0 -1
    outer loop
      vertex 1.78858 10.1435 19
      vertex 3.87235 21.9612 19
      vertex 2.66584 9.94904 19
    endloop
  endfacet
  facet normal -0 0 -1
    outer loop
      vertex 3.87235 21.9612 19
      vertex 1.78858 10.1435 19
      vertex 1.94357 22.2151 19
    endloop
  endfacet
  facet normal 0 0 -1
    outer loop
      vertex 0.897704 10.2608 19
      vertex 1.94357 22.2151 19
      vertex 1.78858 10.1435 19
    endloop
  endfacet
  facet normal 0 0 -1
    outer loop
      vertex 0 10.3 19
      vertex 1.94357 22.2151 19
      vertex 0.897704 10.2608 19
    endloop
  endfacet
  facet normal 0 0 -1
    outer loop
      vertex 0 10.3 19
      vertex 0 22.3 19
      vertex 1.94357 22.2151 19
    endloop
  endfacet
  facet normal 0 0 -1
    outer loop
      vertex -0.897704 10.2608 19
      vertex 0 22.3 19
      vertex 0 10.3 19
    endloop
  endfacet
  facet normal 0 0 -1
    outer loop
      vertex -1.94357 22.2151 19
      vertex -0.897704 10.2608 19
      vertex -1.78858 10.1435 19
    endloop
  endfacet
  facet normal 0 0 -1
    outer loop
      vertex -0.897704 10.2608 19
      vertex -1.94357 22.2151 19
      vertex 0 22.3 19
    endloop
  endfacet
  facet normal 0 0 -1
    outer loop
      vertex -3.87235 21.9612 19
      vertex -1.78858 10.1435 19
      vertex -2.66584 9.94904 19
    endloop
  endfacet
  facet normal 0 0 -1
    outer loop
      vertex -5.77166 21.5401 19
      vertex -2.66584 9.94904 19
      vertex -3.52281 9.67883 19
    endloop
  endfacet
  facet normal 0 0 -1
    outer loop
      vertex -1.78858 10.1435 19
      vertex -3.87235 21.9612 19
      vertex -1.94357 22.2151 19
    endloop
  endfacet
  facet normal 0 0 -1
    outer loop
      vertex -7.62705 20.9551 19
      vertex -3.52281 9.67883 19
      vertex -4.35297 9.33497 19
    endloop
  endfacet
  facet normal 0 0 -1
    outer loop
      vertex -9.42439 20.2107 19
      vertex -4.35297 9.33497 19
      vertex -5.15 8.92006 19
    endloop
  endfacet
  facet normal 0 0 -1
    outer loop
      vertex -2.66584 9.94904 19
      vertex -5.77166 21.5401 19
      vertex -3.87235 21.9612 19
    endloop
  endfacet
  facet normal 0 0 -1
    outer loop
      vertex -11.15 19.3124 19
      vertex -5.15 8.92006 19
      vertex -5.90784 8.43727 19
    endloop
  endfacet
  facet normal 0 0 -1
    outer loop
      vertex -12.7908 18.2671 19
      vertex -5.90784 8.43727 19
      vertex -6.62071 7.89026 19
    endloop
  endfacet
  facet normal 0 0 -1
    outer loop
      vertex -14.3342 17.0828 19
      vertex -6.62071 7.89026 19
      vertex -7.2832 7.2832 19
    endloop
  endfacet
  facet normal 0 0 -1
    outer loop
      vertex -3.52281 9.67883 19
      vertex -7.62705 20.9551 19
      vertex -5.77166 21.5401 19
    endloop
  endfacet
  facet normal 0 0 -1
    outer loop
      vertex -15.7685 15.7685 19
      vertex -7.2832 7.2832 19
      vertex -7.89026 6.62071 19
    endloop
  endfacet
  facet normal 0 0 -1
    outer loop
      vertex -17.0828 14.3342 19
      vertex -7.89026 6.62071 19
      vertex -8.43727 5.90784 19
    endloop
  endfacet
  facet normal 0 0 -1
    outer loop
      vertex -18.2671 12.7908 19
      vertex -8.43727 5.90784 19
      vertex -8.92006 5.15 19
    endloop
  endfacet
  facet normal 0 0 -1
    outer loop
      vertex -19.3124 11.15 19
      vertex -8.92006 5.15 19
      vertex -9.33497 4.35297 19
    endloop
  endfacet
  facet normal 0 0 -1
    outer loop
      vertex -4.35297 9.33497 19
      vertex -9.42439 20.2107 19
      vertex -7.62705 20.9551 19
    endloop
  endfacet
  facet normal 0 0 -1
    outer loop
      vertex -20.2107 9.42439 19
      vertex -9.33497 4.35297 19
      vertex -9.67883 3.52281 19
    endloop
  endfacet
  facet normal 0 0 -1
    outer loop
      vertex -20.9551 7.62705 19
      vertex -9.67883 3.52281 19
      vertex -9.94904 2.66584 19
    endloop
  endfacet
  facet normal 0 0 -1
    outer loop
      vertex -21.5401 5.77166 19
      vertex -9.94904 2.66584 19
      vertex -10.1435 1.78858 19
    endloop
  endfacet
  facet normal 0 0 -1
    outer loop
      vertex -21.9612 3.87235 19
      vertex -10.1435 1.78858 19
      vertex -10.2608 0.897704 19
    endloop
  endfacet
  facet normal 0 0 -1
    outer loop
      vertex -22.2151 1.94357 19
      vertex -10.2608 0.897704 19
      vertex -10.3 0 19
    endloop
  endfacet
  facet normal -0 0 -1
    outer loop
      vertex -8.92006 -5.15 19
      vertex -19.3124 -11.15 19
      vertex -9.33497 -4.35297 19
    endloop
  endfacet
  facet normal 0 0 -1
    outer loop
      vertex -5.15 8.92006 19
      vertex -11.15 19.3124 19
      vertex -9.42439 20.2107 19
    endloop
  endfacet
  facet normal 0 0 -1
    outer loop
      vertex -20.2107 -9.42439 19
      vertex -9.33497 -4.35297 19
      vertex -19.3124 -11.15 19
    endloop
  endfacet
  facet normal 0 0 -1
    outer loop
      vertex -5.90784 8.43727 19
      vertex -12.7908 18.2671 19
      vertex -11.15 19.3124 19
    endloop
  endfacet
  facet normal -0 0 -1
    outer loop
      vertex -9.33497 -4.35297 19
      vertex -20.2107 -9.42439 19
      vertex -9.67883 -3.52281 19
    endloop
  endfacet
  facet normal 0 0 -1
    outer loop
      vertex -6.62071 7.89026 19
      vertex -14.3342 17.0828 19
      vertex -12.7908 18.2671 19
    endloop
  endfacet
  facet normal 0 0 -1
    outer loop
      vertex -20.9551 -7.62705 19
      vertex -9.67883 -3.52281 19
      vertex -20.2107 -9.42439 19
    endloop
  endfacet
  facet normal 0 0 -1
    outer loop
      vertex -7.2832 7.2832 19
      vertex -15.7685 15.7685 19
      vertex -14.3342 17.0828 19
    endloop
  endfacet
  facet normal -0 0 -1
    outer loop
      vertex -9.67883 -3.52281 19
      vertex -20.9551 -7.62705 19
      vertex -9.94904 -2.66584 19
    endloop
  endfacet
  facet normal 0 0 -1
    outer loop
      vertex -7.89026 6.62071 19
      vertex -17.0828 14.3342 19
      vertex -15.7685 15.7685 19
    endloop
  endfacet
  facet normal 0 0 -1
    outer loop
      vertex -21.5401 -5.77166 19
      vertex -9.94904 -2.66584 19
      vertex -20.9551 -7.62705 19
    endloop
  endfacet
  facet normal 0 0 -1
    outer loop
      vertex -8.43727 5.90784 19
      vertex -18.2671 12.7908 19
      vertex -17.0828 14.3342 19
    endloop
  endfacet
  facet normal -0 0 -1
    outer loop
      vertex -9.94904 -2.66584 19
      vertex -21.5401 -5.77166 19
      vertex -10.1435 -1.78858 19
    endloop
  endfacet
  facet normal 0 0 -1
    outer loop
      vertex -8.92006 5.15 19
      vertex -19.3124 11.15 19
      vertex -18.2671 12.7908 19
    endloop
  endfacet
  facet normal 0 0 -1
    outer loop
      vertex -21.9612 -3.87235 19
      vertex -10.1435 -1.78858 19
      vertex -21.5401 -5.77166 19
    endloop
  endfacet
  facet normal 0 0 -1
    outer loop
      vertex -9.33497 4.35297 19
      vertex -20.2107 9.42439 19
      vertex -19.3124 11.15 19
    endloop
  endfacet
  facet normal -0 0 -1
    outer loop
      vertex -10.1435 -1.78858 19
      vertex -21.9612 -3.87235 19
      vertex -10.2608 -0.897704 19
    endloop
  endfacet
  facet normal 0 0 -1
    outer loop
      vertex -9.67883 3.52281 19
      vertex -20.9551 7.62705 19
      vertex -20.2107 9.42439 19
    endloop
  endfacet
  facet normal 0 0 -1
    outer loop
      vertex -22.2151 -1.94357 19
      vertex -10.2608 -0.897704 19
      vertex -21.9612 -3.87235 19
    endloop
  endfacet
  facet normal 0 0 -1
    outer loop
      vertex -9.94904 2.66584 19
      vertex -21.5401 5.77166 19
      vertex -20.9551 7.62705 19
    endloop
  endfacet
  facet normal -0 0 -1
    outer loop
      vertex -10.2608 -0.897704 19
      vertex -22.2151 -1.94357 19
      vertex -10.3 0 19
    endloop
  endfacet
  facet normal 0 0 -1
    outer loop
      vertex -10.1435 1.78858 19
      vertex -21.9612 3.87235 19
      vertex -21.5401 5.77166 19
    endloop
  endfacet
  facet normal 0 0 -1
    outer loop
      vertex -22.3 0 19
      vertex -10.3 0 19
      vertex -22.2151 -1.94357 19
    endloop
  endfacet
  facet normal 0 0 -1
    outer loop
      vertex -10.2608 0.897704 19
      vertex -22.2151 1.94357 19
      vertex -21.9612 3.87235 19
    endloop
  endfacet
  facet normal 0 0 -1
    outer loop
      vertex -10.3 0 19
      vertex -22.3 0 19
      vertex -22.2151 1.94357 19
    endloop
  endfacet
  facet normal -0.904265 -0.119049 0.41004
    outer loop
      vertex -13.0979 -2.30952 39
      vertex -22.2151 -1.94357 19
      vertex -21.9612 -3.87235 19
    endloop
  endfacet
  facet normal -0.9112 0.0397837 0.41004
    outer loop
      vertex -22.2151 1.94357 19
      vertex -22.3 0 19
      vertex -13.3 0 39
    endloop
  endfacet
  facet normal -0.890448 0.197407 0.41004
    outer loop
      vertex -12.8468 3.44229 39
      vertex -21.5401 5.77166 19
      vertex -13.0979 2.30952 39
    endloop
  endfacet
  facet normal -0.869854 0.274264 0.41004
    outer loop
      vertex -12.4979 4.54887 39
      vertex -21.5401 5.77166 19
      vertex -12.8468 3.44229 39
    endloop
  endfacet
  facet normal -0.842641 0.349033 0.41004
    outer loop
      vertex -12.0539 5.62082 39
      vertex -20.2107 9.42439 19
      vertex -12.4979 4.54887 39
    endloop
  endfacet
  facet normal -0.672447 0.616184 0.41004
    outer loop
      vertex -9.40452 9.40452 39
      vertex -17.0828 14.3342 19
      vertex -10.1884 8.54908 39
    endloop
  endfacet
  facet normal -0.723592 0.555232 0.41004
    outer loop
      vertex -17.0828 14.3342 19
      vertex -18.2671 12.7908 19
      vertex -10.1884 8.54908 39
    endloop
  endfacet
  facet normal -0.616184 -0.672447 0.41004
    outer loop
      vertex -9.40452 -9.40452 39
      vertex -15.7685 -15.7685 19
      vertex -14.3342 -17.0828 19
    endloop
  endfacet
  facet normal 0.490053 0.76923 0.41004
    outer loop
      vertex 11.15 19.3124 19
      vertex 6.65 11.5181 39
      vertex 7.62857 10.8947 39
    endloop
  endfacet
  facet normal 0.349033 0.842641 0.41004
    outer loop
      vertex 9.42439 20.2107 19
      vertex 4.54887 12.4979 39
      vertex 5.62082 12.0539 39
    endloop
  endfacet
  facet normal 0.490054 0.76923 0.41004
    outer loop
      vertex 11.15 19.3124 19
      vertex 7.62857 10.8947 39
      vertex 12.7908 18.2671 19
    endloop
  endfacet
  facet normal 0.555232 0.723592 0.41004
    outer loop
      vertex 12.7908 18.2671 19
      vertex 8.54908 10.1884 39
      vertex 14.3342 17.0828 19
    endloop
  endfacet
  facet normal 0.555231 0.723592 0.41004
    outer loop
      vertex 12.7908 18.2671 19
      vertex 7.62857 10.8947 39
      vertex 8.54908 10.1884 39
    endloop
  endfacet
  facet normal -0.421146 0.809014 0.41004
    outer loop
      vertex -9.42439 20.2107 19
      vertex -11.15 19.3124 19
      vertex -5.62082 12.0539 39
    endloop
  endfacet
  facet normal -0.421146 0.809014 0.41004
    outer loop
      vertex -5.62082 12.0539 39
      vertex -11.15 19.3124 19
      vertex -6.65 11.5181 39
    endloop
  endfacet
  facet normal -0.555231 0.723592 0.41004
    outer loop
      vertex -7.62857 10.8947 39
      vertex -12.7908 18.2671 19
      vertex -8.54908 10.1884 39
    endloop
  endfacet
  facet normal -0.119049 0.904265 0.41004
    outer loop
      vertex -1.94357 22.2151 19
      vertex -2.30952 13.0979 39
      vertex -1.15917 13.2494 39
    endloop
  endfacet
  facet normal -0.119049 0.904265 0.41004
    outer loop
      vertex -1.94357 22.2151 19
      vertex -3.87235 21.9612 19
      vertex -2.30952 13.0979 39
    endloop
  endfacet
  facet normal 0.197407 0.890448 0.41004
    outer loop
      vertex 5.77166 21.5401 19
      vertex 2.30952 13.0979 39
      vertex 3.44229 12.8468 39
    endloop
  endfacet
  facet normal 0.197407 0.890448 0.41004
    outer loop
      vertex 3.87235 21.9612 19
      vertex 2.30952 13.0979 39
      vertex 5.77166 21.5401 19
    endloop
  endfacet
  facet normal 0.809014 0.421146 0.41004
    outer loop
      vertex 19.3124 11.15 19
      vertex 11.5181 6.65 39
      vertex 12.0539 5.62082 39
    endloop
  endfacet
  facet normal 0.842641 0.349033 0.41004
    outer loop
      vertex 20.2107 9.42439 19
      vertex 12.4979 4.54887 39
      vertex 20.9551 7.62705 19
    endloop
  endfacet
  facet normal 0.76923 0.490053 0.41004
    outer loop
      vertex 19.3124 11.15 19
      vertex 10.8947 7.62857 39
      vertex 11.5181 6.65 39
    endloop
  endfacet
  facet normal 0.76923 0.490054 0.41004
    outer loop
      vertex 18.2671 12.7908 19
      vertex 10.8947 7.62857 39
      vertex 19.3124 11.15 19
    endloop
  endfacet
  facet normal 0.869854 0.274264 0.41004
    outer loop
      vertex 21.5401 5.77166 19
      vertex 12.4979 4.54887 39
      vertex 12.8468 3.44229 39
    endloop
  endfacet
  facet normal 0.9112 0.0397839 0.41004
    outer loop
      vertex 22.2151 1.94357 19
      vertex 13.2494 1.15917 39
      vertex 13.3 0 39
    endloop
  endfacet
  facet normal 0.904265 0.119049 0.41004
    outer loop
      vertex 22.2151 1.94357 19
      vertex 13.0979 2.30952 39
      vertex 13.2494 1.15917 39
    endloop
  endfacet
  facet normal 0.119049 -0.904265 0.41004
    outer loop
      vertex 2.30952 -13.0979 39
      vertex 1.94357 -22.2151 19
      vertex 3.87235 -21.9612 19
    endloop
  endfacet
  facet normal 0.349033 -0.842641 0.41004
    outer loop
      vertex 5.62082 -12.0539 39
      vertex 4.54887 -12.4979 39
      vertex 9.42439 -20.2107 19
    endloop
  endfacet
  facet normal 0.672447 -0.616184 0.41004
    outer loop
      vertex 10.1884 -8.54908 39
      vertex 9.40452 -9.40452 39
      vertex 17.0828 -14.3342 19
    endloop
  endfacet
  facet normal 0.616184 -0.672447 0.41004
    outer loop
      vertex 9.40452 -9.40452 39
      vertex 8.54908 -10.1884 39
      vertex 14.3342 -17.0828 19
    endloop
  endfacet
  facet normal 0.76923 -0.490054 0.41004
    outer loop
      vertex 19.3124 -11.15 19
      vertex 10.8947 -7.62857 39
      vertex 18.2671 -12.7908 19
    endloop
  endfacet
  facet normal 0.723592 -0.555232 0.41004
    outer loop
      vertex 18.2671 -12.7908 19
      vertex 10.1884 -8.54908 39
      vertex 17.0828 -14.3342 19
    endloop
  endfacet
  facet normal 0.76923 -0.490053 0.41004
    outer loop
      vertex 11.5181 -6.65 39
      vertex 10.8947 -7.62857 39
      vertex 19.3124 -11.15 19
    endloop
  endfacet
  facet normal 0.809014 -0.421146 0.41004
    outer loop
      vertex 12.0539 -5.62082 39
      vertex 11.5181 -6.65 39
      vertex 19.3124 -11.15 19
    endloop
  endfacet
  facet normal 0.869854 -0.274264 0.41004
    outer loop
      vertex 12.8468 -3.44229 39
      vertex 12.4979 -4.54887 39
      vertex 21.5401 -5.77166 19
    endloop
  endfacet
  facet normal 0.842641 -0.349033 0.41004
    outer loop
      vertex 12.4979 -4.54887 39
      vertex 12.0539 -5.62082 39
      vertex 20.2107 -9.42439 19
    endloop
  endfacet
  facet normal -0.672447 -0.616184 0.41004
    outer loop
      vertex -9.40452 -9.40452 39
      vertex -17.0828 -14.3342 19
      vertex -15.7685 -15.7685 19
    endloop
  endfacet
  facet normal -0.842641 -0.349033 0.41004
    outer loop
      vertex -12.4979 -4.54887 39
      vertex -20.9551 -7.62705 19
      vertex -20.2107 -9.42439 19
    endloop
  endfacet
  facet normal -0.842641 -0.349033 0.41004
    outer loop
      vertex -12.4979 -4.54887 39
      vertex -20.2107 -9.42439 19
      vertex -12.0539 -5.62082 39
    endloop
  endfacet
  facet normal -0.869854 -0.274264 0.41004
    outer loop
      vertex -12.8468 -3.44229 39
      vertex -21.5401 -5.77166 19
      vertex -12.4979 -4.54887 39
    endloop
  endfacet
  facet normal -0.9112 -0.0397839 0.41004
    outer loop
      vertex -13.3 0 39
      vertex -22.2151 -1.94357 19
      vertex -13.2494 -1.15917 39
    endloop
  endfacet
  facet normal -0.904265 -0.119049 0.41004
    outer loop
      vertex -13.2494 -1.15917 39
      vertex -22.2151 -1.94357 19
      vertex -13.0979 -2.30952 39
    endloop
  endfacet
  facet normal -0.890448 -0.197407 0.41004
    outer loop
      vertex -13.0979 -2.30952 39
      vertex -21.9612 -3.87235 19
      vertex -21.5401 -5.77166 19
    endloop
  endfacet
  facet normal -0.869854 0.274264 0.41004
    outer loop
      vertex -20.9551 7.62705 19
      vertex -21.5401 5.77166 19
      vertex -12.4979 4.54887 39
    endloop
  endfacet
  facet normal -0.890448 0.197407 0.41004
    outer loop
      vertex -21.5401 5.77166 19
      vertex -21.9612 3.87235 19
      vertex -13.0979 2.30952 39
    endloop
  endfacet
  facet normal -0.809014 0.421146 0.41004
    outer loop
      vertex -11.5181 6.65 39
      vertex -19.3124 11.15 19
      vertex -12.0539 5.62082 39
    endloop
  endfacet
  facet normal -0.197407 -0.890448 0.41004
    outer loop
      vertex -2.30952 -13.0979 39
      vertex -5.77166 -21.5401 19
      vertex -3.87235 -21.9612 19
    endloop
  endfacet
  facet normal -0.0397837 -0.9112 0.41004
    outer loop
      vertex 0 -13.3 39
      vertex -1.94357 -22.2151 19
      vertex 0 -22.3 19
    endloop
  endfacet
  facet normal -0.555231 -0.723592 0.41004
    outer loop
      vertex -8.54908 -10.1884 39
      vertex -12.7908 -18.2671 19
      vertex -7.62857 -10.8947 39
    endloop
  endfacet
  facet normal -0.349033 -0.842641 0.41004
    outer loop
      vertex -5.62082 -12.0539 39
      vertex -9.42439 -20.2107 19
      vertex -4.54887 -12.4979 39
    endloop
  endfacet
  facet normal -0.421146 -0.809014 0.41004
    outer loop
      vertex -5.62082 -12.0539 39
      vertex -11.15 -19.3124 19
      vertex -9.42439 -20.2107 19
    endloop
  endfacet
  facet normal 0.421146 0.809014 0.41004
    outer loop
      vertex 9.42439 20.2107 19
      vertex 5.62082 12.0539 39
      vertex 11.15 19.3124 19
    endloop
  endfacet
  facet normal 0.421146 0.809014 0.41004
    outer loop
      vertex 11.15 19.3124 19
      vertex 5.62082 12.0539 39
      vertex 6.65 11.5181 39
    endloop
  endfacet
  facet normal 0.349033 0.842641 0.41004
    outer loop
      vertex 7.62705 20.9551 19
      vertex 4.54887 12.4979 39
      vertex 9.42439 20.2107 19
    endloop
  endfacet
  facet normal 0.672447 0.616184 0.41004
    outer loop
      vertex 17.0828 14.3342 19
      vertex 9.40452 9.40452 39
      vertex 10.1884 8.54908 39
    endloop
  endfacet
  facet normal 0.672447 0.616184 0.41004
    outer loop
      vertex 15.7685 15.7685 19
      vertex 9.40452 9.40452 39
      vertex 17.0828 14.3342 19
    endloop
  endfacet
  facet normal -0.274264 0.869854 0.41004
    outer loop
      vertex -3.44229 12.8468 39
      vertex -5.77166 21.5401 19
      vertex -4.54887 12.4979 39
    endloop
  endfacet
  facet normal -0.490053 0.76923 0.41004
    outer loop
      vertex -6.65 11.5181 39
      vertex -11.15 19.3124 19
      vertex -7.62857 10.8947 39
    endloop
  endfacet
  facet normal -0.490054 0.76923 0.41004
    outer loop
      vertex -11.15 19.3124 19
      vertex -12.7908 18.2671 19
      vertex -7.62857 10.8947 39
    endloop
  endfacet
  facet normal 0.842641 0.349033 0.41004
    outer loop
      vertex 20.2107 9.42439 19
      vertex 12.0539 5.62082 39
      vertex 12.4979 4.54887 39
    endloop
  endfacet
  facet normal 0.197407 -0.890448 0.41004
    outer loop
      vertex 3.44229 -12.8468 39
      vertex 2.30952 -13.0979 39
      vertex 5.77166 -21.5401 19
    endloop
  endfacet
  facet normal 0.421146 -0.809014 0.41004
    outer loop
      vertex 11.15 -19.3124 19
      vertex 5.62082 -12.0539 39
      vertex 9.42439 -20.2107 19
    endloop
  endfacet
  facet normal 0.421146 -0.809014 0.41004
    outer loop
      vertex 6.65 -11.5181 39
      vertex 5.62082 -12.0539 39
      vertex 11.15 -19.3124 19
    endloop
  endfacet
  facet normal 0.555231 -0.723592 0.41004
    outer loop
      vertex 8.54908 -10.1884 39
      vertex 7.62857 -10.8947 39
      vertex 12.7908 -18.2671 19
    endloop
  endfacet
  facet normal 0.723592 -0.555231 0.41004
    outer loop
      vertex 10.8947 -7.62857 39
      vertex 10.1884 -8.54908 39
      vertex 18.2671 -12.7908 19
    endloop
  endfacet
  facet normal 0.904265 -0.119049 0.41004
    outer loop
      vertex 13.2494 -1.15917 39
      vertex 13.0979 -2.30952 39
      vertex 22.2151 -1.94357 19
    endloop
  endfacet
  facet normal -0.723592 -0.555232 0.41004
    outer loop
      vertex -10.1884 -8.54908 39
      vertex -18.2671 -12.7908 19
      vertex -17.0828 -14.3342 19
    endloop
  endfacet
  facet normal -0.76923 -0.490053 0.41004
    outer loop
      vertex -11.5181 -6.65 39
      vertex -19.3124 -11.15 19
      vertex -10.8947 -7.62857 39
    endloop
  endfacet
  facet normal -0.809014 -0.421146 0.41004
    outer loop
      vertex -12.0539 -5.62082 39
      vertex -20.2107 -9.42439 19
      vertex -19.3124 -11.15 19
    endloop
  endfacet
  facet normal -0.809014 -0.421146 0.41004
    outer loop
      vertex -12.0539 -5.62082 39
      vertex -19.3124 -11.15 19
      vertex -11.5181 -6.65 39
    endloop
  endfacet
  facet normal -0.9112 0.0397839 0.41004
    outer loop
      vertex -13.2494 1.15917 39
      vertex -22.2151 1.94357 19
      vertex -13.3 0 39
    endloop
  endfacet
  facet normal 0 0 1
    outer loop
      vertex 10.3 0 39
      vertex 13.3 0 39
      vertex 13.2494 1.15917 39
    endloop
  endfacet
  facet normal 0 0 1
    outer loop
      vertex 10.2608 0.897704 39
      vertex 13.2494 1.15917 39
      vertex 13.0979 2.30952 39
    endloop
  endfacet
  facet normal 0 0 1
    outer loop
      vertex 13.3 0 39
      vertex 10.3 0 39
      vertex 13.2494 -1.15917 39
    endloop
  endfacet
  facet normal 0 0 1
    outer loop
      vertex 10.1435 1.78858 39
      vertex 13.0979 2.30952 39
      vertex 12.8468 3.44229 39
    endloop
  endfacet
  facet normal -0 0 1
    outer loop
      vertex 10.2608 -0.897704 39
      vertex 13.2494 -1.15917 39
      vertex 10.3 0 39
    endloop
  endfacet
  facet normal 0 0 1
    outer loop
      vertex 9.94904 2.66584 39
      vertex 12.8468 3.44229 39
      vertex 12.4979 4.54887 39
    endloop
  endfacet
  facet normal 0 0 1
    outer loop
      vertex 13.2494 -1.15917 39
      vertex 10.2608 -0.897704 39
      vertex 13.0979 -2.30952 39
    endloop
  endfacet
  facet normal 0 0 1
    outer loop
      vertex 9.67883 3.52281 39
      vertex 12.4979 4.54887 39
      vertex 12.0539 5.62082 39
    endloop
  endfacet
  facet normal -0 0 1
    outer loop
      vertex 10.1435 -1.78858 39
      vertex 13.0979 -2.30952 39
      vertex 10.2608 -0.897704 39
    endloop
  endfacet
  facet normal 0 0 1
    outer loop
      vertex 9.33497 4.35297 39
      vertex 12.0539 5.62082 39
      vertex 11.5181 6.65 39
    endloop
  endfacet
  facet normal 0 0 1
    outer loop
      vertex 13.0979 -2.30952 39
      vertex 10.1435 -1.78858 39
      vertex 12.8468 -3.44229 39
    endloop
  endfacet
  facet normal 0 0 1
    outer loop
      vertex 8.92006 5.15 39
      vertex 11.5181 6.65 39
      vertex 10.8947 7.62857 39
    endloop
  endfacet
  facet normal -0 0 1
    outer loop
      vertex 9.94904 -2.66584 39
      vertex 12.8468 -3.44229 39
      vertex 10.1435 -1.78858 39
    endloop
  endfacet
  facet normal 0 0 1
    outer loop
      vertex 12.8468 -3.44229 39
      vertex 9.94904 -2.66584 39
      vertex 12.4979 -4.54887 39
    endloop
  endfacet
  facet normal 0 0 1
    outer loop
      vertex 13.2494 1.15917 39
      vertex 10.2608 0.897704 39
      vertex 10.3 0 39
    endloop
  endfacet
  facet normal 0 0 1
    outer loop
      vertex 8.43727 5.90784 39
      vertex 10.8947 7.62857 39
      vertex 10.1884 8.54908 39
    endloop
  endfacet
  facet normal 0 0 1
    outer loop
      vertex 13.0979 2.30952 39
      vertex 10.1435 1.78858 39
      vertex 10.2608 0.897704 39
    endloop
  endfacet
  facet normal 0 0 1
    outer loop
      vertex 12.8468 3.44229 39
      vertex 9.94904 2.66584 39
      vertex 10.1435 1.78858 39
    endloop
  endfacet
  facet normal 0 0 1
    outer loop
      vertex 12.4979 4.54887 39
      vertex 9.67883 3.52281 39
      vertex 9.94904 2.66584 39
    endloop
  endfacet
  facet normal 0 0 1
    outer loop
      vertex 7.89026 6.62071 39
      vertex 10.1884 8.54908 39
      vertex 9.40452 9.40452 39
    endloop
  endfacet
  facet normal 0 0 1
    outer loop
      vertex 12.0539 5.62082 39
      vertex 9.33497 4.35297 39
      vertex 9.67883 3.52281 39
    endloop
  endfacet
  facet normal 0 0 1
    outer loop
      vertex 11.5181 6.65 39
      vertex 8.92006 5.15 39
      vertex 9.33497 4.35297 39
    endloop
  endfacet
  facet normal 0 0 1
    outer loop
      vertex 7.2832 7.2832 39
      vertex 9.40452 9.40452 39
      vertex 8.54908 10.1884 39
    endloop
  endfacet
  facet normal 0 0 1
    outer loop
      vertex 10.8947 7.62857 39
      vertex 8.43727 5.90784 39
      vertex 8.92006 5.15 39
    endloop
  endfacet
  facet normal 0 0 1
    outer loop
      vertex 10.1884 8.54908 39
      vertex 7.89026 6.62071 39
      vertex 8.43727 5.90784 39
    endloop
  endfacet
  facet normal 0 0 1
    outer loop
      vertex 6.62071 7.89026 39
      vertex 8.54908 10.1884 39
      vertex 7.62857 10.8947 39
    endloop
  endfacet
  facet normal 0 0 1
    outer loop
      vertex 9.40452 9.40452 39
      vertex 7.2832 7.2832 39
      vertex 7.89026 6.62071 39
    endloop
  endfacet
  facet normal 0 0 1
    outer loop
      vertex 5.90784 8.43727 39
      vertex 7.62857 10.8947 39
      vertex 6.65 11.5181 39
    endloop
  endfacet
  facet normal 0 0 1
    outer loop
      vertex 8.54908 10.1884 39
      vertex 6.62071 7.89026 39
      vertex 7.2832 7.2832 39
    endloop
  endfacet
  facet normal 0 0 1
    outer loop
      vertex 7.62857 10.8947 39
      vertex 5.90784 8.43727 39
      vertex 6.62071 7.89026 39
    endloop
  endfacet
  facet normal 0 0 1
    outer loop
      vertex 5.15 8.92006 39
      vertex 6.65 11.5181 39
      vertex 5.62082 12.0539 39
    endloop
  endfacet
  facet normal 0 0 1
    outer loop
      vertex 6.65 11.5181 39
      vertex 5.15 8.92006 39
      vertex 5.90784 8.43727 39
    endloop
  endfacet
  facet normal 0 0 1
    outer loop
      vertex 4.35297 9.33497 39
      vertex 5.62082 12.0539 39
      vertex 4.54887 12.4979 39
    endloop
  endfacet
  facet normal 0 0 1
    outer loop
      vertex 5.62082 12.0539 39
      vertex 4.35297 9.33497 39
      vertex 5.15 8.92006 39
    endloop
  endfacet
  facet normal 0 0 1
    outer loop
      vertex 4.54887 12.4979 39
      vertex 3.52281 9.67883 39
      vertex 4.35297 9.33497 39
    endloop
  endfacet
  facet normal 0 0 1
    outer loop
      vertex 3.44229 12.8468 39
      vertex 3.52281 9.67883 39
      vertex 4.54887 12.4979 39
    endloop
  endfacet
  facet normal 0 0 1
    outer loop
      vertex 3.44229 12.8468 39
      vertex 2.66584 9.94904 39
      vertex 3.52281 9.67883 39
    endloop
  endfacet
  facet normal 0 0 1
    outer loop
      vertex 2.30952 13.0979 39
      vertex 2.66584 9.94904 39
      vertex 3.44229 12.8468 39
    endloop
  endfacet
  facet normal 0 0 1
    outer loop
      vertex 2.30952 13.0979 39
      vertex 1.78858 10.1435 39
      vertex 2.66584 9.94904 39
    endloop
  endfacet
  facet normal 0 0 1
    outer loop
      vertex 1.15917 13.2494 39
      vertex 1.78858 10.1435 39
      vertex 2.30952 13.0979 39
    endloop
  endfacet
  facet normal 0 0 1
    outer loop
      vertex 1.15917 13.2494 39
      vertex 0.897704 10.2608 39
      vertex 1.78858 10.1435 39
    endloop
  endfacet
  facet normal 0 0 1
    outer loop
      vertex 0 13.3 39
      vertex 0.897704 10.2608 39
      vertex 1.15917 13.2494 39
    endloop
  endfacet
  facet normal 0 0 1
    outer loop
      vertex 0 13.3 39
      vertex 0 10.3 39
      vertex 0.897704 10.2608 39
    endloop
  endfacet
  facet normal 0 0 1
    outer loop
      vertex 0 13.3 39
      vertex -0.897704 10.2608 39
      vertex 0 10.3 39
    endloop
  endfacet
  facet normal -0 0 1
    outer loop
      vertex -1.15917 13.2494 39
      vertex -0.897704 10.2608 39
      vertex 0 13.3 39
    endloop
  endfacet
  facet normal 0 0 1
    outer loop
      vertex -1.15917 13.2494 39
      vertex -1.78858 10.1435 39
      vertex -0.897704 10.2608 39
    endloop
  endfacet
  facet normal -0 0 1
    outer loop
      vertex -2.30952 13.0979 39
      vertex -1.78858 10.1435 39
      vertex -1.15917 13.2494 39
    endloop
  endfacet
  facet normal 0 0 1
    outer loop
      vertex -2.30952 13.0979 39
      vertex -2.66584 9.94904 39
      vertex -1.78858 10.1435 39
    endloop
  endfacet
  facet normal -0 0 1
    outer loop
      vertex -3.44229 12.8468 39
      vertex -2.66584 9.94904 39
      vertex -2.30952 13.0979 39
    endloop
  endfacet
  facet normal 0 0 1
    outer loop
      vertex -3.44229 12.8468 39
      vertex -3.52281 9.67883 39
      vertex -2.66584 9.94904 39
    endloop
  endfacet
  facet normal -0 0 1
    outer loop
      vertex -4.54887 12.4979 39
      vertex -3.52281 9.67883 39
      vertex -3.44229 12.8468 39
    endloop
  endfacet
  facet normal 0 0 1
    outer loop
      vertex -3.52281 9.67883 39
      vertex -4.54887 12.4979 39
      vertex -4.35297 9.33497 39
    endloop
  endfacet
  facet normal -0 0 1
    outer loop
      vertex -5.62082 12.0539 39
      vertex -4.35297 9.33497 39
      vertex -4.54887 12.4979 39
    endloop
  endfacet
  facet normal 0 0 1
    outer loop
      vertex -4.35297 9.33497 39
      vertex -5.62082 12.0539 39
      vertex -5.15 8.92006 39
    endloop
  endfacet
  facet normal -0 0 1
    outer loop
      vertex -6.65 11.5181 39
      vertex -5.15 8.92006 39
      vertex -5.62082 12.0539 39
    endloop
  endfacet
  facet normal 0 0 1
    outer loop
      vertex -5.15 8.92006 39
      vertex -6.65 11.5181 39
      vertex -5.90784 8.43727 39
    endloop
  endfacet
  facet normal -0 0 1
    outer loop
      vertex -7.62857 10.8947 39
      vertex -5.90784 8.43727 39
      vertex -6.65 11.5181 39
    endloop
  endfacet
  facet normal 0 0 1
    outer loop
      vertex -5.90784 8.43727 39
      vertex -7.62857 10.8947 39
      vertex -6.62071 7.89026 39
    endloop
  endfacet
  facet normal -0 0 1
    outer loop
      vertex -8.54908 10.1884 39
      vertex -6.62071 7.89026 39
      vertex -7.62857 10.8947 39
    endloop
  endfacet
  facet normal 0 0 1
    outer loop
      vertex -6.62071 7.89026 39
      vertex -8.54908 10.1884 39
      vertex -7.2832 7.2832 39
    endloop
  endfacet
  facet normal -0 0 1
    outer loop
      vertex -9.40452 9.40452 39
      vertex -7.2832 7.2832 39
      vertex -8.54908 10.1884 39
    endloop
  endfacet
  facet normal 0 0 1
    outer loop
      vertex -7.2832 7.2832 39
      vertex -9.40452 9.40452 39
      vertex -7.89026 6.62071 39
    endloop
  endfacet
  facet normal -0 0 1
    outer loop
      vertex -10.1884 8.54908 39
      vertex -7.89026 6.62071 39
      vertex -9.40452 9.40452 39
    endloop
  endfacet
  facet normal 0 0 1
    outer loop
      vertex -7.89026 6.62071 39
      vertex -10.1884 8.54908 39
      vertex -8.43727 5.90784 39
    endloop
  endfacet
  facet normal -0 0 1
    outer loop
      vertex -10.8947 7.62857 39
      vertex -8.43727 5.90784 39
      vertex -10.1884 8.54908 39
    endloop
  endfacet
  facet normal 0 0 1
    outer loop
      vertex -8.43727 5.90784 39
      vertex -10.8947 7.62857 39
      vertex -8.92006 5.15 39
    endloop
  endfacet
  facet normal -0 0 1
    outer loop
      vertex -11.5181 6.65 39
      vertex -8.92006 5.15 39
      vertex -10.8947 7.62857 39
    endloop
  endfacet
  facet normal 0 0 1
    outer loop
      vertex -8.92006 5.15 39
      vertex -11.5181 6.65 39
      vertex -9.33497 4.35297 39
    endloop
  endfacet
  facet normal -0 0 1
    outer loop
      vertex -12.0539 5.62082 39
      vertex -9.33497 4.35297 39
      vertex -11.5181 6.65 39
    endloop
  endfacet
  facet normal 0 0 1
    outer loop
      vertex -9.33497 4.35297 39
      vertex -12.0539 5.62082 39
      vertex -9.67883 3.52281 39
    endloop
  endfacet
  facet normal -0 0 1
    outer loop
      vertex -12.4979 4.54887 39
      vertex -9.67883 3.52281 39
      vertex -12.0539 5.62082 39
    endloop
  endfacet
  facet normal 0 0 1
    outer loop
      vertex -9.67883 3.52281 39
      vertex -12.4979 4.54887 39
      vertex -9.94904 2.66584 39
    endloop
  endfacet
  facet normal -0 0 1
    outer loop
      vertex 9.67883 -3.52281 39
      vertex 12.4979 -4.54887 39
      vertex 9.94904 -2.66584 39
    endloop
  endfacet
  facet normal 0 0 1
    outer loop
      vertex 12.4979 -4.54887 39
      vertex 9.67883 -3.52281 39
      vertex 12.0539 -5.62082 39
    endloop
  endfacet
  facet normal -0 0 1
    outer loop
      vertex 9.33497 -4.35297 39
      vertex 12.0539 -5.62082 39
      vertex 9.67883 -3.52281 39
    endloop
  endfacet
  facet normal 0 0 1
    outer loop
      vertex 12.0539 -5.62082 39
      vertex 9.33497 -4.35297 39
      vertex 11.5181 -6.65 39
    endloop
  endfacet
  facet normal -0 0 1
    outer loop
      vertex 8.92006 -5.15 39
      vertex 11.5181 -6.65 39
      vertex 9.33497 -4.35297 39
    endloop
  endfacet
  facet normal 0 0 1
    outer loop
      vertex 11.5181 -6.65 39
      vertex 8.92006 -5.15 39
      vertex 10.8947 -7.62857 39
    endloop
  endfacet
  facet normal -0 0 1
    outer loop
      vertex 8.43727 -5.90784 39
      vertex 10.8947 -7.62857 39
      vertex 8.92006 -5.15 39
    endloop
  endfacet
  facet normal 0 0 1
    outer loop
      vertex 10.8947 -7.62857 39
      vertex 8.43727 -5.90784 39
      vertex 10.1884 -8.54908 39
    endloop
  endfacet
  facet normal -0 0 1
    outer loop
      vertex 7.89026 -6.62071 39
      vertex 10.1884 -8.54908 39
      vertex 8.43727 -5.90784 39
    endloop
  endfacet
  facet normal 0 0 1
    outer loop
      vertex 10.1884 -8.54908 39
      vertex 7.89026 -6.62071 39
      vertex 9.40452 -9.40452 39
    endloop
  endfacet
  facet normal -0 0 1
    outer loop
      vertex 7.2832 -7.2832 39
      vertex 9.40452 -9.40452 39
      vertex 7.89026 -6.62071 39
    endloop
  endfacet
  facet normal 0 0 1
    outer loop
      vertex 9.40452 -9.40452 39
      vertex 7.2832 -7.2832 39
      vertex 8.54908 -10.1884 39
    endloop
  endfacet
  facet normal -0 0 1
    outer loop
      vertex 6.62071 -7.89026 39
      vertex 8.54908 -10.1884 39
      vertex 7.2832 -7.2832 39
    endloop
  endfacet
  facet normal 0 0 1
    outer loop
      vertex 8.54908 -10.1884 39
      vertex 6.62071 -7.89026 39
      vertex 7.62857 -10.8947 39
    endloop
  endfacet
  facet normal -0 0 1
    outer loop
      vertex 5.90784 -8.43727 39
      vertex 7.62857 -10.8947 39
      vertex 6.62071 -7.89026 39
    endloop
  endfacet
  facet normal 0 0 1
    outer loop
      vertex 7.62857 -10.8947 39
      vertex 5.90784 -8.43727 39
      vertex 6.65 -11.5181 39
    endloop
  endfacet
  facet normal -0 0 1
    outer loop
      vertex 5.15 -8.92006 39
      vertex 6.65 -11.5181 39
      vertex 5.90784 -8.43727 39
    endloop
  endfacet
  facet normal 0 0 1
    outer loop
      vertex 6.65 -11.5181 39
      vertex 5.15 -8.92006 39
      vertex 5.62082 -12.0539 39
    endloop
  endfacet
  facet normal -0 0 1
    outer loop
      vertex 4.35297 -9.33497 39
      vertex 5.62082 -12.0539 39
      vertex 5.15 -8.92006 39
    endloop
  endfacet
  facet normal 0 0 1
    outer loop
      vertex 5.62082 -12.0539 39
      vertex 4.35297 -9.33497 39
      vertex 4.54887 -12.4979 39
    endloop
  endfacet
  facet normal -0 0 1
    outer loop
      vertex 3.52281 -9.67883 39
      vertex 4.54887 -12.4979 39
      vertex 4.35297 -9.33497 39
    endloop
  endfacet
  facet normal 0 0 1
    outer loop
      vertex 3.52281 -9.67883 39
      vertex 3.44229 -12.8468 39
      vertex 4.54887 -12.4979 39
    endloop
  endfacet
  facet normal -0 0 1
    outer loop
      vertex 2.66584 -9.94904 39
      vertex 3.44229 -12.8468 39
      vertex 3.52281 -9.67883 39
    endloop
  endfacet
  facet normal 0 0 1
    outer loop
      vertex 2.66584 -9.94904 39
      vertex 2.30952 -13.0979 39
      vertex 3.44229 -12.8468 39
    endloop
  endfacet
  facet normal -0 0 1
    outer loop
      vertex 1.78858 -10.1435 39
      vertex 2.30952 -13.0979 39
      vertex 2.66584 -9.94904 39
    endloop
  endfacet
  facet normal 0 0 1
    outer loop
      vertex 1.78858 -10.1435 39
      vertex 1.15917 -13.2494 39
      vertex 2.30952 -13.0979 39
    endloop
  endfacet
  facet normal -0 0 1
    outer loop
      vertex 0.897704 -10.2608 39
      vertex 1.15917 -13.2494 39
      vertex 1.78858 -10.1435 39
    endloop
  endfacet
  facet normal -0 0 1
    outer loop
      vertex 0 -10.3 39
      vertex 1.15917 -13.2494 39
      vertex 0.897704 -10.2608 39
    endloop
  endfacet
  facet normal 0 0 1
    outer loop
      vertex 0 -10.3 39
      vertex 0 -13.3 39
      vertex 1.15917 -13.2494 39
    endloop
  endfacet
  facet normal 0 0 1
    outer loop
      vertex -0.897704 -10.2608 39
      vertex 0 -13.3 39
      vertex 0 -10.3 39
    endloop
  endfacet
  facet normal 0 0 1
    outer loop
      vertex -0.897704 -10.2608 39
      vertex -1.15917 -13.2494 39
      vertex 0 -13.3 39
    endloop
  endfacet
  facet normal 0 0 1
    outer loop
      vertex -1.78858 -10.1435 39
      vertex -1.15917 -13.2494 39
      vertex -0.897704 -10.2608 39
    endloop
  endfacet
  facet normal 0 0 1
    outer loop
      vertex -1.78858 -10.1435 39
      vertex -2.30952 -13.0979 39
      vertex -1.15917 -13.2494 39
    endloop
  endfacet
  facet normal 0 0 1
    outer loop
      vertex -2.66584 -9.94904 39
      vertex -2.30952 -13.0979 39
      vertex -1.78858 -10.1435 39
    endloop
  endfacet
  facet normal 0 0 1
    outer loop
      vertex -2.66584 -9.94904 39
      vertex -3.44229 -12.8468 39
      vertex -2.30952 -13.0979 39
    endloop
  endfacet
  facet normal 0 0 1
    outer loop
      vertex -3.52281 -9.67883 39
      vertex -3.44229 -12.8468 39
      vertex -2.66584 -9.94904 39
    endloop
  endfacet
  facet normal 0 0 1
    outer loop
      vertex -4.54887 -12.4979 39
      vertex -3.52281 -9.67883 39
      vertex -4.35297 -9.33497 39
    endloop
  endfacet
  facet normal 0 0 1
    outer loop
      vertex -3.52281 -9.67883 39
      vertex -4.54887 -12.4979 39
      vertex -3.44229 -12.8468 39
    endloop
  endfacet
  facet normal 0 0 1
    outer loop
      vertex -5.62082 -12.0539 39
      vertex -4.35297 -9.33497 39
      vertex -5.15 -8.92006 39
    endloop
  endfacet
  facet normal 0 0 1
    outer loop
      vertex -4.35297 -9.33497 39
      vertex -5.62082 -12.0539 39
      vertex -4.54887 -12.4979 39
    endloop
  endfacet
  facet normal 0 0 1
    outer loop
      vertex -6.65 -11.5181 39
      vertex -5.15 -8.92006 39
      vertex -5.90784 -8.43727 39
    endloop
  endfacet
  facet normal 0 0 1
    outer loop
      vertex -7.62857 -10.8947 39
      vertex -5.90784 -8.43727 39
      vertex -6.62071 -7.89026 39
    endloop
  endfacet
  facet normal 0 0 1
    outer loop
      vertex -5.15 -8.92006 39
      vertex -6.65 -11.5181 39
      vertex -5.62082 -12.0539 39
    endloop
  endfacet
  facet normal 0 0 1
    outer loop
      vertex -8.54908 -10.1884 39
      vertex -6.62071 -7.89026 39
      vertex -7.2832 -7.2832 39
    endloop
  endfacet
  facet normal 0 0 1
    outer loop
      vertex -5.90784 -8.43727 39
      vertex -7.62857 -10.8947 39
      vertex -6.65 -11.5181 39
    endloop
  endfacet
  facet normal 0 0 1
    outer loop
      vertex -9.40452 -9.40452 39
      vertex -7.2832 -7.2832 39
      vertex -7.89026 -6.62071 39
    endloop
  endfacet
  facet normal 0 0 1
    outer loop
      vertex -10.1884 -8.54908 39
      vertex -7.89026 -6.62071 39
      vertex -8.43727 -5.90784 39
    endloop
  endfacet
  facet normal 0 0 1
    outer loop
      vertex -6.62071 -7.89026 39
      vertex -8.54908 -10.1884 39
      vertex -7.62857 -10.8947 39
    endloop
  endfacet
  facet normal 0 0 1
    outer loop
      vertex -10.8947 -7.62857 39
      vertex -8.43727 -5.90784 39
      vertex -8.92006 -5.15 39
    endloop
  endfacet
  facet normal 0 0 1
    outer loop
      vertex -11.5181 -6.65 39
      vertex -8.92006 -5.15 39
      vertex -9.33497 -4.35297 39
    endloop
  endfacet
  facet normal 0 0 1
    outer loop
      vertex -7.2832 -7.2832 39
      vertex -9.40452 -9.40452 39
      vertex -8.54908 -10.1884 39
    endloop
  endfacet
  facet normal 0 0 1
    outer loop
      vertex -12.0539 -5.62082 39
      vertex -9.33497 -4.35297 39
      vertex -9.67883 -3.52281 39
    endloop
  endfacet
  facet normal 0 0 1
    outer loop
      vertex -12.4979 -4.54887 39
      vertex -9.67883 -3.52281 39
      vertex -9.94904 -2.66584 39
    endloop
  endfacet
  facet normal 0 0 1
    outer loop
      vertex -12.8468 -3.44229 39
      vertex -9.94904 -2.66584 39
      vertex -10.1435 -1.78858 39
    endloop
  endfacet
  facet normal 0 0 1
    outer loop
      vertex -7.89026 -6.62071 39
      vertex -10.1884 -8.54908 39
      vertex -9.40452 -9.40452 39
    endloop
  endfacet
  facet normal 0 0 1
    outer loop
      vertex -13.0979 -2.30952 39
      vertex -10.1435 -1.78858 39
      vertex -10.2608 -0.897704 39
    endloop
  endfacet
  facet normal 0 0 1
    outer loop
      vertex -13.2494 -1.15917 39
      vertex -10.2608 -0.897704 39
      vertex -10.3 0 39
    endloop
  endfacet
  facet normal -0 0 1
    outer loop
      vertex -12.8468 3.44229 39
      vertex -9.94904 2.66584 39
      vertex -12.4979 4.54887 39
    endloop
  endfacet
  facet normal 0 0 1
    outer loop
      vertex -8.43727 -5.90784 39
      vertex -10.8947 -7.62857 39
      vertex -10.1884 -8.54908 39
    endloop
  endfacet
  facet normal 0 0 1
    outer loop
      vertex -9.94904 2.66584 39
      vertex -12.8468 3.44229 39
      vertex -10.1435 1.78858 39
    endloop
  endfacet
  facet normal 0 0 1
    outer loop
      vertex -8.92006 -5.15 39
      vertex -11.5181 -6.65 39
      vertex -10.8947 -7.62857 39
    endloop
  endfacet
  facet normal -0 0 1
    outer loop
      vertex -13.0979 2.30952 39
      vertex -10.1435 1.78858 39
      vertex -12.8468 3.44229 39
    endloop
  endfacet
  facet normal 0 0 1
    outer loop
      vertex -9.33497 -4.35297 39
      vertex -12.0539 -5.62082 39
      vertex -11.5181 -6.65 39
    endloop
  endfacet
  facet normal 0 0 1
    outer loop
      vertex -10.1435 1.78858 39
      vertex -13.0979 2.30952 39
      vertex -10.2608 0.897704 39
    endloop
  endfacet
  facet normal 0 0 1
    outer loop
      vertex -9.67883 -3.52281 39
      vertex -12.4979 -4.54887 39
      vertex -12.0539 -5.62082 39
    endloop
  endfacet
  facet normal -0 0 1
    outer loop
      vertex -13.2494 1.15917 39
      vertex -10.2608 0.897704 39
      vertex -13.0979 2.30952 39
    endloop
  endfacet
  facet normal 0 0 1
    outer loop
      vertex -9.94904 -2.66584 39
      vertex -12.8468 -3.44229 39
      vertex -12.4979 -4.54887 39
    endloop
  endfacet
  facet normal 0 0 1
    outer loop
      vertex -10.2608 0.897704 39
      vertex -13.2494 1.15917 39
      vertex -10.3 0 39
    endloop
  endfacet
  facet normal 0 0 1
    outer loop
      vertex -10.1435 -1.78858 39
      vertex -13.0979 -2.30952 39
      vertex -12.8468 -3.44229 39
    endloop
  endfacet
  facet normal 0 0 1
    outer loop
      vertex -13.3 0 39
      vertex -10.3 0 39
      vertex -13.2494 1.15917 39
    endloop
  endfacet
  facet normal 0 0 1
    outer loop
      vertex -10.2608 -0.897704 39
      vertex -13.2494 -1.15917 39
      vertex -13.0979 -2.30952 39
    endloop
  endfacet
  facet normal 0 0 1
    outer loop
      vertex -10.3 0 39
      vertex -13.3 0 39
      vertex -13.2494 -1.15917 39
    endloop
  endfacet
  facet normal -0.274264 -0.869854 0.41004
    outer loop
      vertex -4.54887 -12.4979 39
      vertex -5.77166 -21.5401 19
      vertex -3.44229 -12.8468 39
    endloop
  endfacet
  facet normal -0.119049 -0.904265 0.41004
    outer loop
      vertex -1.15917 -13.2494 39
      vertex -2.30952 -13.0979 39
      vertex -1.94357 -22.2151 19
    endloop
  endfacet
  facet normal -0.0397839 -0.9112 0.41004
    outer loop
      vertex -1.15917 -13.2494 39
      vertex -1.94357 -22.2151 19
      vertex 0 -13.3 39
    endloop
  endfacet
  facet normal -0.421146 -0.809014 0.41004
    outer loop
      vertex -6.65 -11.5181 39
      vertex -11.15 -19.3124 19
      vertex -5.62082 -12.0539 39
    endloop
  endfacet
  facet normal -0.616184 -0.672447 0.41004
    outer loop
      vertex -9.40452 -9.40452 39
      vertex -14.3342 -17.0828 19
      vertex -8.54908 -10.1884 39
    endloop
  endfacet
  facet normal -0.555232 -0.723592 0.41004
    outer loop
      vertex -8.54908 -10.1884 39
      vertex -14.3342 -17.0828 19
      vertex -12.7908 -18.2671 19
    endloop
  endfacet
  facet normal -0.490054 -0.76923 0.41004
    outer loop
      vertex -7.62857 -10.8947 39
      vertex -12.7908 -18.2671 19
      vertex -11.15 -19.3124 19
    endloop
  endfacet
  facet normal -0.349033 0.842641 0.41004
    outer loop
      vertex -7.62705 20.9551 19
      vertex -9.42439 20.2107 19
      vertex -4.54887 12.4979 39
    endloop
  endfacet
  facet normal -0.349033 0.842641 0.41004
    outer loop
      vertex -4.54887 12.4979 39
      vertex -9.42439 20.2107 19
      vertex -5.62082 12.0539 39
    endloop
  endfacet
  facet normal 0.119049 -0.904265 0.41004
    outer loop
      vertex 2.30952 -13.0979 39
      vertex 1.15917 -13.2494 39
      vertex 1.94357 -22.2151 19
    endloop
  endfacet
  facet normal 0.274264 -0.869854 0.41004
    outer loop
      vertex 4.54887 -12.4979 39
      vertex 3.44229 -12.8468 39
      vertex 5.77166 -21.5401 19
    endloop
  endfacet
  facet normal 0.490054 -0.76923 0.41004
    outer loop
      vertex 12.7908 -18.2671 19
      vertex 7.62857 -10.8947 39
      vertex 11.15 -19.3124 19
    endloop
  endfacet
  facet normal 0.890448 -0.197407 0.41004
    outer loop
      vertex 13.0979 -2.30952 39
      vertex 12.8468 -3.44229 39
      vertex 21.5401 -5.77166 19
    endloop
  endfacet
  facet normal 0.9112 -0.0397839 0.41004
    outer loop
      vertex 13.3 0 39
      vertex 13.2494 -1.15917 39
      vertex 22.2151 -1.94357 19
    endloop
  endfacet
  facet normal -0.76923 -0.490054 0.41004
    outer loop
      vertex -10.8947 -7.62857 39
      vertex -19.3124 -11.15 19
      vertex -18.2671 -12.7908 19
    endloop
  endfacet
  facet normal -0.349033 -0.842641 0.41004
    outer loop
      vertex -4.54887 -12.4979 39
      vertex -9.42439 -20.2107 19
      vertex -7.62705 -20.9551 19
    endloop
  endfacet
  facet normal -0.274264 -0.869854 0.41004
    outer loop
      vertex -4.54887 -12.4979 39
      vertex -7.62705 -20.9551 19
      vertex -5.77166 -21.5401 19
    endloop
  endfacet
  facet normal -0.723592 -0.555231 0.41004
    outer loop
      vertex -10.8947 -7.62857 39
      vertex -18.2671 -12.7908 19
      vertex -10.1884 -8.54908 39
    endloop
  endfacet
  facet normal -0.999048 0.0436188 0
    outer loop
      vertex 10.2608 -0.897704 19
      vertex 10.3 0 39
      vertex 10.3 0 19
    endloop
  endfacet
  facet normal -0.999048 0.0436188 0
    outer loop
      vertex 10.3 0 39
      vertex 10.2608 -0.897704 19
      vertex 10.2608 -0.897704 39
    endloop
  endfacet
  facet normal -0.843391 -0.5373 0
    outer loop
      vertex 8.92006 5.15 19
      vertex 8.43727 5.90784 39
      vertex 8.43727 5.90784 19
    endloop
  endfacet
  facet normal -0.843391 -0.5373 0
    outer loop
      vertex 8.43727 5.90784 39
      vertex 8.92006 5.15 19
      vertex 8.92006 5.15 39
    endloop
  endfacet
  facet normal -0.382684 -0.923879 0
    outer loop
      vertex 3.52281 9.67883 19
      vertex 4.35297 9.33497 39
      vertex 3.52281 9.67883 39
    endloop
  endfacet
  facet normal -0.382684 -0.923879 -0
    outer loop
      vertex 4.35297 9.33497 39
      vertex 3.52281 9.67883 19
      vertex 4.35297 9.33497 19
    endloop
  endfacet
  facet normal 0.461748 -0.887011 0
    outer loop
      vertex -5.15 8.92006 19
      vertex -4.35297 9.33497 39
      vertex -5.15 8.92006 39
    endloop
  endfacet
  facet normal 0.461748 -0.887011 0
    outer loop
      vertex -4.35297 9.33497 39
      vertex -5.15 8.92006 19
      vertex -4.35297 9.33497 19
    endloop
  endfacet
  facet normal 0.923879 -0.382684 0
    outer loop
      vertex -9.67883 3.52281 39
      vertex -9.33497 4.35297 19
      vertex -9.33497 4.35297 39
    endloop
  endfacet
  facet normal 0.923879 -0.382684 0
    outer loop
      vertex -9.33497 4.35297 19
      vertex -9.67883 3.52281 39
      vertex -9.67883 3.52281 19
    endloop
  endfacet
  facet normal -0.0436188 -0.999048 0
    outer loop
      vertex 0 10.3 19
      vertex 0.897704 10.2608 39
      vertex 0 10.3 39
    endloop
  endfacet
  facet normal -0.0436188 -0.999048 -0
    outer loop
      vertex 0.897704 10.2608 39
      vertex 0 10.3 19
      vertex 0.897704 10.2608 19
    endloop
  endfacet
  facet normal -0.5373 -0.843391 0
    outer loop
      vertex 5.15 8.92006 19
      vertex 5.90784 8.43727 39
      vertex 5.15 8.92006 39
    endloop
  endfacet
  facet normal -0.5373 -0.843391 -0
    outer loop
      vertex 5.90784 8.43727 39
      vertex 5.15 8.92006 19
      vertex 5.90784 8.43727 19
    endloop
  endfacet
  facet normal 0.991445 -0.130526 0
    outer loop
      vertex -10.2608 0.897704 39
      vertex -10.1435 1.78858 19
      vertex -10.1435 1.78858 39
    endloop
  endfacet
  facet normal 0.991445 -0.130526 0
    outer loop
      vertex -10.1435 1.78858 19
      vertex -10.2608 0.897704 39
      vertex -10.2608 0.897704 19
    endloop
  endfacet
  facet normal 0.793353 -0.608761 0
    outer loop
      vertex -8.43727 5.90784 39
      vertex -7.89026 6.62071 19
      vertex -7.89026 6.62071 39
    endloop
  endfacet
  facet normal 0.793353 -0.608761 0
    outer loop
      vertex -7.89026 6.62071 19
      vertex -8.43727 5.90784 39
      vertex -8.43727 5.90784 19
    endloop
  endfacet
  facet normal 0.300705 -0.953717 0
    outer loop
      vertex -3.52281 9.67883 19
      vertex -2.66584 9.94904 39
      vertex -3.52281 9.67883 39
    endloop
  endfacet
  facet normal 0.300705 -0.953717 0
    outer loop
      vertex -2.66584 9.94904 39
      vertex -3.52281 9.67883 19
      vertex -2.66584 9.94904 19
    endloop
  endfacet
  facet normal -0.130526 0.991445 0
    outer loop
      vertex 1.78858 -10.1435 19
      vertex 0.897704 -10.2608 39
      vertex 1.78858 -10.1435 39
    endloop
  endfacet
  facet normal -0.130526 0.991445 0
    outer loop
      vertex 0.897704 -10.2608 39
      vertex 1.78858 -10.1435 19
      vertex 0.897704 -10.2608 19
    endloop
  endfacet
  facet normal -0.991445 -0.130526 0
    outer loop
      vertex 10.2608 0.897704 19
      vertex 10.1435 1.78858 39
      vertex 10.1435 1.78858 19
    endloop
  endfacet
  facet normal -0.991445 -0.130526 0
    outer loop
      vertex 10.1435 1.78858 39
      vertex 10.2608 0.897704 19
      vertex 10.2608 0.897704 39
    endloop
  endfacet
  facet normal -0.793353 -0.608761 0
    outer loop
      vertex 8.43727 5.90784 19
      vertex 7.89026 6.62071 39
      vertex 7.89026 6.62071 19
    endloop
  endfacet
  facet normal -0.793353 -0.608761 0
    outer loop
      vertex 7.89026 6.62071 39
      vertex 8.43727 5.90784 19
      vertex 8.43727 5.90784 39
    endloop
  endfacet
  facet normal -0.67559 -0.737277 0
    outer loop
      vertex 6.62071 7.89026 19
      vertex 7.2832 7.2832 39
      vertex 6.62071 7.89026 39
    endloop
  endfacet
  facet normal -0.67559 -0.737277 -0
    outer loop
      vertex 7.2832 7.2832 39
      vertex 6.62071 7.89026 19
      vertex 7.2832 7.2832 19
    endloop
  endfacet
  facet normal 0.0436188 -0.999048 0
    outer loop
      vertex -0.897704 10.2608 19
      vertex 0 10.3 39
      vertex -0.897704 10.2608 39
    endloop
  endfacet
  facet normal 0.0436188 -0.999048 0
    outer loop
      vertex 0 10.3 39
      vertex -0.897704 10.2608 19
      vertex 0 10.3 19
    endloop
  endfacet
  facet normal -0.130526 -0.991445 0
    outer loop
      vertex 0.897704 10.2608 19
      vertex 1.78858 10.1435 39
      vertex 0.897704 10.2608 39
    endloop
  endfacet
  facet normal -0.130526 -0.991445 -0
    outer loop
      vertex 1.78858 10.1435 39
      vertex 0.897704 10.2608 19
      vertex 1.78858 10.1435 19
    endloop
  endfacet
  facet normal -0.461748 -0.887011 0
    outer loop
      vertex 4.35297 9.33497 19
      vertex 5.15 8.92006 39
      vertex 4.35297 9.33497 39
    endloop
  endfacet
  facet normal -0.461748 -0.887011 -0
    outer loop
      vertex 5.15 8.92006 39
      vertex 4.35297 9.33497 19
      vertex 5.15 8.92006 19
    endloop
  endfacet
  facet normal -0.608761 -0.793353 0
    outer loop
      vertex 5.90784 8.43727 19
      vertex 6.62071 7.89026 39
      vertex 5.90784 8.43727 39
    endloop
  endfacet
  facet normal -0.608761 -0.793353 -0
    outer loop
      vertex 6.62071 7.89026 39
      vertex 5.90784 8.43727 19
      vertex 6.62071 7.89026 19
    endloop
  endfacet
  facet normal 0.999048 -0.0436188 0
    outer loop
      vertex -10.3 0 39
      vertex -10.2608 0.897704 19
      vertex -10.2608 0.897704 39
    endloop
  endfacet
  facet normal 0.999048 -0.0436188 0
    outer loop
      vertex -10.2608 0.897704 19
      vertex -10.3 0 39
      vertex -10.3 0 19
    endloop
  endfacet
  facet normal 0.953717 -0.300705 0
    outer loop
      vertex -9.94904 2.66584 39
      vertex -9.67883 3.52281 19
      vertex -9.67883 3.52281 39
    endloop
  endfacet
  facet normal 0.953717 -0.300705 0
    outer loop
      vertex -9.67883 3.52281 19
      vertex -9.94904 2.66584 39
      vertex -9.94904 2.66584 19
    endloop
  endfacet
  facet normal 0.976296 -0.21644 0
    outer loop
      vertex -10.1435 1.78858 39
      vertex -9.94904 2.66584 19
      vertex -9.94904 2.66584 39
    endloop
  endfacet
  facet normal 0.976296 -0.21644 0
    outer loop
      vertex -9.94904 2.66584 19
      vertex -10.1435 1.78858 39
      vertex -10.1435 1.78858 19
    endloop
  endfacet
  facet normal 0.887011 -0.461748 0
    outer loop
      vertex -9.33497 4.35297 39
      vertex -8.92006 5.15 19
      vertex -8.92006 5.15 39
    endloop
  endfacet
  facet normal 0.887011 -0.461748 0
    outer loop
      vertex -8.92006 5.15 19
      vertex -9.33497 4.35297 39
      vertex -9.33497 4.35297 19
    endloop
  endfacet
  facet normal 0.843391 -0.5373 0
    outer loop
      vertex -8.92006 5.15 39
      vertex -8.43727 5.90784 19
      vertex -8.43727 5.90784 39
    endloop
  endfacet
  facet normal 0.843391 -0.5373 0
    outer loop
      vertex -8.43727 5.90784 19
      vertex -8.92006 5.15 39
      vertex -8.92006 5.15 19
    endloop
  endfacet
  facet normal 0.382684 -0.923879 0
    outer loop
      vertex -4.35297 9.33497 19
      vertex -3.52281 9.67883 39
      vertex -4.35297 9.33497 39
    endloop
  endfacet
  facet normal 0.382684 -0.923879 0
    outer loop
      vertex -3.52281 9.67883 39
      vertex -4.35297 9.33497 19
      vertex -3.52281 9.67883 19
    endloop
  endfacet
  facet normal 0.130526 -0.991445 0
    outer loop
      vertex -1.78858 10.1435 19
      vertex -0.897704 10.2608 39
      vertex -1.78858 10.1435 39
    endloop
  endfacet
  facet normal 0.130526 -0.991445 0
    outer loop
      vertex -0.897704 10.2608 39
      vertex -1.78858 10.1435 19
      vertex -0.897704 10.2608 19
    endloop
  endfacet
  facet normal 0.608761 -0.793353 0
    outer loop
      vertex -6.62071 7.89026 19
      vertex -5.90784 8.43727 39
      vertex -6.62071 7.89026 39
    endloop
  endfacet
  facet normal 0.608761 -0.793353 0
    outer loop
      vertex -5.90784 8.43727 39
      vertex -6.62071 7.89026 19
      vertex -5.90784 8.43727 19
    endloop
  endfacet
  facet normal 0.67559 -0.737277 0
    outer loop
      vertex -7.2832 7.2832 19
      vertex -6.62071 7.89026 39
      vertex -7.2832 7.2832 39
    endloop
  endfacet
  facet normal 0.67559 -0.737277 0
    outer loop
      vertex -6.62071 7.89026 39
      vertex -7.2832 7.2832 19
      vertex -6.62071 7.89026 19
    endloop
  endfacet
  facet normal 0.5373 -0.843391 0
    outer loop
      vertex -5.90784 8.43727 19
      vertex -5.15 8.92006 39
      vertex -5.90784 8.43727 39
    endloop
  endfacet
  facet normal 0.5373 -0.843391 0
    outer loop
      vertex -5.15 8.92006 39
      vertex -5.90784 8.43727 19
      vertex -5.15 8.92006 19
    endloop
  endfacet
  facet normal 0.737277 -0.67559 0
    outer loop
      vertex -7.89026 6.62071 39
      vertex -7.2832 7.2832 19
      vertex -7.2832 7.2832 39
    endloop
  endfacet
  facet normal 0.737277 -0.67559 0
    outer loop
      vertex -7.2832 7.2832 19
      vertex -7.89026 6.62071 39
      vertex -7.89026 6.62071 19
    endloop
  endfacet
  facet normal -0.999048 -0.0436188 0
    outer loop
      vertex 10.3 0 19
      vertex 10.2608 0.897704 39
      vertex 10.2608 0.897704 19
    endloop
  endfacet
  facet normal -0.999048 -0.0436188 0
    outer loop
      vertex 10.2608 0.897704 39
      vertex 10.3 0 19
      vertex 10.3 0 39
    endloop
  endfacet
  facet normal 0.608761 0.793353 -0
    outer loop
      vertex -5.90784 -8.43727 19
      vertex -6.62071 -7.89026 39
      vertex -5.90784 -8.43727 39
    endloop
  endfacet
  facet normal 0.608761 0.793353 0
    outer loop
      vertex -6.62071 -7.89026 39
      vertex -5.90784 -8.43727 19
      vertex -6.62071 -7.89026 19
    endloop
  endfacet
  facet normal -0.793353 0.608761 0
    outer loop
      vertex 7.89026 -6.62071 19
      vertex 8.43727 -5.90784 39
      vertex 8.43727 -5.90784 19
    endloop
  endfacet
  facet normal -0.793353 0.608761 0
    outer loop
      vertex 8.43727 -5.90784 39
      vertex 7.89026 -6.62071 19
      vertex 7.89026 -6.62071 39
    endloop
  endfacet
  facet normal -0.382684 0.923879 0
    outer loop
      vertex 4.35297 -9.33497 19
      vertex 3.52281 -9.67883 39
      vertex 4.35297 -9.33497 39
    endloop
  endfacet
  facet normal -0.382684 0.923879 0
    outer loop
      vertex 3.52281 -9.67883 39
      vertex 4.35297 -9.33497 19
      vertex 3.52281 -9.67883 19
    endloop
  endfacet
  facet normal -0.887011 -0.461748 0
    outer loop
      vertex 9.33497 4.35297 19
      vertex 8.92006 5.15 39
      vertex 8.92006 5.15 19
    endloop
  endfacet
  facet normal -0.887011 -0.461748 0
    outer loop
      vertex 8.92006 5.15 39
      vertex 9.33497 4.35297 19
      vertex 9.33497 4.35297 39
    endloop
  endfacet
  facet normal -0.923879 -0.382684 0
    outer loop
      vertex 9.67883 3.52281 19
      vertex 9.33497 4.35297 39
      vertex 9.33497 4.35297 19
    endloop
  endfacet
  facet normal -0.923879 -0.382684 0
    outer loop
      vertex 9.33497 4.35297 39
      vertex 9.67883 3.52281 19
      vertex 9.67883 3.52281 39
    endloop
  endfacet
  facet normal -0.737277 -0.67559 0
    outer loop
      vertex 7.89026 6.62071 19
      vertex 7.2832 7.2832 39
      vertex 7.2832 7.2832 19
    endloop
  endfacet
  facet normal -0.737277 -0.67559 0
    outer loop
      vertex 7.2832 7.2832 39
      vertex 7.89026 6.62071 19
      vertex 7.89026 6.62071 39
    endloop
  endfacet
  facet normal -0.21644 -0.976296 0
    outer loop
      vertex 1.78858 10.1435 19
      vertex 2.66584 9.94904 39
      vertex 1.78858 10.1435 39
    endloop
  endfacet
  facet normal -0.21644 -0.976296 -0
    outer loop
      vertex 2.66584 9.94904 39
      vertex 1.78858 10.1435 19
      vertex 2.66584 9.94904 19
    endloop
  endfacet
  facet normal -0.300705 -0.953717 0
    outer loop
      vertex 2.66584 9.94904 19
      vertex 3.52281 9.67883 39
      vertex 2.66584 9.94904 39
    endloop
  endfacet
  facet normal -0.300705 -0.953717 -0
    outer loop
      vertex 3.52281 9.67883 39
      vertex 2.66584 9.94904 19
      vertex 3.52281 9.67883 19
    endloop
  endfacet
  facet normal 0.21644 -0.976296 0
    outer loop
      vertex -2.66584 9.94904 19
      vertex -1.78858 10.1435 39
      vertex -2.66584 9.94904 39
    endloop
  endfacet
  facet normal 0.21644 -0.976296 0
    outer loop
      vertex -1.78858 10.1435 39
      vertex -2.66584 9.94904 19
      vertex -1.78858 10.1435 19
    endloop
  endfacet
  facet normal -0.991445 0.130526 0
    outer loop
      vertex 10.1435 -1.78858 19
      vertex 10.2608 -0.897704 39
      vertex 10.2608 -0.897704 19
    endloop
  endfacet
  facet normal -0.991445 0.130526 0
    outer loop
      vertex 10.2608 -0.897704 39
      vertex 10.1435 -1.78858 19
      vertex 10.1435 -1.78858 39
    endloop
  endfacet
  facet normal -0.953717 0.300705 0
    outer loop
      vertex 9.67883 -3.52281 19
      vertex 9.94904 -2.66584 39
      vertex 9.94904 -2.66584 19
    endloop
  endfacet
  facet normal -0.953717 0.300705 0
    outer loop
      vertex 9.94904 -2.66584 39
      vertex 9.67883 -3.52281 19
      vertex 9.67883 -3.52281 39
    endloop
  endfacet
  facet normal -0.887011 0.461748 0
    outer loop
      vertex 8.92006 -5.15 19
      vertex 9.33497 -4.35297 39
      vertex 9.33497 -4.35297 19
    endloop
  endfacet
  facet normal -0.887011 0.461748 0
    outer loop
      vertex 9.33497 -4.35297 39
      vertex 8.92006 -5.15 19
      vertex 8.92006 -5.15 39
    endloop
  endfacet
  facet normal 0.0436188 0.999048 -0
    outer loop
      vertex 0 -10.3 19
      vertex -0.897704 -10.2608 39
      vertex 0 -10.3 39
    endloop
  endfacet
  facet normal 0.0436188 0.999048 0
    outer loop
      vertex -0.897704 -10.2608 39
      vertex 0 -10.3 19
      vertex -0.897704 -10.2608 19
    endloop
  endfacet
  facet normal 0.999048 0.0436188 0
    outer loop
      vertex -10.2608 -0.897704 39
      vertex -10.3 0 19
      vertex -10.3 0 39
    endloop
  endfacet
  facet normal 0.999048 0.0436188 0
    outer loop
      vertex -10.3 0 19
      vertex -10.2608 -0.897704 39
      vertex -10.2608 -0.897704 19
    endloop
  endfacet
  facet normal 0.953717 0.300705 0
    outer loop
      vertex -9.67883 -3.52281 39
      vertex -9.94904 -2.66584 19
      vertex -9.94904 -2.66584 39
    endloop
  endfacet
  facet normal 0.953717 0.300705 0
    outer loop
      vertex -9.94904 -2.66584 19
      vertex -9.67883 -3.52281 39
      vertex -9.67883 -3.52281 19
    endloop
  endfacet
  facet normal -0.976296 -0.21644 0
    outer loop
      vertex 10.1435 1.78858 19
      vertex 9.94904 2.66584 39
      vertex 9.94904 2.66584 19
    endloop
  endfacet
  facet normal -0.976296 -0.21644 0
    outer loop
      vertex 9.94904 2.66584 39
      vertex 10.1435 1.78858 19
      vertex 10.1435 1.78858 39
    endloop
  endfacet
  facet normal -0.953717 -0.300705 0
    outer loop
      vertex 9.94904 2.66584 19
      vertex 9.67883 3.52281 39
      vertex 9.67883 3.52281 19
    endloop
  endfacet
  facet normal -0.953717 -0.300705 0
    outer loop
      vertex 9.67883 3.52281 39
      vertex 9.94904 2.66584 19
      vertex 9.94904 2.66584 39
    endloop
  endfacet
  facet normal 0.461748 0.887011 -0
    outer loop
      vertex -4.35297 -9.33497 19
      vertex -5.15 -8.92006 39
      vertex -4.35297 -9.33497 39
    endloop
  endfacet
  facet normal 0.461748 0.887011 0
    outer loop
      vertex -5.15 -8.92006 39
      vertex -4.35297 -9.33497 19
      vertex -5.15 -8.92006 19
    endloop
  endfacet
  facet normal -0.0436188 0.999048 0
    outer loop
      vertex 0.897704 -10.2608 19
      vertex 0 -10.3 39
      vertex 0.897704 -10.2608 39
    endloop
  endfacet
  facet normal -0.0436188 0.999048 0
    outer loop
      vertex 0 -10.3 39
      vertex 0.897704 -10.2608 19
      vertex 0 -10.3 19
    endloop
  endfacet
  facet normal 0.793353 0.608761 0
    outer loop
      vertex -7.89026 -6.62071 39
      vertex -8.43727 -5.90784 19
      vertex -8.43727 -5.90784 39
    endloop
  endfacet
  facet normal 0.793353 0.608761 0
    outer loop
      vertex -8.43727 -5.90784 19
      vertex -7.89026 -6.62071 39
      vertex -7.89026 -6.62071 19
    endloop
  endfacet
  facet normal 0.976296 0.21644 0
    outer loop
      vertex -9.94904 -2.66584 39
      vertex -10.1435 -1.78858 19
      vertex -10.1435 -1.78858 39
    endloop
  endfacet
  facet normal 0.976296 0.21644 0
    outer loop
      vertex -10.1435 -1.78858 19
      vertex -9.94904 -2.66584 39
      vertex -9.94904 -2.66584 19
    endloop
  endfacet
  facet normal 0.991445 0.130526 0
    outer loop
      vertex -10.1435 -1.78858 39
      vertex -10.2608 -0.897704 19
      vertex -10.2608 -0.897704 39
    endloop
  endfacet
  facet normal 0.991445 0.130526 0
    outer loop
      vertex -10.2608 -0.897704 19
      vertex -10.1435 -1.78858 39
      vertex -10.1435 -1.78858 19
    endloop
  endfacet
  facet normal 0.923879 0.382684 0
    outer loop
      vertex -9.33497 -4.35297 39
      vertex -9.67883 -3.52281 19
      vertex -9.67883 -3.52281 39
    endloop
  endfacet
  facet normal 0.923879 0.382684 0
    outer loop
      vertex -9.67883 -3.52281 19
      vertex -9.33497 -4.35297 39
      vertex -9.33497 -4.35297 19
    endloop
  endfacet
  facet normal -0.5373 0.843391 0
    outer loop
      vertex 5.90784 -8.43727 19
      vertex 5.15 -8.92006 39
      vertex 5.90784 -8.43727 39
    endloop
  endfacet
  facet normal -0.5373 0.843391 0
    outer loop
      vertex 5.15 -8.92006 39
      vertex 5.90784 -8.43727 19
      vertex 5.15 -8.92006 19
    endloop
  endfacet
  facet normal -0.923879 0.382684 0
    outer loop
      vertex 9.33497 -4.35297 19
      vertex 9.67883 -3.52281 39
      vertex 9.67883 -3.52281 19
    endloop
  endfacet
  facet normal -0.923879 0.382684 0
    outer loop
      vertex 9.67883 -3.52281 39
      vertex 9.33497 -4.35297 19
      vertex 9.33497 -4.35297 39
    endloop
  endfacet
  facet normal -0.843391 0.5373 0
    outer loop
      vertex 8.43727 -5.90784 19
      vertex 8.92006 -5.15 39
      vertex 8.92006 -5.15 19
    endloop
  endfacet
  facet normal -0.843391 0.5373 0
    outer loop
      vertex 8.92006 -5.15 39
      vertex 8.43727 -5.90784 19
      vertex 8.43727 -5.90784 39
    endloop
  endfacet
  facet normal -0.461748 0.887011 0
    outer loop
      vertex 5.15 -8.92006 19
      vertex 4.35297 -9.33497 39
      vertex 5.15 -8.92006 39
    endloop
  endfacet
  facet normal -0.461748 0.887011 0
    outer loop
      vertex 4.35297 -9.33497 39
      vertex 5.15 -8.92006 19
      vertex 4.35297 -9.33497 19
    endloop
  endfacet
  facet normal -0.976296 0.21644 0
    outer loop
      vertex 9.94904 -2.66584 19
      vertex 10.1435 -1.78858 39
      vertex 10.1435 -1.78858 19
    endloop
  endfacet
  facet normal -0.976296 0.21644 0
    outer loop
      vertex 10.1435 -1.78858 39
      vertex 9.94904 -2.66584 19
      vertex 9.94904 -2.66584 39
    endloop
  endfacet
  facet normal 0.5373 0.843391 -0
    outer loop
      vertex -5.15 -8.92006 19
      vertex -5.90784 -8.43727 39
      vertex -5.15 -8.92006 39
    endloop
  endfacet
  facet normal 0.5373 0.843391 0
    outer loop
      vertex -5.90784 -8.43727 39
      vertex -5.15 -8.92006 19
      vertex -5.90784 -8.43727 19
    endloop
  endfacet
  facet normal 0.300705 0.953717 -0
    outer loop
      vertex -2.66584 -9.94904 19
      vertex -3.52281 -9.67883 39
      vertex -2.66584 -9.94904 39
    endloop
  endfacet
  facet normal 0.300705 0.953717 0
    outer loop
      vertex -3.52281 -9.67883 39
      vertex -2.66584 -9.94904 19
      vertex -3.52281 -9.67883 19
    endloop
  endfacet
  facet normal 0.887011 0.461748 0
    outer loop
      vertex -8.92006 -5.15 39
      vertex -9.33497 -4.35297 19
      vertex -9.33497 -4.35297 39
    endloop
  endfacet
  facet normal 0.887011 0.461748 0
    outer loop
      vertex -9.33497 -4.35297 19
      vertex -8.92006 -5.15 39
      vertex -8.92006 -5.15 19
    endloop
  endfacet
  facet normal 0.843391 0.5373 0
    outer loop
      vertex -8.43727 -5.90784 39
      vertex -8.92006 -5.15 19
      vertex -8.92006 -5.15 39
    endloop
  endfacet
  facet normal 0.843391 0.5373 0
    outer loop
      vertex -8.92006 -5.15 19
      vertex -8.43727 -5.90784 39
      vertex -8.43727 -5.90784 19
    endloop
  endfacet
  facet normal -0.608761 0.793353 0
    outer loop
      vertex 6.62071 -7.89026 19
      vertex 5.90784 -8.43727 39
      vertex 6.62071 -7.89026 39
    endloop
  endfacet
  facet normal -0.608761 0.793353 0
    outer loop
      vertex 5.90784 -8.43727 39
      vertex 6.62071 -7.89026 19
      vertex 5.90784 -8.43727 19
    endloop
  endfacet
  facet normal -0.737277 0.67559 0
    outer loop
      vertex 7.2832 -7.2832 19
      vertex 7.89026 -6.62071 39
      vertex 7.89026 -6.62071 19
    endloop
  endfacet
  facet normal -0.737277 0.67559 0
    outer loop
      vertex 7.89026 -6.62071 39
      vertex 7.2832 -7.2832 19
      vertex 7.2832 -7.2832 39
    endloop
  endfacet
  facet normal -0.67559 0.737277 0
    outer loop
      vertex 7.2832 -7.2832 19
      vertex 6.62071 -7.89026 39
      vertex 7.2832 -7.2832 39
    endloop
  endfacet
  facet normal -0.67559 0.737277 0
    outer loop
      vertex 6.62071 -7.89026 39
      vertex 7.2832 -7.2832 19
      vertex 6.62071 -7.89026 19
    endloop
  endfacet
  facet normal -0.300705 0.953717 0
    outer loop
      vertex 3.52281 -9.67883 19
      vertex 2.66584 -9.94904 39
      vertex 3.52281 -9.67883 39
    endloop
  endfacet
  facet normal -0.300705 0.953717 0
    outer loop
      vertex 2.66584 -9.94904 39
      vertex 3.52281 -9.67883 19
      vertex 2.66584 -9.94904 19
    endloop
  endfacet
  facet normal -0.21644 0.976296 0
    outer loop
      vertex 2.66584 -9.94904 19
      vertex 1.78858 -10.1435 39
      vertex 2.66584 -9.94904 39
    endloop
  endfacet
  facet normal -0.21644 0.976296 0
    outer loop
      vertex 1.78858 -10.1435 39
      vertex 2.66584 -9.94904 19
      vertex 1.78858 -10.1435 19
    endloop
  endfacet
  facet normal 0.382684 0.923879 -0
    outer loop
      vertex -3.52281 -9.67883 19
      vertex -4.35297 -9.33497 39
      vertex -3.52281 -9.67883 39
    endloop
  endfacet
  facet normal 0.382684 0.923879 0
    outer loop
      vertex -4.35297 -9.33497 39
      vertex -3.52281 -9.67883 19
      vertex -4.35297 -9.33497 19
    endloop
  endfacet
  facet normal 0.130526 0.991445 -0
    outer loop
      vertex -0.897704 -10.2608 19
      vertex -1.78858 -10.1435 39
      vertex -0.897704 -10.2608 39
    endloop
  endfacet
  facet normal 0.130526 0.991445 0
    outer loop
      vertex -1.78858 -10.1435 39
      vertex -0.897704 -10.2608 19
      vertex -1.78858 -10.1435 19
    endloop
  endfacet
  facet normal 0.67559 0.737277 -0
    outer loop
      vertex -6.62071 -7.89026 19
      vertex -7.2832 -7.2832 39
      vertex -6.62071 -7.89026 39
    endloop
  endfacet
  facet normal 0.67559 0.737277 0
    outer loop
      vertex -7.2832 -7.2832 39
      vertex -6.62071 -7.89026 19
      vertex -7.2832 -7.2832 19
    endloop
  endfacet
  facet normal 0.737277 0.67559 0
    outer loop
      vertex -7.2832 -7.2832 39
      vertex -7.89026 -6.62071 19
      vertex -7.89026 -6.62071 39
    endloop
  endfacet
  facet normal 0.737277 0.67559 0
    outer loop
      vertex -7.89026 -6.62071 19
      vertex -7.2832 -7.2832 39
      vertex -7.2832 -7.2832 19
    endloop
  endfacet
  facet normal 0.21644 0.976296 -0
    outer loop
      vertex -1.78858 -10.1435 19
      vertex -2.66584 -9.94904 39
      vertex -1.78858 -10.1435 39
    endloop
  endfacet
  facet normal 0.21644 0.976296 0
    outer loop
      vertex -2.66584 -9.94904 39
      vertex -1.78858 -10.1435 19
      vertex -2.66584 -9.94904 19
    endloop
  endfacet
endsolid OpenSCAD_Model
