solid OpenSCAD_Model
  facet normal -1 0 0
    outer loop
      vertex 0 72.25 0
      vertex 0 71.25 0.7
      vertex 0 72.25 8
    endloop
  endfacet
  facet normal -1 0 0
    outer loop
      vertex 0 72.25 0
      vertex 0 70.25 0.7
      vertex 0 71.25 0.7
    endloop
  endfacet
  facet normal -1 0 0
    outer loop
      vertex 0 70.25 0.7
      vertex 0 69.25 0.7
      vertex 0 70.25 8
    endloop
  endfacet
  facet normal -1 0 0
    outer loop
      vertex 0 72.25 0
      vertex 0 69.25 0.7
      vertex 0 70.25 0.7
    endloop
  endfacet
  facet normal -1 0 0
    outer loop
      vertex 0 72.25 0
      vertex 0 3 0.7
      vertex 0 69.25 0.7
    endloop
  endfacet
  facet normal -1 0 0
    outer loop
      vertex 0 3 0.7
      vertex 0 2 0.7
      vertex 0 3 8
    endloop
  endfacet
  facet normal -1 0 0
    outer loop
      vertex 0 0 0
      vertex 0 3 0.7
      vertex 0 72.25 0
    endloop
  endfacet
  facet normal -1 -0 0
    outer loop
      vertex 0 3 0.7
      vertex 0 0 0
      vertex 0 2 0.7
    endloop
  endfacet
  facet normal -1 -0 0
    outer loop
      vertex 0 2 0.7
      vertex 0 0 0
      vertex 0 1 0.7
    endloop
  endfacet
  facet normal -1 0 0
    outer loop
      vertex 0 0 8
      vertex 0 1 0.7
      vertex 0 0 0
    endloop
  endfacet
  facet normal -1 0 0
    outer loop
      vertex 0 1 0.7
      vertex 0 0 8
      vertex 0 1 8
    endloop
  endfacet
  facet normal -1 -0 0
    outer loop
      vertex 0 72.25 8
      vertex 0 71.25 0.7
      vertex 0 71.25 8
    endloop
  endfacet
  facet normal -1 -0 0
    outer loop
      vertex 0 70.25 8
      vertex 0 69.25 0.7
      vertex 0 69.25 8
    endloop
  endfacet
  facet normal -1 -0 0
    outer loop
      vertex 0 3 8
      vertex 0 2 0.7
      vertex 0 2 8
    endloop
  endfacet
  facet normal -0 0 1
    outer loop
      vertex 0 1 8
      vertex 122.25 0 8
      vertex 122.25 1 8
    endloop
  endfacet
  facet normal 0 0 1
    outer loop
      vertex 122.25 0 8
      vertex 0 1 8
      vertex 0 0 8
    endloop
  endfacet
  facet normal -0 0 1
    outer loop
      vertex 0 72.25 8
      vertex 122.25 71.25 8
      vertex 122.25 72.25 8
    endloop
  endfacet
  facet normal 0 0 1
    outer loop
      vertex 122.25 71.25 8
      vertex 0 72.25 8
      vertex 0 71.25 8
    endloop
  endfacet
  facet normal 1 0 0
    outer loop
      vertex 122.25 1 8
      vertex 122.25 0 8
      vertex 122.25 1 0.7
    endloop
  endfacet
  facet normal 1 0 0
    outer loop
      vertex 122.25 3 8
      vertex 122.25 2 8
      vertex 122.25 3 0.7
    endloop
  endfacet
  facet normal 1 0 0
    outer loop
      vertex 122.25 70.25 8
      vertex 122.25 69.25 8
      vertex 122.25 70.25 0.7
    endloop
  endfacet
  facet normal 1 0 0
    outer loop
      vertex 122.25 71.25 0.7
      vertex 122.25 72.25 8
      vertex 122.25 71.25 8
    endloop
  endfacet
  facet normal 1 0 0
    outer loop
      vertex 122.25 72.25 8
      vertex 122.25 71.25 0.7
      vertex 122.25 72.25 0
    endloop
  endfacet
  facet normal 1 -0 0
    outer loop
      vertex 122.25 70.25 0.7
      vertex 122.25 72.25 0
      vertex 122.25 71.25 0.7
    endloop
  endfacet
  facet normal 1 0 0
    outer loop
      vertex 122.25 69.25 0.7
      vertex 122.25 70.25 0.7
      vertex 122.25 69.25 8
    endloop
  endfacet
  facet normal 1 -0 0
    outer loop
      vertex 122.25 69.25 0.7
      vertex 122.25 72.25 0
      vertex 122.25 70.25 0.7
    endloop
  endfacet
  facet normal 1 -0 0
    outer loop
      vertex 122.25 3 0.7
      vertex 122.25 72.25 0
      vertex 122.25 69.25 0.7
    endloop
  endfacet
  facet normal 1 0 0
    outer loop
      vertex 122.25 2 0.7
      vertex 122.25 3 0.7
      vertex 122.25 2 8
    endloop
  endfacet
  facet normal 1 0 0
    outer loop
      vertex 122.25 0 0
      vertex 122.25 3 0.7
      vertex 122.25 2 0.7
    endloop
  endfacet
  facet normal 1 0 0
    outer loop
      vertex 122.25 0 0
      vertex 122.25 2 0.7
      vertex 122.25 1 0.7
    endloop
  endfacet
  facet normal 1 0 0
    outer loop
      vertex 122.25 3 0.7
      vertex 122.25 0 0
      vertex 122.25 72.25 0
    endloop
  endfacet
  facet normal 1 0 0
    outer loop
      vertex 122.25 0 0
      vertex 122.25 1 0.7
      vertex 122.25 0 8
    endloop
  endfacet
  facet normal 0 1 -0
    outer loop
      vertex 122.25 72.25 0
      vertex 0 72.25 8
      vertex 122.25 72.25 8
    endloop
  endfacet
  facet normal 0 1 0
    outer loop
      vertex 0 72.25 8
      vertex 122.25 72.25 0
      vertex 0 72.25 0
    endloop
  endfacet
  facet normal 0 0 -1
    outer loop
      vertex 0 0 0
      vertex 122.25 72.25 0
      vertex 122.25 0 0
    endloop
  endfacet
  facet normal -0 0 -1
    outer loop
      vertex 122.25 72.25 0
      vertex 0 0 0
      vertex 0 72.25 0
    endloop
  endfacet
  facet normal 0 -1 0
    outer loop
      vertex 0 0 0
      vertex 122.25 0 8
      vertex 0 0 8
    endloop
  endfacet
  facet normal 0 -1 -0
    outer loop
      vertex 122.25 0 8
      vertex 0 0 0
      vertex 122.25 0 0
    endloop
  endfacet
  facet normal 0 1 -0
    outer loop
      vertex 122.25 1 0.7
      vertex 0 1 8
      vertex 122.25 1 8
    endloop
  endfacet
  facet normal 0 1 0
    outer loop
      vertex 0 1 8
      vertex 122.25 1 0.7
      vertex 0 1 0.7
    endloop
  endfacet
  facet normal 0 -1 0
    outer loop
      vertex 0 71.25 0.7
      vertex 122.25 71.25 8
      vertex 0 71.25 8
    endloop
  endfacet
  facet normal 0 -1 -0
    outer loop
      vertex 122.25 71.25 8
      vertex 0 71.25 0.7
      vertex 122.25 71.25 0.7
    endloop
  endfacet
  facet normal -0 0 1
    outer loop
      vertex 0 3 8
      vertex 122.25 2 8
      vertex 122.25 3 8
    endloop
  endfacet
  facet normal 0 0 1
    outer loop
      vertex 122.25 2 8
      vertex 0 3 8
      vertex 0 2 8
    endloop
  endfacet
  facet normal -0 0 1
    outer loop
      vertex 0 70.25 8
      vertex 122.25 69.25 8
      vertex 122.25 70.25 8
    endloop
  endfacet
  facet normal 0 0 1
    outer loop
      vertex 122.25 69.25 8
      vertex 0 70.25 8
      vertex 0 69.25 8
    endloop
  endfacet
  facet normal 0 -1 0
    outer loop
      vertex 0 2 0.7
      vertex 122.25 2 8
      vertex 0 2 8
    endloop
  endfacet
  facet normal 0 -1 -0
    outer loop
      vertex 122.25 2 8
      vertex 0 2 0.7
      vertex 122.25 2 0.7
    endloop
  endfacet
  facet normal 0 1 -0
    outer loop
      vertex 122.25 70.25 0.7
      vertex 0 70.25 8
      vertex 122.25 70.25 8
    endloop
  endfacet
  facet normal 0 1 0
    outer loop
      vertex 0 70.25 8
      vertex 122.25 70.25 0.7
      vertex 0 70.25 0.7
    endloop
  endfacet
  facet normal 0 -1 0
    outer loop
      vertex 0 69.25 0.7
      vertex 122.25 69.25 8
      vertex 0 69.25 8
    endloop
  endfacet
  facet normal 0 -1 -0
    outer loop
      vertex 122.25 69.25 8
      vertex 0 69.25 0.7
      vertex 122.25 69.25 0.7
    endloop
  endfacet
  facet normal 0 1 -0
    outer loop
      vertex 122.25 3 0.7
      vertex 0 3 8
      vertex 122.25 3 8
    endloop
  endfacet
  facet normal 0 1 0
    outer loop
      vertex 0 3 8
      vertex 122.25 3 0.7
      vertex 0 3 0.7
    endloop
  endfacet
  facet normal -0 0 1
    outer loop
      vertex 0 71.25 0.7
      vertex 122.25 70.25 0.7
      vertex 122.25 71.25 0.7
    endloop
  endfacet
  facet normal 0 0 1
    outer loop
      vertex 122.25 70.25 0.7
      vertex 0 71.25 0.7
      vertex 0 70.25 0.7
    endloop
  endfacet
  facet normal -0 0 1
    outer loop
      vertex 0 2 0.7
      vertex 122.25 1 0.7
      vertex 122.25 2 0.7
    endloop
  endfacet
  facet normal 0 0 1
    outer loop
      vertex 122.25 1 0.7
      vertex 0 2 0.7
      vertex 0 1 0.7
    endloop
  endfacet
  facet normal -0 0 1
    outer loop
      vertex 0 69.25 0.7
      vertex 122.25 3 0.7
      vertex 122.25 69.25 0.7
    endloop
  endfacet
  facet normal 0 0 1
    outer loop
      vertex 122.25 3 0.7
      vertex 0 69.25 0.7
      vertex 0 3 0.7
    endloop
  endfacet
endsolid OpenSCAD_Model
