solid OpenSCAD_Model
  facet normal 0.737277 0 -0.67559
    outer loop
      vertex 72.1769 12.1 37.1231
      vertex 69.0827 14.1 33.7463
      vertex 72.1769 14.1 37.1231
    endloop
  endfacet
  facet normal 0.737277 0 -0.67559
    outer loop
      vertex 69.0827 14.1 33.7463
      vertex 72.1769 12.1 37.1231
      vertex 69.0827 12.1 33.7463
    endloop
  endfacet
  facet normal 0.923879 0 -0.382684
    outer loop
      vertex 61.7188 12.1 22.1875
      vertex 59.9661 14.1 17.9561
      vertex 61.7188 14.1 22.1875
    endloop
  endfacet
  facet normal 0.923879 0 -0.382684
    outer loop
      vertex 59.9661 14.1 17.9561
      vertex 61.7188 12.1 22.1875
      vertex 59.9661 12.1 17.9561
    endloop
  endfacet
  facet normal 0.843392 0 -0.537299
    outer loop
      vertex 66.2945 12.1 30.1128
      vertex 63.8337 14.1 26.25
      vertex 66.2945 14.1 30.1128
    endloop
  endfacet
  facet normal 0.843392 0 -0.537299
    outer loop
      vertex 63.8337 14.1 26.25
      vertex 66.2945 12.1 30.1128
      vertex 63.8337 12.1 26.25
    endloop
  endfacet
  facet normal 0.887011 0 -0.461749
    outer loop
      vertex 63.8337 12.1 26.25
      vertex 61.7188 14.1 22.1875
      vertex 63.8337 14.1 26.25
    endloop
  endfacet
  facet normal 0.887011 0 -0.461749
    outer loop
      vertex 61.7188 14.1 22.1875
      vertex 63.8337 12.1 26.25
      vertex 61.7188 12.1 22.1875
    endloop
  endfacet
  facet normal 0.793354 0 -0.608761
    outer loop
      vertex 69.0827 12.1 33.7463
      vertex 66.2945 14.1 30.1128
      vertex 69.0827 14.1 33.7463
    endloop
  endfacet
  facet normal 0.793354 0 -0.608761
    outer loop
      vertex 66.2945 14.1 30.1128
      vertex 69.0827 12.1 33.7463
      vertex 66.2945 12.1 30.1128
    endloop
  endfacet
  facet normal 0.999048 0 -0.0436196
    outer loop
      vertex 56.9998 12.1 4.57568
      vertex 56.8 14.1 3.13083e-015
      vertex 56.9998 14.1 4.57568
    endloop
  endfacet
  facet normal 0.999048 9.68551e-018 -0.0436196
    outer loop
      vertex 56.8 14.1 3.13083e-015
      vertex 56.9998 12.1 4.57568
      vertex 56.8 12.1 2.68674e-015
    endloop
  endfacet
  facet normal 0 -1 0
    outer loop
      vertex 69.0827 12.1 33.7463
      vertex 47.327 12.1 52.0015
      vertex 43.0306 12.1 46.4023
    endloop
  endfacet
  facet normal 0 -1 0
    outer loop
      vertex 66.2945 12.1 30.1128
      vertex 43.0306 12.1 46.4023
      vertex 39.2385 12.1 40.45
    endloop
  endfacet
  facet normal 0 -1 0
    outer loop
      vertex 47.327 12.1 52.0015
      vertex 69.0827 12.1 33.7463
      vertex 52.0951 12.1 57.2049
    endloop
  endfacet
  facet normal 0 -1 0
    outer loop
      vertex 63.8337 12.1 26.25
      vertex 39.2385 12.1 40.45
      vertex 35.9797 12.1 34.1898
    endloop
  endfacet
  facet normal 0 -1 0
    outer loop
      vertex 52.0951 12.1 57.2049
      vertex 69.0827 12.1 33.7463
      vertex 72.1769 12.1 37.1231
    endloop
  endfacet
  facet normal 0 -1 0
    outer loop
      vertex 43.0306 12.1 46.4023
      vertex 66.2945 12.1 30.1128
      vertex 69.0827 12.1 33.7463
    endloop
  endfacet
  facet normal 0 -1 0
    outer loop
      vertex 61.7188 12.1 22.1875
      vertex 35.9797 12.1 34.1898
      vertex 33.2789 12.1 27.6694
    endloop
  endfacet
  facet normal 0 -1 0
    outer loop
      vertex 39.2385 12.1 40.45
      vertex 63.8337 12.1 26.25
      vertex 66.2945 12.1 30.1128
    endloop
  endfacet
  facet normal 0 -1 0
    outer loop
      vertex 35.9797 12.1 34.1898
      vertex 61.7188 12.1 22.1875
      vertex 63.8337 12.1 26.25
    endloop
  endfacet
  facet normal 0 -1 0
    outer loop
      vertex 59.9661 12.1 17.9561
      vertex 33.2789 12.1 27.6694
      vertex 31.1566 12.1 20.9385
    endloop
  endfacet
  facet normal 0 -1 0
    outer loop
      vertex 33.2789 12.1 27.6694
      vertex 59.9661 12.1 17.9561
      vertex 61.7188 12.1 22.1875
    endloop
  endfacet
  facet normal 0 -1 0
    outer loop
      vertex 58.5889 12.1 13.588
      vertex 31.1566 12.1 20.9385
      vertex 29.6291 12.1 14.0481
    endloop
  endfacet
  facet normal 0 -1 0
    outer loop
      vertex 31.1566 12.1 20.9385
      vertex 58.5889 12.1 13.588
      vertex 59.9661 12.1 17.9561
    endloop
  endfacet
  facet normal 0 -1 0
    outer loop
      vertex 29.6291 12.1 14.0481
      vertex 57.5976 12.1 9.11653
      vertex 58.5889 12.1 13.588
    endloop
  endfacet
  facet normal 0 -1 0
    outer loop
      vertex 28.7078 12.1 7.0509
      vertex 57.5976 12.1 9.11653
      vertex 29.6291 12.1 14.0481
    endloop
  endfacet
  facet normal 0 -1 0
    outer loop
      vertex 28.7078 12.1 7.0509
      vertex 56.9998 12.1 4.57568
      vertex 57.5976 12.1 9.11653
    endloop
  endfacet
  facet normal 0 -1 0
    outer loop
      vertex 28.4 12.1 2.68674e-015
      vertex 56.9998 12.1 4.57568
      vertex 28.7078 12.1 7.0509
    endloop
  endfacet
  facet normal 0 -1 0
    outer loop
      vertex 56.9998 12.1 4.57568
      vertex 28.4 12.1 2.68674e-015
      vertex 56.8 12.1 2.68674e-015
    endloop
  endfacet
  facet normal 0.976296 0 -0.21644
    outer loop
      vertex 58.5889 12.1 13.588
      vertex 57.5976 14.1 9.11653
      vertex 58.5889 14.1 13.588
    endloop
  endfacet
  facet normal 0.976296 0 -0.21644
    outer loop
      vertex 57.5976 14.1 9.11653
      vertex 58.5889 12.1 13.588
      vertex 57.5976 12.1 9.11653
    endloop
  endfacet
  facet normal 0.991445 0 -0.130526
    outer loop
      vertex 57.5976 12.1 9.11653
      vertex 56.9998 14.1 4.57568
      vertex 57.5976 14.1 9.11653
    endloop
  endfacet
  facet normal 0.991445 0 -0.130526
    outer loop
      vertex 56.9998 14.1 4.57568
      vertex 57.5976 12.1 9.11653
      vertex 56.9998 12.1 4.57568
    endloop
  endfacet
  facet normal 0.953717 0 -0.300706
    outer loop
      vertex 59.9661 12.1 17.9561
      vertex 58.5889 14.1 13.588
      vertex 59.9661 14.1 17.9561
    endloop
  endfacet
  facet normal 0.953717 0 -0.300706
    outer loop
      vertex 58.5889 14.1 13.588
      vertex 59.9661 12.1 17.9561
      vertex 58.5889 12.1 13.588
    endloop
  endfacet
  facet normal 0.707107 0 0.707107
    outer loop
      vertex 52.0951 14.1 57.2049
      vertex 72.1769 12.1 37.1231
      vertex 72.1769 14.1 37.1231
    endloop
  endfacet
  facet normal 0.707107 0 0.707107
    outer loop
      vertex 72.1769 12.1 37.1231
      vertex 52.0951 14.1 57.2049
      vertex 52.0951 12.1 57.2049
    endloop
  endfacet
  facet normal 0 2.22045e-016 -1
    outer loop
      vertex 28.4 12.1 2.68674e-015
      vertex 56.8 14.1 3.13083e-015
      vertex 56.8 12.1 2.68674e-015
    endloop
  endfacet
  facet normal 0 2.22045e-016 -1
    outer loop
      vertex 56.8 14.1 3.13083e-015
      vertex 28.4 12.1 2.68674e-015
      vertex 28.4 14.1 3.13083e-015
    endloop
  endfacet
  facet normal -0.953717 0 0.300706
    outer loop
      vertex 31.1566 12.1 20.9385
      vertex 33.2789 14.1 27.6694
      vertex 31.1566 14.1 20.9385
    endloop
  endfacet
  facet normal -0.953717 0 0.300706
    outer loop
      vertex 33.2789 14.1 27.6694
      vertex 31.1566 12.1 20.9385
      vertex 33.2789 12.1 27.6694
    endloop
  endfacet
  facet normal 0 1 0
    outer loop
      vertex 69.0827 14.1 33.7463
      vertex 47.327 14.1 52.0015
      vertex 52.0951 14.1 57.2049
    endloop
  endfacet
  facet normal 0 1 0
    outer loop
      vertex 47.327 14.1 52.0015
      vertex 69.0827 14.1 33.7463
      vertex 43.0306 14.1 46.4023
    endloop
  endfacet
  facet normal 0 1 -0
    outer loop
      vertex 69.0827 14.1 33.7463
      vertex 52.0951 14.1 57.2049
      vertex 72.1769 14.1 37.1231
    endloop
  endfacet
  facet normal 0 1 -0
    outer loop
      vertex 66.2945 14.1 30.1128
      vertex 43.0306 14.1 46.4023
      vertex 69.0827 14.1 33.7463
    endloop
  endfacet
  facet normal 0 1 0
    outer loop
      vertex 43.0306 14.1 46.4023
      vertex 66.2945 14.1 30.1128
      vertex 39.2385 14.1 40.45
    endloop
  endfacet
  facet normal 0 1 -0
    outer loop
      vertex 63.8337 14.1 26.25
      vertex 39.2385 14.1 40.45
      vertex 66.2945 14.1 30.1128
    endloop
  endfacet
  facet normal 0 1 0
    outer loop
      vertex 39.2385 14.1 40.45
      vertex 63.8337 14.1 26.25
      vertex 35.9797 14.1 34.1898
    endloop
  endfacet
  facet normal 0 1 -0
    outer loop
      vertex 61.7188 14.1 22.1875
      vertex 35.9797 14.1 34.1898
      vertex 63.8337 14.1 26.25
    endloop
  endfacet
  facet normal 0 1 0
    outer loop
      vertex 35.9797 14.1 34.1898
      vertex 61.7188 14.1 22.1875
      vertex 33.2789 14.1 27.6694
    endloop
  endfacet
  facet normal 0 1 -0
    outer loop
      vertex 59.9661 14.1 17.9561
      vertex 33.2789 14.1 27.6694
      vertex 61.7188 14.1 22.1875
    endloop
  endfacet
  facet normal 0 1 0
    outer loop
      vertex 33.2789 14.1 27.6694
      vertex 59.9661 14.1 17.9561
      vertex 31.1566 14.1 20.9385
    endloop
  endfacet
  facet normal 0 1 -0
    outer loop
      vertex 58.5889 14.1 13.588
      vertex 31.1566 14.1 20.9385
      vertex 59.9661 14.1 17.9561
    endloop
  endfacet
  facet normal 0 1 0
    outer loop
      vertex 31.1566 14.1 20.9385
      vertex 58.5889 14.1 13.588
      vertex 29.6291 14.1 14.0481
    endloop
  endfacet
  facet normal 0 1 -0
    outer loop
      vertex 57.5976 14.1 9.11653
      vertex 29.6291 14.1 14.0481
      vertex 58.5889 14.1 13.588
    endloop
  endfacet
  facet normal 0 1 0
    outer loop
      vertex 57.5976 14.1 9.11653
      vertex 28.7078 14.1 7.0509
      vertex 29.6291 14.1 14.0481
    endloop
  endfacet
  facet normal 0 1 -0
    outer loop
      vertex 56.9998 14.1 4.57568
      vertex 28.7078 14.1 7.0509
      vertex 57.5976 14.1 9.11653
    endloop
  endfacet
  facet normal 0 1 -0
    outer loop
      vertex 56.8 14.1 3.13083e-015
      vertex 28.7078 14.1 7.0509
      vertex 56.9998 14.1 4.57568
    endloop
  endfacet
  facet normal 0 1 0
    outer loop
      vertex 28.7078 14.1 7.0509
      vertex 56.8 14.1 3.13083e-015
      vertex 28.4 14.1 3.13083e-015
    endloop
  endfacet
  facet normal -0.923879 0 0.382684
    outer loop
      vertex 33.2789 12.1 27.6694
      vertex 35.9797 14.1 34.1898
      vertex 33.2789 14.1 27.6694
    endloop
  endfacet
  facet normal -0.923879 0 0.382684
    outer loop
      vertex 35.9797 14.1 34.1898
      vertex 33.2789 12.1 27.6694
      vertex 35.9797 12.1 34.1898
    endloop
  endfacet
  facet normal -0.976296 0 0.21644
    outer loop
      vertex 29.6291 12.1 14.0481
      vertex 31.1566 14.1 20.9385
      vertex 29.6291 14.1 14.0481
    endloop
  endfacet
  facet normal -0.976296 0 0.21644
    outer loop
      vertex 31.1566 14.1 20.9385
      vertex 29.6291 12.1 14.0481
      vertex 31.1566 12.1 20.9385
    endloop
  endfacet
  facet normal -0.999048 -9.68548e-018 0.0436195
    outer loop
      vertex 28.4 12.1 2.68674e-015
      vertex 28.7078 14.1 7.0509
      vertex 28.4 14.1 3.13083e-015
    endloop
  endfacet
  facet normal -0.999048 0 0.0436195
    outer loop
      vertex 28.7078 14.1 7.0509
      vertex 28.4 12.1 2.68674e-015
      vertex 28.7078 12.1 7.0509
    endloop
  endfacet
  facet normal -0.887011 0 0.461748
    outer loop
      vertex 35.9797 12.1 34.1898
      vertex 39.2385 14.1 40.45
      vertex 35.9797 14.1 34.1898
    endloop
  endfacet
  facet normal -0.887011 0 0.461748
    outer loop
      vertex 39.2385 14.1 40.45
      vertex 35.9797 12.1 34.1898
      vertex 39.2385 12.1 40.45
    endloop
  endfacet
  facet normal -0.843391 0 0.5373
    outer loop
      vertex 39.2385 12.1 40.45
      vertex 43.0306 14.1 46.4023
      vertex 39.2385 14.1 40.45
    endloop
  endfacet
  facet normal -0.843391 0 0.5373
    outer loop
      vertex 43.0306 14.1 46.4023
      vertex 39.2385 12.1 40.45
      vertex 43.0306 12.1 46.4023
    endloop
  endfacet
  facet normal -0.737277 0 0.675591
    outer loop
      vertex 47.327 12.1 52.0015
      vertex 52.0951 14.1 57.2049
      vertex 47.327 14.1 52.0015
    endloop
  endfacet
  facet normal -0.737277 0 0.675591
    outer loop
      vertex 52.0951 14.1 57.2049
      vertex 47.327 12.1 52.0015
      vertex 52.0951 12.1 57.2049
    endloop
  endfacet
  facet normal -0.991445 0 0.130526
    outer loop
      vertex 28.7078 12.1 7.0509
      vertex 29.6291 14.1 14.0481
      vertex 28.7078 14.1 7.0509
    endloop
  endfacet
  facet normal -0.991445 0 0.130526
    outer loop
      vertex 29.6291 14.1 14.0481
      vertex 28.7078 12.1 7.0509
      vertex 29.6291 12.1 14.0481
    endloop
  endfacet
  facet normal -0.793354 0 0.608761
    outer loop
      vertex 43.0306 12.1 46.4023
      vertex 47.327 14.1 52.0015
      vertex 43.0306 14.1 46.4023
    endloop
  endfacet
  facet normal -0.793354 0 0.608761
    outer loop
      vertex 47.327 14.1 52.0015
      vertex 43.0306 12.1 46.4023
      vertex 47.327 12.1 52.0015
    endloop
  endfacet
  facet normal 0.737277 0 -0.67559
    outer loop
      vertex 72.1769 12.1 37.1231
      vertex 69.0827 -7.49319e-015 33.7463
      vertex 69.0827 12.1 33.7463
    endloop
  endfacet
  facet normal 0.737277 0 -0.67559
    outer loop
      vertex 69.0827 -7.49319e-015 33.7463
      vertex 72.1769 12.1 37.1231
      vertex 72.1769 -8.24299e-015 37.1231
    endloop
  endfacet
  facet normal 0.923879 0 -0.382684
    outer loop
      vertex 61.7188 12.1 22.1875
      vertex 59.9661 -3.98705e-015 17.9561
      vertex 59.9661 12.1 17.9561
    endloop
  endfacet
  facet normal 0.923879 0 -0.382684
    outer loop
      vertex 59.9661 -3.98705e-015 17.9561
      vertex 61.7188 12.1 22.1875
      vertex 61.7188 -4.92661e-015 22.1875
    endloop
  endfacet
  facet normal 0.843392 0 -0.537299
    outer loop
      vertex 66.2945 12.1 30.1128
      vertex 63.8337 -5.82867e-015 26.25
      vertex 63.8337 12.1 26.25
    endloop
  endfacet
  facet normal 0.843392 0 -0.537299
    outer loop
      vertex 63.8337 -5.82867e-015 26.25
      vertex 66.2945 12.1 30.1128
      vertex 66.2945 -6.68638e-015 30.1128
    endloop
  endfacet
  facet normal 0.887011 0 -0.461749
    outer loop
      vertex 63.8337 12.1 26.25
      vertex 61.7188 -4.92661e-015 22.1875
      vertex 61.7188 12.1 22.1875
    endloop
  endfacet
  facet normal 0.887011 0 -0.461749
    outer loop
      vertex 61.7188 -4.92661e-015 22.1875
      vertex 63.8337 12.1 26.25
      vertex 63.8337 -5.82867e-015 26.25
    endloop
  endfacet
  facet normal 0.793354 0 -0.608761
    outer loop
      vertex 69.0827 12.1 33.7463
      vertex 66.2945 -6.68638e-015 30.1128
      vertex 66.2945 12.1 30.1128
    endloop
  endfacet
  facet normal 0.793354 0 -0.608761
    outer loop
      vertex 66.2945 -6.68638e-015 30.1128
      vertex 69.0827 12.1 33.7463
      vertex 69.0827 -7.49319e-015 33.7463
    endloop
  endfacet
  facet normal 0 -1 -2.22045e-016
    outer loop
      vertex 57.7935 -2.22045e-015 10
      vertex 61.6693 -1.44202e-015 6.49429
      vertex 61.8 -1.44329e-015 6.5
    endloop
  endfacet
  facet normal 0 -1 -2.22045e-016
    outer loop
      vertex 57.7935 -2.22045e-015 10
      vertex 61.5395 -1.43823e-015 6.47721
      vertex 61.6693 -1.44202e-015 6.49429
    endloop
  endfacet
  facet normal 0 -1 -2.22045e-016
    outer loop
      vertex 57.7935 -2.22045e-015 10
      vertex 61.4118 -1.43194e-015 6.44889
      vertex 61.5395 -1.43823e-015 6.47721
    endloop
  endfacet
  facet normal 0 -1 -2.22045e-016
    outer loop
      vertex 57.7935 -2.22045e-015 10
      vertex 61.287 -1.4232e-015 6.40954
      vertex 61.4118 -1.43194e-015 6.44889
    endloop
  endfacet
  facet normal 0 -1 -2.22045e-016
    outer loop
      vertex 57.7935 -2.22045e-015 10
      vertex 61.1661 -1.41208e-015 6.35946
      vertex 61.287 -1.4232e-015 6.40954
    endloop
  endfacet
  facet normal 0 -1 -2.22045e-016
    outer loop
      vertex 57.7935 -2.22045e-015 10
      vertex 61.05 -1.39867e-015 6.29904
      vertex 61.1661 -1.41208e-015 6.35946
    endloop
  endfacet
  facet normal 0 -1 -2.22045e-016
    outer loop
      vertex 57.7935 -2.22045e-015 10
      vertex 60.9396 -1.38306e-015 6.22873
      vertex 61.05 -1.39867e-015 6.29904
    endloop
  endfacet
  facet normal 0 -1 -2.22045e-016
    outer loop
      vertex 57.7935 -2.22045e-015 10
      vertex 60.8358 -1.36537e-015 6.14907
      vertex 60.9396 -1.38306e-015 6.22873
    endloop
  endfacet
  facet normal 0 -1 -2.22045e-016
    outer loop
      vertex 57.7935 -2.22045e-015 10
      vertex 60.7393 -1.34574e-015 6.06066
      vertex 60.8358 -1.36537e-015 6.14907
    endloop
  endfacet
  facet normal 0 -1 -2.22045e-016
    outer loop
      vertex 57.7935 -2.22045e-015 10
      vertex 60.6509 -1.32431e-015 5.96418
      vertex 60.7393 -1.34574e-015 6.06066
    endloop
  endfacet
  facet normal 0 -1 -2.22045e-016
    outer loop
      vertex 57.7935 -2.22045e-015 10
      vertex 60.5713 -1.30126e-015 5.86036
      vertex 60.6509 -1.32431e-015 5.96418
    endloop
  endfacet
  facet normal 0 -1 -2.22045e-016
    outer loop
      vertex 57.7935 -2.22045e-015 10
      vertex 60.501 -1.27676e-015 5.75
      vertex 60.5713 -1.30126e-015 5.86036
    endloop
  endfacet
  facet normal 0 -1 -2.22045e-016
    outer loop
      vertex 57.7935 -2.22045e-015 10
      vertex 60.4405 -1.25098e-015 5.63393
      vertex 60.501 -1.27676e-015 5.75
    endloop
  endfacet
  facet normal 0 -1 -2.22045e-016
    outer loop
      vertex 57.7935 -2.22045e-015 10
      vertex 60.3905 -1.22414e-015 5.51303
      vertex 60.4405 -1.25098e-015 5.63393
    endloop
  endfacet
  facet normal 0 -1 -2.22045e-016
    outer loop
      vertex 60.3057 -1.13925e-015 5.13073
      vertex 57.7935 -2.22045e-015 10
      vertex 56.8 0 0
    endloop
  endfacet
  facet normal 0 -1 -2.22045e-016
    outer loop
      vertex 57.7935 -2.22045e-015 10
      vertex 60.3511 -1.19643e-015 5.38823
      vertex 60.3905 -1.22414e-015 5.51303
    endloop
  endfacet
  facet normal 0 -1 -2.22045e-016
    outer loop
      vertex 57.7935 -2.22045e-015 10
      vertex 60.3228 -1.16806e-015 5.26047
      vertex 60.3511 -1.19643e-015 5.38823
    endloop
  endfacet
  facet normal 0 -1 -2.22045e-016
    outer loop
      vertex 57.7935 -2.22045e-015 10
      vertex 60.3057 -1.13925e-015 5.13073
      vertex 60.3228 -1.16806e-015 5.26047
    endloop
  endfacet
  facet normal 0 -1 -2.22045e-016
    outer loop
      vertex 60.3057 -1.13925e-015 5.13073
      vertex 56.8 0 0
      vertex 60.3 -1.11022e-015 5
    endloop
  endfacet
  facet normal 0 -1 -2.22045e-016
    outer loop
      vertex 60.3 -1.11022e-015 5
      vertex 56.8 0 0
      vertex 60.3057 -1.08119e-015 4.86927
    endloop
  endfacet
  facet normal 0 -1 -2.22045e-016
    outer loop
      vertex 60.3057 -1.08119e-015 4.86927
      vertex 56.8 0 0
      vertex 60.3228 -1.05239e-015 4.73953
    endloop
  endfacet
  facet normal 0 -1 -2.22045e-016
    outer loop
      vertex 60.3228 -1.05239e-015 4.73953
      vertex 56.8 0 0
      vertex 60.3511 -1.02402e-015 4.61177
    endloop
  endfacet
  facet normal 0 -1 -2.22045e-016
    outer loop
      vertex 60.3511 -1.02402e-015 4.61177
      vertex 56.8 0 0
      vertex 60.3905 -9.96307e-016 4.48697
    endloop
  endfacet
  facet normal 0 -1 -2.22045e-016
    outer loop
      vertex 60.3905 -9.96307e-016 4.48697
      vertex 56.8 0 0
      vertex 60.4405 -9.69463e-016 4.36607
    endloop
  endfacet
  facet normal 0 -1 -2.22045e-016
    outer loop
      vertex 60.4405 -9.69463e-016 4.36607
      vertex 56.8 0 0
      vertex 60.501 -9.4369e-016 4.25
    endloop
  endfacet
  facet normal 0 -1 -2.22045e-016
    outer loop
      vertex 60.501 -9.4369e-016 4.25
      vertex 56.8 0 0
      vertex 60.5713 -9.19184e-016 4.13964
    endloop
  endfacet
  facet normal 0 -1 -2.22045e-016
    outer loop
      vertex 60.5713 -9.19184e-016 4.13964
      vertex 56.8 0 0
      vertex 60.6509 -8.96132e-016 4.03582
    endloop
  endfacet
  facet normal 0 -1 -2.22045e-016
    outer loop
      vertex 60.6509 -8.96132e-016 4.03582
      vertex 56.8 0 0
      vertex 60.7393 -8.74709e-016 3.93934
    endloop
  endfacet
  facet normal 0 -1 -2.22045e-016
    outer loop
      vertex 60.7393 -8.74709e-016 3.93934
      vertex 56.8 0 0
      vertex 60.8358 -8.55079e-016 3.85093
    endloop
  endfacet
  facet normal 0 -1 -2.22045e-016
    outer loop
      vertex 60.8358 -8.55079e-016 3.85093
      vertex 56.8 0 0
      vertex 60.9396 -8.37391e-016 3.77127
    endloop
  endfacet
  facet normal 0 -1 -2.22045e-016
    outer loop
      vertex 60.9396 -8.37391e-016 3.77127
      vertex 56.8 0 0
      vertex 61.05 -8.21779e-016 3.70096
    endloop
  endfacet
  facet normal 0 -1 -2.22045e-016
    outer loop
      vertex 61.05 -8.21779e-016 3.70096
      vertex 56.8 0 0
      vertex 61.1661 -8.08362e-016 3.64054
    endloop
  endfacet
  facet normal 0 -1 -2.22045e-016
    outer loop
      vertex 61.1661 -8.08362e-016 3.64054
      vertex 56.8 0 0
      vertex 61.287 -7.97243e-016 3.59046
    endloop
  endfacet
  facet normal 0 -1 -2.22045e-016
    outer loop
      vertex 61.287 -7.97243e-016 3.59046
      vertex 56.8 0 0
      vertex 61.4118 -7.88505e-016 3.55111
    endloop
  endfacet
  facet normal 0 -1 -2.22045e-016
    outer loop
      vertex 61.4118 -7.88505e-016 3.55111
      vertex 56.8 0 0
      vertex 61.5395 -7.82216e-016 3.52279
    endloop
  endfacet
  facet normal 0 -1 -2.22045e-016
    outer loop
      vertex 61.5395 -7.82216e-016 3.52279
      vertex 56.8 0 0
      vertex 61.6693 -7.78424e-016 3.50571
    endloop
  endfacet
  facet normal -0 -1 -2.22045e-016
    outer loop
      vertex 56.8 0 0
      vertex 28.7078 -1.56561e-015 7.0509
      vertex 28.4 0 0
    endloop
  endfacet
  facet normal 0 -1 -2.22045e-016
    outer loop
      vertex 69.0827 -7.49319e-015 33.7463
      vertex 47.327 -1.15467e-014 52.0015
      vertex 43.0306 -1.03034e-014 46.4023
    endloop
  endfacet
  facet normal 0 -1 -2.22045e-016
    outer loop
      vertex 66.2945 -6.68638e-015 30.1128
      vertex 43.0306 -1.03034e-014 46.4023
      vertex 39.2385 -8.9817e-015 40.45
    endloop
  endfacet
  facet normal 0 -1 -2.22045e-016
    outer loop
      vertex 47.327 -1.15467e-014 52.0015
      vertex 69.0827 -7.49319e-015 33.7463
      vertex 52.0951 -1.2702e-014 57.2049
    endloop
  endfacet
  facet normal 0 -1 -2.22045e-016
    outer loop
      vertex 63.8337 -5.82867e-015 26.25
      vertex 39.2385 -8.9817e-015 40.45
      vertex 35.9797 -7.59166e-015 34.1898
    endloop
  endfacet
  facet normal 0 -1 -2.22045e-016
    outer loop
      vertex 52.0951 -1.2702e-014 57.2049
      vertex 69.0827 -7.49319e-015 33.7463
      vertex 72.1769 -8.24299e-015 37.1231
    endloop
  endfacet
  facet normal 0 -1 -2.22045e-016
    outer loop
      vertex 43.0306 -1.03034e-014 46.4023
      vertex 66.2945 -6.68638e-015 30.1128
      vertex 69.0827 -7.49319e-015 33.7463
    endloop
  endfacet
  facet normal 0 -1 -2.22045e-016
    outer loop
      vertex 61.7188 -4.92661e-015 22.1875
      vertex 35.9797 -7.59166e-015 34.1898
      vertex 33.2789 -6.14385e-015 27.6694
    endloop
  endfacet
  facet normal 0 -1 -2.22045e-016
    outer loop
      vertex 39.2385 -8.9817e-015 40.45
      vertex 63.8337 -5.82867e-015 26.25
      vertex 66.2945 -6.68638e-015 30.1128
    endloop
  endfacet
  facet normal 0 -1 -2.22045e-016
    outer loop
      vertex 35.9797 -7.59166e-015 34.1898
      vertex 61.7188 -4.92661e-015 22.1875
      vertex 63.8337 -5.82867e-015 26.25
    endloop
  endfacet
  facet normal 0 -1 -2.22045e-016
    outer loop
      vertex 59.9661 -3.98705e-015 17.9561
      vertex 33.2789 -6.14385e-015 27.6694
      vertex 31.1566 -4.64927e-015 20.9385
    endloop
  endfacet
  facet normal 0 -1 -2.22045e-016
    outer loop
      vertex 33.2789 -6.14385e-015 27.6694
      vertex 59.9661 -3.98705e-015 17.9561
      vertex 61.7188 -4.92661e-015 22.1875
    endloop
  endfacet
  facet normal 0 -1 -2.22045e-016
    outer loop
      vertex 57.7935 -2.22045e-015 10
      vertex 31.1566 -4.64927e-015 20.9385
      vertex 29.6291 -3.11931e-015 14.0481
    endloop
  endfacet
  facet normal 0 -1 -2.22045e-016
    outer loop
      vertex 31.1566 -4.64927e-015 20.9385
      vertex 58.5889 -3.01714e-015 13.588
      vertex 59.9661 -3.98705e-015 17.9561
    endloop
  endfacet
  facet normal 0 -1 -2.22045e-016
    outer loop
      vertex 31.1566 -4.64927e-015 20.9385
      vertex 57.7935 -2.22045e-015 10
      vertex 58.5889 -3.01714e-015 13.588
    endloop
  endfacet
  facet normal 0 -1 -2.22045e-016
    outer loop
      vertex 28.7078 -1.56561e-015 7.0509
      vertex 57.7935 -2.22045e-015 10
      vertex 29.6291 -3.11931e-015 14.0481
    endloop
  endfacet
  facet normal 0 -1 -2.22045e-016
    outer loop
      vertex 56.8 0 0
      vertex 57.7935 -2.22045e-015 10
      vertex 28.7078 -1.56561e-015 7.0509
    endloop
  endfacet
  facet normal 0 -1 -2.22045e-016
    outer loop
      vertex 61.9307 -1.44202e-015 6.49429
      vertex 57.7935 -2.22045e-015 10
      vertex 61.8 -1.44329e-015 6.5
    endloop
  endfacet
  facet normal 0 -1 -2.22045e-016
    outer loop
      vertex 57.7935 -2.22045e-015 10
      vertex 61.9307 -1.44202e-015 6.49429
      vertex 66.8 -2.22045e-015 10
    endloop
  endfacet
  facet normal 0 -1 -2.22045e-016
    outer loop
      vertex 62.0605 -1.43823e-015 6.47721
      vertex 66.8 -2.22045e-015 10
      vertex 61.9307 -1.44202e-015 6.49429
    endloop
  endfacet
  facet normal 0 -1 -2.22045e-016
    outer loop
      vertex 62.1882 -1.43194e-015 6.44889
      vertex 66.8 -2.22045e-015 10
      vertex 62.0605 -1.43823e-015 6.47721
    endloop
  endfacet
  facet normal 0 -1 -2.22045e-016
    outer loop
      vertex 62.313 -1.4232e-015 6.40954
      vertex 66.8 -2.22045e-015 10
      vertex 62.1882 -1.43194e-015 6.44889
    endloop
  endfacet
  facet normal 0 -1 -2.22045e-016
    outer loop
      vertex 62.4339 -1.41208e-015 6.35946
      vertex 66.8 -2.22045e-015 10
      vertex 62.313 -1.4232e-015 6.40954
    endloop
  endfacet
  facet normal 0 -1 -2.22045e-016
    outer loop
      vertex 62.55 -1.39867e-015 6.29904
      vertex 66.8 -2.22045e-015 10
      vertex 62.4339 -1.41208e-015 6.35946
    endloop
  endfacet
  facet normal 0 -1 -2.22045e-016
    outer loop
      vertex 62.6604 -1.38306e-015 6.22873
      vertex 66.8 -2.22045e-015 10
      vertex 62.55 -1.39867e-015 6.29904
    endloop
  endfacet
  facet normal 0 -1 -2.22045e-016
    outer loop
      vertex 62.7642 -1.36537e-015 6.14907
      vertex 66.8 -2.22045e-015 10
      vertex 62.6604 -1.38306e-015 6.22873
    endloop
  endfacet
  facet normal 0 -1 -2.22045e-016
    outer loop
      vertex 62.8607 -1.34574e-015 6.06066
      vertex 66.8 -2.22045e-015 10
      vertex 62.7642 -1.36537e-015 6.14907
    endloop
  endfacet
  facet normal 0 -1 -2.22045e-016
    outer loop
      vertex 62.9491 -1.32431e-015 5.96418
      vertex 66.8 -2.22045e-015 10
      vertex 62.8607 -1.34574e-015 6.06066
    endloop
  endfacet
  facet normal 0 -1 -2.22045e-016
    outer loop
      vertex 63.0287 -1.30126e-015 5.86036
      vertex 66.8 -2.22045e-015 10
      vertex 62.9491 -1.32431e-015 5.96418
    endloop
  endfacet
  facet normal 0 -1 -2.22045e-016
    outer loop
      vertex 63.099 -1.27676e-015 5.75
      vertex 66.8 -2.22045e-015 10
      vertex 63.0287 -1.30126e-015 5.86036
    endloop
  endfacet
  facet normal 0 -1 -2.22045e-016
    outer loop
      vertex 63.1595 -1.25098e-015 5.63393
      vertex 66.8 -2.22045e-015 10
      vertex 63.099 -1.27676e-015 5.75
    endloop
  endfacet
  facet normal 0 -1 -2.22045e-016
    outer loop
      vertex 63.2095 -1.22414e-015 5.51303
      vertex 66.8 -2.22045e-015 10
      vertex 63.1595 -1.25098e-015 5.63393
    endloop
  endfacet
  facet normal 0 -1 -2.22045e-016
    outer loop
      vertex 63.2489 -1.19643e-015 5.38823
      vertex 66.8 -2.22045e-015 10
      vertex 63.2095 -1.22414e-015 5.51303
    endloop
  endfacet
  facet normal 0 -1 -2.22045e-016
    outer loop
      vertex 63.2772 -1.16806e-015 5.26047
      vertex 66.8 -2.22045e-015 10
      vertex 63.2489 -1.19643e-015 5.38823
    endloop
  endfacet
  facet normal 0 -1 -2.22045e-016
    outer loop
      vertex 63.2943 -1.13925e-015 5.13073
      vertex 66.8 -2.22045e-015 10
      vertex 63.2772 -1.16806e-015 5.26047
    endloop
  endfacet
  facet normal 0 -1 -2.22045e-016
    outer loop
      vertex 63.3 -1.11022e-015 5
      vertex 66.8 -2.22045e-015 10
      vertex 63.2943 -1.13925e-015 5.13073
    endloop
  endfacet
  facet normal 0 -1 -2.22045e-016
    outer loop
      vertex 66.8 0 0
      vertex 63.3 -1.11022e-015 5
      vertex 63.2943 -1.08119e-015 4.86927
    endloop
  endfacet
  facet normal 0 -1 -2.22045e-016
    outer loop
      vertex 66.8 0 0
      vertex 63.2943 -1.08119e-015 4.86927
      vertex 63.2772 -1.05239e-015 4.73953
    endloop
  endfacet
  facet normal 0 -1 -2.22045e-016
    outer loop
      vertex 66.8 0 0
      vertex 63.2772 -1.05239e-015 4.73953
      vertex 63.2489 -1.02402e-015 4.61177
    endloop
  endfacet
  facet normal 0 -1 -2.22045e-016
    outer loop
      vertex 66.8 0 0
      vertex 63.2489 -1.02402e-015 4.61177
      vertex 63.2095 -9.96307e-016 4.48697
    endloop
  endfacet
  facet normal 0 -1 -2.22045e-016
    outer loop
      vertex 66.8 0 0
      vertex 63.2095 -9.96307e-016 4.48697
      vertex 63.1595 -9.69463e-016 4.36607
    endloop
  endfacet
  facet normal 0 -1 -2.22045e-016
    outer loop
      vertex 66.8 0 0
      vertex 63.1595 -9.69463e-016 4.36607
      vertex 63.099 -9.4369e-016 4.25
    endloop
  endfacet
  facet normal 0 -1 -2.22045e-016
    outer loop
      vertex 66.8 0 0
      vertex 63.099 -9.4369e-016 4.25
      vertex 63.0287 -9.19184e-016 4.13964
    endloop
  endfacet
  facet normal 0 -1 -2.22045e-016
    outer loop
      vertex 61.6693 -7.78424e-016 3.50571
      vertex 56.8 0 0
      vertex 61.8 -7.77156e-016 3.5
    endloop
  endfacet
  facet normal -0 -1 -2.22045e-016
    outer loop
      vertex 66.8 0 0
      vertex 61.8 -7.77156e-016 3.5
      vertex 56.8 0 0
    endloop
  endfacet
  facet normal 0 -1 -2.22045e-016
    outer loop
      vertex 61.8 -7.77156e-016 3.5
      vertex 66.8 0 0
      vertex 61.9307 -7.78424e-016 3.50571
    endloop
  endfacet
  facet normal 0 -1 -2.22045e-016
    outer loop
      vertex 61.9307 -7.78424e-016 3.50571
      vertex 66.8 0 0
      vertex 62.0605 -7.82216e-016 3.52279
    endloop
  endfacet
  facet normal 0 -1 -2.22045e-016
    outer loop
      vertex 62.0605 -7.82216e-016 3.52279
      vertex 66.8 0 0
      vertex 62.1882 -7.88505e-016 3.55111
    endloop
  endfacet
  facet normal 0 -1 -2.22045e-016
    outer loop
      vertex 62.1882 -7.88505e-016 3.55111
      vertex 66.8 0 0
      vertex 62.313 -7.97243e-016 3.59046
    endloop
  endfacet
  facet normal 0 -1 -2.22045e-016
    outer loop
      vertex 62.313 -7.97243e-016 3.59046
      vertex 66.8 0 0
      vertex 62.4339 -8.08362e-016 3.64054
    endloop
  endfacet
  facet normal 0 -1 -2.22045e-016
    outer loop
      vertex 62.4339 -8.08362e-016 3.64054
      vertex 66.8 0 0
      vertex 62.55 -8.21779e-016 3.70096
    endloop
  endfacet
  facet normal 0 -1 -2.22045e-016
    outer loop
      vertex 63.3 -1.11022e-015 5
      vertex 66.8 0 0
      vertex 66.8 -2.22045e-015 10
    endloop
  endfacet
  facet normal 0 -1 -2.22045e-016
    outer loop
      vertex 62.9491 -8.96132e-016 4.03582
      vertex 66.8 0 0
      vertex 63.0287 -9.19184e-016 4.13964
    endloop
  endfacet
  facet normal 0 -1 -2.22045e-016
    outer loop
      vertex 62.8607 -8.74709e-016 3.93934
      vertex 66.8 0 0
      vertex 62.9491 -8.96132e-016 4.03582
    endloop
  endfacet
  facet normal 0 -1 -2.22045e-016
    outer loop
      vertex 62.7642 -8.55079e-016 3.85093
      vertex 66.8 0 0
      vertex 62.8607 -8.74709e-016 3.93934
    endloop
  endfacet
  facet normal 0 -1 -2.22045e-016
    outer loop
      vertex 62.6604 -8.37391e-016 3.77127
      vertex 66.8 0 0
      vertex 62.7642 -8.55079e-016 3.85093
    endloop
  endfacet
  facet normal 0 -1 -2.22045e-016
    outer loop
      vertex 62.55 -8.21779e-016 3.70096
      vertex 66.8 0 0
      vertex 62.6604 -8.37391e-016 3.77127
    endloop
  endfacet
  facet normal 0.976296 7.85016e-008 -0.21644
    outer loop
      vertex 58.5889 12.1 13.588
      vertex 57.7935 4 10
      vertex 57.5976 12.1 9.11653
    endloop
  endfacet
  facet normal 0.976296 0 -0.21644
    outer loop
      vertex 58.5889 -3.01714e-015 13.588
      vertex 57.7935 4 10
      vertex 58.5889 12.1 13.588
    endloop
  endfacet
  facet normal 0.976296 0 -0.21644
    outer loop
      vertex 57.7935 4 10
      vertex 58.5889 -3.01714e-015 13.588
      vertex 57.7935 -2.22045e-015 10
    endloop
  endfacet
  facet normal 0.976296 0 -0.216441
    outer loop
      vertex 57.5976 12.1 9.11653
      vertex 57.7935 4 10
      vertex 57.5976 4 9.11653
    endloop
  endfacet
  facet normal 0.953717 0 -0.300706
    outer loop
      vertex 59.9661 12.1 17.9561
      vertex 58.5889 -3.01714e-015 13.588
      vertex 58.5889 12.1 13.588
    endloop
  endfacet
  facet normal 0.953717 0 -0.300706
    outer loop
      vertex 58.5889 -3.01714e-015 13.588
      vertex 59.9661 12.1 17.9561
      vertex 59.9661 -3.98705e-015 17.9561
    endloop
  endfacet
  facet normal 0.707106 -0 0.707108
    outer loop
      vertex 70.7627 2 38.5373
      vertex 72.1769 12.1 37.1231
      vertex 70.7627 12.1 38.5373
    endloop
  endfacet
  facet normal 0.707106 0 0.707108
    outer loop
      vertex 72.1769 12.1 37.1231
      vertex 70.7627 2 38.5373
      vertex 72.1769 -8.24299e-015 37.1231
    endloop
  endfacet
  facet normal 0.707107 -0 0.707107
    outer loop
      vertex 52.0951 -1.2702e-014 57.2049
      vertex 70.7627 2 38.5373
      vertex 52.0951 2 57.2049
    endloop
  endfacet
  facet normal 0.707107 1.25372e-006 0.707107
    outer loop
      vertex 70.7627 2 38.5373
      vertex 52.0951 -1.2702e-014 57.2049
      vertex 72.1769 -8.24299e-015 37.1231
    endloop
  endfacet
  facet normal 0 2.22045e-016 -1
    outer loop
      vertex 54.8 2 4.44089e-016
      vertex 56.8 4 8.88178e-016
      vertex 56.8 0 0
    endloop
  endfacet
  facet normal 0 2.22045e-016 -1
    outer loop
      vertex 54.8 12.1 2.68674e-015
      vertex 56.8 4 8.88178e-016
      vertex 54.8 2 4.44089e-016
    endloop
  endfacet
  facet normal 0 2.22045e-016 -1
    outer loop
      vertex 28.4 0 0
      vertex 54.8 2 4.44089e-016
      vertex 56.8 0 0
    endloop
  endfacet
  facet normal 0 2.22045e-016 -1
    outer loop
      vertex 54.8 2 4.44089e-016
      vertex 28.4 0 0
      vertex 28.4 2 4.44089e-016
    endloop
  endfacet
  facet normal 0 2.22045e-016 -1
    outer loop
      vertex 56.8 4 8.88178e-016
      vertex 54.8 12.1 2.68674e-015
      vertex 56.8 12.1 2.68674e-015
    endloop
  endfacet
  facet normal -0.953717 0 0.300706
    outer loop
      vertex 31.1566 -4.64927e-015 20.9385
      vertex 33.2789 2 27.6694
      vertex 31.1566 2 20.9385
    endloop
  endfacet
  facet normal -0.953717 0 0.300706
    outer loop
      vertex 33.2789 2 27.6694
      vertex 31.1566 -4.64927e-015 20.9385
      vertex 33.2789 -6.14385e-015 27.6694
    endloop
  endfacet
  facet normal 0 1 0
    outer loop
      vertex 67.5506 2 35.0319
      vertex 47.327 2 52.0015
      vertex 52.0951 2 57.2049
    endloop
  endfacet
  facet normal 0 1 0
    outer loop
      vertex 47.327 2 52.0015
      vertex 67.5506 2 35.0319
      vertex 43.0306 2 46.4023
    endloop
  endfacet
  facet normal 0 1 -0
    outer loop
      vertex 67.5506 2 35.0319
      vertex 52.0951 2 57.2049
      vertex 70.7627 2 38.5373
    endloop
  endfacet
  facet normal 0 1 -0
    outer loop
      vertex 64.6562 2 31.2599
      vertex 43.0306 2 46.4023
      vertex 67.5506 2 35.0319
    endloop
  endfacet
  facet normal 0 1 0
    outer loop
      vertex 43.0306 2 46.4023
      vertex 64.6562 2 31.2599
      vertex 39.2385 2 40.45
    endloop
  endfacet
  facet normal 0 1 -0
    outer loop
      vertex 62.1016 2 27.25
      vertex 39.2385 2 40.45
      vertex 64.6562 2 31.2599
    endloop
  endfacet
  facet normal 0 1 0
    outer loop
      vertex 39.2385 2 40.45
      vertex 62.1016 2 27.25
      vertex 35.9797 2 34.1898
    endloop
  endfacet
  facet normal 0 1 -0
    outer loop
      vertex 59.9062 2 23.0327
      vertex 35.9797 2 34.1898
      vertex 62.1016 2 27.25
    endloop
  endfacet
  facet normal 0 1 0
    outer loop
      vertex 35.9797 2 34.1898
      vertex 59.9062 2 23.0327
      vertex 33.2789 2 27.6694
    endloop
  endfacet
  facet normal 0 1 -0
    outer loop
      vertex 58.0868 2 18.6401
      vertex 33.2789 2 27.6694
      vertex 59.9062 2 23.0327
    endloop
  endfacet
  facet normal 0 1 0
    outer loop
      vertex 33.2789 2 27.6694
      vertex 58.0868 2 18.6401
      vertex 31.1566 2 20.9385
    endloop
  endfacet
  facet normal 0 1 -0
    outer loop
      vertex 56.657 2 14.1056
      vertex 31.1566 2 20.9385
      vertex 58.0868 2 18.6401
    endloop
  endfacet
  facet normal 0 1 0
    outer loop
      vertex 56.657 2 14.1056
      vertex 29.6291 2 14.0481
      vertex 31.1566 2 20.9385
    endloop
  endfacet
  facet normal 0 1 -0
    outer loop
      vertex 55.628 2 9.46383
      vertex 29.6291 2 14.0481
      vertex 56.657 2 14.1056
    endloop
  endfacet
  facet normal 0 1 0
    outer loop
      vertex 55.628 2 9.46383
      vertex 28.7078 2 7.0509
      vertex 29.6291 2 14.0481
    endloop
  endfacet
  facet normal 0 1 -0
    outer loop
      vertex 55.0074 2 4.74999
      vertex 28.7078 2 7.0509
      vertex 55.628 2 9.46383
    endloop
  endfacet
  facet normal 0 1 -0
    outer loop
      vertex 54.8 2 4.44089e-016
      vertex 28.7078 2 7.0509
      vertex 55.0074 2 4.74999
    endloop
  endfacet
  facet normal 0 1 0
    outer loop
      vertex 28.7078 2 7.0509
      vertex 54.8 2 4.44089e-016
      vertex 28.4 2 4.44089e-016
    endloop
  endfacet
  facet normal -0.923879 0 0.382684
    outer loop
      vertex 33.2789 -6.14385e-015 27.6694
      vertex 35.9797 2 34.1898
      vertex 33.2789 2 27.6694
    endloop
  endfacet
  facet normal -0.923879 0 0.382684
    outer loop
      vertex 35.9797 2 34.1898
      vertex 33.2789 -6.14385e-015 27.6694
      vertex 35.9797 -7.59166e-015 34.1898
    endloop
  endfacet
  facet normal -0.976296 0 0.21644
    outer loop
      vertex 29.6291 -3.11931e-015 14.0481
      vertex 31.1566 2 20.9385
      vertex 29.6291 2 14.0481
    endloop
  endfacet
  facet normal -0.976296 0 0.21644
    outer loop
      vertex 31.1566 2 20.9385
      vertex 29.6291 -3.11931e-015 14.0481
      vertex 31.1566 -4.64927e-015 20.9385
    endloop
  endfacet
  facet normal -0.999048 -9.68548e-018 0.0436195
    outer loop
      vertex 28.4 0 0
      vertex 28.7078 2 7.0509
      vertex 28.4 2 4.44089e-016
    endloop
  endfacet
  facet normal -0.999048 0 0.0436195
    outer loop
      vertex 28.7078 2 7.0509
      vertex 28.4 0 0
      vertex 28.7078 -1.56561e-015 7.0509
    endloop
  endfacet
  facet normal -0.887011 0 0.461748
    outer loop
      vertex 35.9797 -7.59166e-015 34.1898
      vertex 39.2385 2 40.45
      vertex 35.9797 2 34.1898
    endloop
  endfacet
  facet normal -0.887011 0 0.461748
    outer loop
      vertex 39.2385 2 40.45
      vertex 35.9797 -7.59166e-015 34.1898
      vertex 39.2385 -8.9817e-015 40.45
    endloop
  endfacet
  facet normal -0.843391 0 0.5373
    outer loop
      vertex 39.2385 -8.9817e-015 40.45
      vertex 43.0306 2 46.4023
      vertex 39.2385 2 40.45
    endloop
  endfacet
  facet normal -0.843391 0 0.5373
    outer loop
      vertex 43.0306 2 46.4023
      vertex 39.2385 -8.9817e-015 40.45
      vertex 43.0306 -1.03034e-014 46.4023
    endloop
  endfacet
  facet normal -0.737277 0 0.675591
    outer loop
      vertex 47.327 -1.15467e-014 52.0015
      vertex 52.0951 2 57.2049
      vertex 47.327 2 52.0015
    endloop
  endfacet
  facet normal -0.737277 0 0.675591
    outer loop
      vertex 52.0951 2 57.2049
      vertex 47.327 -1.15467e-014 52.0015
      vertex 52.0951 -1.2702e-014 57.2049
    endloop
  endfacet
  facet normal -0.991445 0 0.130526
    outer loop
      vertex 28.7078 -1.56561e-015 7.0509
      vertex 29.6291 2 14.0481
      vertex 28.7078 2 7.0509
    endloop
  endfacet
  facet normal -0.991445 0 0.130526
    outer loop
      vertex 29.6291 2 14.0481
      vertex 28.7078 -1.56561e-015 7.0509
      vertex 29.6291 -3.11931e-015 14.0481
    endloop
  endfacet
  facet normal -0.793354 0 0.608761
    outer loop
      vertex 43.0306 -1.03034e-014 46.4023
      vertex 47.327 2 52.0015
      vertex 43.0306 2 46.4023
    endloop
  endfacet
  facet normal -0.793354 0 0.608761
    outer loop
      vertex 47.327 2 52.0015
      vertex 43.0306 -1.03034e-014 46.4023
      vertex 47.327 -1.15467e-014 52.0015
    endloop
  endfacet
  facet normal 0 1 0
    outer loop
      vertex 72.1769 12.1 37.1231
      vertex 67.5506 12.1 35.0319
      vertex 70.7627 12.1 38.5373
    endloop
  endfacet
  facet normal 0 1 -0
    outer loop
      vertex 69.0827 12.1 33.7463
      vertex 67.5506 12.1 35.0319
      vertex 72.1769 12.1 37.1231
    endloop
  endfacet
  facet normal 0 1 0
    outer loop
      vertex 69.0827 12.1 33.7463
      vertex 64.6562 12.1 31.2599
      vertex 67.5506 12.1 35.0319
    endloop
  endfacet
  facet normal 0 1 -0
    outer loop
      vertex 66.2945 12.1 30.1128
      vertex 64.6562 12.1 31.2599
      vertex 69.0827 12.1 33.7463
    endloop
  endfacet
  facet normal 0 1 0
    outer loop
      vertex 66.2945 12.1 30.1128
      vertex 62.1016 12.1 27.25
      vertex 64.6562 12.1 31.2599
    endloop
  endfacet
  facet normal 0 1 -0
    outer loop
      vertex 63.8337 12.1 26.25
      vertex 62.1016 12.1 27.25
      vertex 66.2945 12.1 30.1128
    endloop
  endfacet
  facet normal 0 1 0
    outer loop
      vertex 63.8337 12.1 26.25
      vertex 59.9062 12.1 23.0327
      vertex 62.1016 12.1 27.25
    endloop
  endfacet
  facet normal 0 1 -0
    outer loop
      vertex 61.7188 12.1 22.1875
      vertex 59.9062 12.1 23.0327
      vertex 63.8337 12.1 26.25
    endloop
  endfacet
  facet normal 0 1 0
    outer loop
      vertex 61.7188 12.1 22.1875
      vertex 58.0868 12.1 18.6401
      vertex 59.9062 12.1 23.0327
    endloop
  endfacet
  facet normal 0 1 -0
    outer loop
      vertex 59.9661 12.1 17.9561
      vertex 58.0868 12.1 18.6401
      vertex 61.7188 12.1 22.1875
    endloop
  endfacet
  facet normal 0 1 0
    outer loop
      vertex 59.9661 12.1 17.9561
      vertex 56.657 12.1 14.1056
      vertex 58.0868 12.1 18.6401
    endloop
  endfacet
  facet normal 0 1 -0
    outer loop
      vertex 58.5889 12.1 13.588
      vertex 56.657 12.1 14.1056
      vertex 59.9661 12.1 17.9561
    endloop
  endfacet
  facet normal 0 1 0
    outer loop
      vertex 58.5889 12.1 13.588
      vertex 55.628 12.1 9.46383
      vertex 56.657 12.1 14.1056
    endloop
  endfacet
  facet normal 0 1 -0
    outer loop
      vertex 57.5976 12.1 9.11653
      vertex 55.628 12.1 9.46383
      vertex 58.5889 12.1 13.588
    endloop
  endfacet
  facet normal 0 1 0
    outer loop
      vertex 57.5976 12.1 9.11653
      vertex 55.0074 12.1 4.74999
      vertex 55.628 12.1 9.46383
    endloop
  endfacet
  facet normal 0 1 -0
    outer loop
      vertex 56.9998 12.1 4.57568
      vertex 55.0074 12.1 4.74999
      vertex 57.5976 12.1 9.11653
    endloop
  endfacet
  facet normal 0 1 -0
    outer loop
      vertex 56.8 12.1 2.68674e-015
      vertex 55.0074 12.1 4.74999
      vertex 56.9998 12.1 4.57568
    endloop
  endfacet
  facet normal 0 1 0
    outer loop
      vertex 55.0074 12.1 4.74999
      vertex 56.8 12.1 2.68674e-015
      vertex 54.8 12.1 2.68674e-015
    endloop
  endfacet
  facet normal 0.999048 0 -0.0436196
    outer loop
      vertex 56.9998 4 4.57568
      vertex 56.8 12.1 2.68674e-015
      vertex 56.9998 12.1 4.57568
    endloop
  endfacet
  facet normal 0.999048 9.68551e-018 -0.0436196
    outer loop
      vertex 56.8 12.1 2.68674e-015
      vertex 56.9998 4 4.57568
      vertex 56.8 4 8.88178e-016
    endloop
  endfacet
  facet normal 0.991445 0 -0.130526
    outer loop
      vertex 57.5976 4 9.11653
      vertex 56.9998 12.1 4.57568
      vertex 57.5976 12.1 9.11653
    endloop
  endfacet
  facet normal 0.991445 0 -0.130526
    outer loop
      vertex 56.9998 12.1 4.57568
      vertex 57.5976 4 9.11653
      vertex 56.9998 4 4.57568
    endloop
  endfacet
  facet normal -0.999048 -9.68549e-018 0.0436196
    outer loop
      vertex 54.8 2 4.44089e-016
      vertex 55.0074 12.1 4.74999
      vertex 54.8 12.1 2.68674e-015
    endloop
  endfacet
  facet normal -0.999048 0 0.0436196
    outer loop
      vertex 55.0074 12.1 4.74999
      vertex 54.8 2 4.44089e-016
      vertex 55.0074 2 4.74999
    endloop
  endfacet
  facet normal -0.793354 0 0.608761
    outer loop
      vertex 64.6562 2 31.2599
      vertex 67.5506 12.1 35.0319
      vertex 64.6562 12.1 31.2599
    endloop
  endfacet
  facet normal -0.793354 0 0.608761
    outer loop
      vertex 67.5506 12.1 35.0319
      vertex 64.6562 2 31.2599
      vertex 67.5506 2 35.0319
    endloop
  endfacet
  facet normal -0.887011 0 0.461748
    outer loop
      vertex 59.9062 2 23.0327
      vertex 62.1016 12.1 27.25
      vertex 59.9062 12.1 23.0327
    endloop
  endfacet
  facet normal -0.887011 0 0.461748
    outer loop
      vertex 62.1016 12.1 27.25
      vertex 59.9062 2 23.0327
      vertex 62.1016 2 27.25
    endloop
  endfacet
  facet normal -0.737277 0 0.675591
    outer loop
      vertex 67.5506 2 35.0319
      vertex 70.7627 12.1 38.5373
      vertex 67.5506 12.1 35.0319
    endloop
  endfacet
  facet normal -0.737277 0 0.675591
    outer loop
      vertex 70.7627 12.1 38.5373
      vertex 67.5506 2 35.0319
      vertex 70.7627 2 38.5373
    endloop
  endfacet
  facet normal -0.976296 0 0.216439
    outer loop
      vertex 55.628 2 9.46383
      vertex 56.657 12.1 14.1056
      vertex 55.628 12.1 9.46383
    endloop
  endfacet
  facet normal -0.976296 0 0.216439
    outer loop
      vertex 56.657 12.1 14.1056
      vertex 55.628 2 9.46383
      vertex 56.657 2 14.1056
    endloop
  endfacet
  facet normal -0.92388 0 0.382683
    outer loop
      vertex 58.0868 2 18.6401
      vertex 59.9062 12.1 23.0327
      vertex 58.0868 12.1 18.6401
    endloop
  endfacet
  facet normal -0.92388 0 0.382683
    outer loop
      vertex 59.9062 12.1 23.0327
      vertex 58.0868 2 18.6401
      vertex 59.9062 2 23.0327
    endloop
  endfacet
  facet normal -0.991445 0 0.130527
    outer loop
      vertex 55.0074 2 4.74999
      vertex 55.628 12.1 9.46383
      vertex 55.0074 12.1 4.74999
    endloop
  endfacet
  facet normal -0.991445 0 0.130527
    outer loop
      vertex 55.628 12.1 9.46383
      vertex 55.0074 2 4.74999
      vertex 55.628 2 9.46383
    endloop
  endfacet
  facet normal -0.843392 0 0.537299
    outer loop
      vertex 62.1016 2 27.25
      vertex 64.6562 12.1 31.2599
      vertex 62.1016 12.1 27.25
    endloop
  endfacet
  facet normal -0.843392 0 0.537299
    outer loop
      vertex 64.6562 12.1 31.2599
      vertex 62.1016 2 27.25
      vertex 64.6562 2 31.2599
    endloop
  endfacet
  facet normal -0.953717 0 0.300706
    outer loop
      vertex 56.657 2 14.1056
      vertex 58.0868 12.1 18.6401
      vertex 56.657 12.1 14.1056
    endloop
  endfacet
  facet normal -0.953717 0 0.300706
    outer loop
      vertex 58.0868 12.1 18.6401
      vertex 56.657 2 14.1056
      vertex 58.0868 2 18.6401
    endloop
  endfacet
  facet normal 0 1 -0
    outer loop
      vertex 61.9307 4 6.49429
      vertex 57.7935 4 10
      vertex 66.8 4 10
    endloop
  endfacet
  facet normal 0 1 -0
    outer loop
      vertex 61.6693 4 6.49429
      vertex 57.7935 4 10
      vertex 61.8 4 6.5
    endloop
  endfacet
  facet normal 0 1 0
    outer loop
      vertex 57.7935 4 10
      vertex 61.9307 4 6.49429
      vertex 61.8 4 6.5
    endloop
  endfacet
  facet normal 0 1 0
    outer loop
      vertex 66.8 4 10
      vertex 62.0605 4 6.47721
      vertex 61.9307 4 6.49429
    endloop
  endfacet
  facet normal 0 1 0
    outer loop
      vertex 66.8 4 10
      vertex 62.1882 4 6.44889
      vertex 62.0605 4 6.47721
    endloop
  endfacet
  facet normal 0 1 0
    outer loop
      vertex 66.8 4 10
      vertex 62.313 4 6.40954
      vertex 62.1882 4 6.44889
    endloop
  endfacet
  facet normal 0 1 0
    outer loop
      vertex 66.8 4 10
      vertex 62.4339 4 6.35946
      vertex 62.313 4 6.40954
    endloop
  endfacet
  facet normal 0 1 0
    outer loop
      vertex 66.8 4 10
      vertex 62.55 4 6.29904
      vertex 62.4339 4 6.35946
    endloop
  endfacet
  facet normal 0 1 0
    outer loop
      vertex 66.8 4 10
      vertex 62.6604 4 6.22873
      vertex 62.55 4 6.29904
    endloop
  endfacet
  facet normal 0 1 0
    outer loop
      vertex 66.8 4 10
      vertex 62.7642 4 6.14907
      vertex 62.6604 4 6.22873
    endloop
  endfacet
  facet normal 0 1 0
    outer loop
      vertex 66.8 4 10
      vertex 62.8607 4 6.06066
      vertex 62.7642 4 6.14907
    endloop
  endfacet
  facet normal 0 1 0
    outer loop
      vertex 66.8 4 10
      vertex 62.9491 4 5.96418
      vertex 62.8607 4 6.06066
    endloop
  endfacet
  facet normal 0 1 0
    outer loop
      vertex 66.8 4 10
      vertex 63.0287 4 5.86036
      vertex 62.9491 4 5.96418
    endloop
  endfacet
  facet normal 0 1 0
    outer loop
      vertex 66.8 4 10
      vertex 63.099 4 5.75
      vertex 63.0287 4 5.86036
    endloop
  endfacet
  facet normal 0 1 0
    outer loop
      vertex 66.8 4 10
      vertex 63.1595 4 5.63393
      vertex 63.099 4 5.75
    endloop
  endfacet
  facet normal 0 1 0
    outer loop
      vertex 66.8 4 10
      vertex 63.2095 4 5.51303
      vertex 63.1595 4 5.63393
    endloop
  endfacet
  facet normal 0 1 0
    outer loop
      vertex 66.8 4 10
      vertex 63.2489 4 5.38823
      vertex 63.2095 4 5.51303
    endloop
  endfacet
  facet normal 0 1 0
    outer loop
      vertex 66.8 4 10
      vertex 63.2772 4 5.26047
      vertex 63.2489 4 5.38823
    endloop
  endfacet
  facet normal 0 1 0
    outer loop
      vertex 66.8 4 10
      vertex 63.2943 4 5.13073
      vertex 63.2772 4 5.26047
    endloop
  endfacet
  facet normal 0 1 0
    outer loop
      vertex 66.8 4 10
      vertex 63.3 4 5
      vertex 63.2943 4 5.13073
    endloop
  endfacet
  facet normal 0 1 -0
    outer loop
      vertex 66.8 4 8.88178e-016
      vertex 63.3 4 5
      vertex 66.8 4 10
    endloop
  endfacet
  facet normal 0 1 0
    outer loop
      vertex 63.3 4 5
      vertex 66.8 4 8.88178e-016
      vertex 63.2943 4 4.86927
    endloop
  endfacet
  facet normal 0 1 0
    outer loop
      vertex 63.2943 4 4.86927
      vertex 66.8 4 8.88178e-016
      vertex 63.2772 4 4.73953
    endloop
  endfacet
  facet normal 0 1 0
    outer loop
      vertex 63.2772 4 4.73953
      vertex 66.8 4 8.88178e-016
      vertex 63.2489 4 4.61177
    endloop
  endfacet
  facet normal 0 1 0
    outer loop
      vertex 63.2489 4 4.61177
      vertex 66.8 4 8.88178e-016
      vertex 63.2095 4 4.48697
    endloop
  endfacet
  facet normal 0 1 0
    outer loop
      vertex 63.2095 4 4.48697
      vertex 66.8 4 8.88178e-016
      vertex 63.1595 4 4.36607
    endloop
  endfacet
  facet normal 0 1 0
    outer loop
      vertex 63.1595 4 4.36607
      vertex 66.8 4 8.88178e-016
      vertex 63.099 4 4.25
    endloop
  endfacet
  facet normal 0 1 0
    outer loop
      vertex 61.9307 4 3.50571
      vertex 66.8 4 8.88178e-016
      vertex 61.8 4 3.5
    endloop
  endfacet
  facet normal 0 1 0
    outer loop
      vertex 62.0605 4 3.52279
      vertex 66.8 4 8.88178e-016
      vertex 61.9307 4 3.50571
    endloop
  endfacet
  facet normal 0 1 0
    outer loop
      vertex 62.1882 4 3.55111
      vertex 66.8 4 8.88178e-016
      vertex 62.0605 4 3.52279
    endloop
  endfacet
  facet normal 0 1 0
    outer loop
      vertex 62.313 4 3.59046
      vertex 66.8 4 8.88178e-016
      vertex 62.1882 4 3.55111
    endloop
  endfacet
  facet normal 0 1 0
    outer loop
      vertex 62.4339 4 3.64054
      vertex 66.8 4 8.88178e-016
      vertex 62.313 4 3.59046
    endloop
  endfacet
  facet normal 0 1 0
    outer loop
      vertex 62.55 4 3.70096
      vertex 66.8 4 8.88178e-016
      vertex 62.4339 4 3.64054
    endloop
  endfacet
  facet normal 0 1 0
    outer loop
      vertex 62.6604 4 3.77127
      vertex 66.8 4 8.88178e-016
      vertex 62.55 4 3.70096
    endloop
  endfacet
  facet normal 0 1 0
    outer loop
      vertex 62.7642 4 3.85093
      vertex 66.8 4 8.88178e-016
      vertex 62.6604 4 3.77127
    endloop
  endfacet
  facet normal 0 1 0
    outer loop
      vertex 62.8607 4 3.93934
      vertex 66.8 4 8.88178e-016
      vertex 62.7642 4 3.85093
    endloop
  endfacet
  facet normal 0 1 0
    outer loop
      vertex 62.9491 4 4.03582
      vertex 66.8 4 8.88178e-016
      vertex 62.8607 4 3.93934
    endloop
  endfacet
  facet normal 0 1 0
    outer loop
      vertex 63.0287 4 4.13964
      vertex 66.8 4 8.88178e-016
      vertex 62.9491 4 4.03582
    endloop
  endfacet
  facet normal 0 1 0
    outer loop
      vertex 63.099 4 4.25
      vertex 66.8 4 8.88178e-016
      vertex 63.0287 4 4.13964
    endloop
  endfacet
  facet normal 0 1 -0
    outer loop
      vertex 61.5395 4 6.47721
      vertex 57.7935 4 10
      vertex 61.6693 4 6.49429
    endloop
  endfacet
  facet normal 0 1 -0
    outer loop
      vertex 61.4118 4 6.44889
      vertex 57.7935 4 10
      vertex 61.5395 4 6.47721
    endloop
  endfacet
  facet normal 0 1 -0
    outer loop
      vertex 61.287 4 6.40954
      vertex 57.7935 4 10
      vertex 61.4118 4 6.44889
    endloop
  endfacet
  facet normal 0 1 0
    outer loop
      vertex 57.7935 4 10
      vertex 61.287 4 6.40954
      vertex 57.5976 4 9.11653
    endloop
  endfacet
  facet normal 0 1 -0
    outer loop
      vertex 61.1661 4 6.35946
      vertex 57.5976 4 9.11653
      vertex 61.287 4 6.40954
    endloop
  endfacet
  facet normal 0 1 -0
    outer loop
      vertex 61.05 4 6.29904
      vertex 57.5976 4 9.11653
      vertex 61.1661 4 6.35946
    endloop
  endfacet
  facet normal 0 1 -0
    outer loop
      vertex 60.9396 4 6.22873
      vertex 57.5976 4 9.11653
      vertex 61.05 4 6.29904
    endloop
  endfacet
  facet normal 0 1 -0
    outer loop
      vertex 60.8358 4 6.14907
      vertex 57.5976 4 9.11653
      vertex 60.9396 4 6.22873
    endloop
  endfacet
  facet normal 0 1 -0
    outer loop
      vertex 60.7393 4 6.06066
      vertex 57.5976 4 9.11653
      vertex 60.8358 4 6.14907
    endloop
  endfacet
  facet normal 0 1 -0
    outer loop
      vertex 60.6509 4 5.96418
      vertex 57.5976 4 9.11653
      vertex 60.7393 4 6.06066
    endloop
  endfacet
  facet normal 0 1 -0
    outer loop
      vertex 60.5713 4 5.86036
      vertex 57.5976 4 9.11653
      vertex 60.6509 4 5.96418
    endloop
  endfacet
  facet normal 0 1 -0
    outer loop
      vertex 60.501 4 5.75
      vertex 57.5976 4 9.11653
      vertex 60.5713 4 5.86036
    endloop
  endfacet
  facet normal 0 1 -0
    outer loop
      vertex 60.4405 4 5.63393
      vertex 57.5976 4 9.11653
      vertex 60.501 4 5.75
    endloop
  endfacet
  facet normal 0 1 0
    outer loop
      vertex 56.9998 4 4.57568
      vertex 60.4405 4 5.63393
      vertex 60.3905 4 5.51303
    endloop
  endfacet
  facet normal 0 1 0
    outer loop
      vertex 56.9998 4 4.57568
      vertex 60.3905 4 5.51303
      vertex 60.3511 4 5.38823
    endloop
  endfacet
  facet normal 0 1 0
    outer loop
      vertex 56.9998 4 4.57568
      vertex 60.3511 4 5.38823
      vertex 60.3228 4 5.26047
    endloop
  endfacet
  facet normal 0 1 0
    outer loop
      vertex 56.9998 4 4.57568
      vertex 60.3228 4 5.26047
      vertex 60.3057 4 5.13073
    endloop
  endfacet
  facet normal 0 1 0
    outer loop
      vertex 56.9998 4 4.57568
      vertex 60.3057 4 5.13073
      vertex 60.3 4 5
    endloop
  endfacet
  facet normal 0 1 0
    outer loop
      vertex 56.9998 4 4.57568
      vertex 60.3 4 5
      vertex 60.3057 4 4.86927
    endloop
  endfacet
  facet normal 0 1 0
    outer loop
      vertex 56.9998 4 4.57568
      vertex 60.3057 4 4.86927
      vertex 60.3228 4 4.73953
    endloop
  endfacet
  facet normal 0 1 0
    outer loop
      vertex 56.9998 4 4.57568
      vertex 60.3228 4 4.73953
      vertex 60.3511 4 4.61177
    endloop
  endfacet
  facet normal 0 1 0
    outer loop
      vertex 60.4405 4 5.63393
      vertex 56.9998 4 4.57568
      vertex 57.5976 4 9.11653
    endloop
  endfacet
  facet normal 0 1 0
    outer loop
      vertex 60.3905 4 4.48697
      vertex 56.9998 4 4.57568
      vertex 60.3511 4 4.61177
    endloop
  endfacet
  facet normal 0 1 0
    outer loop
      vertex 60.4405 4 4.36607
      vertex 56.9998 4 4.57568
      vertex 60.3905 4 4.48697
    endloop
  endfacet
  facet normal 0 1 0
    outer loop
      vertex 60.501 4 4.25
      vertex 56.9998 4 4.57568
      vertex 60.4405 4 4.36607
    endloop
  endfacet
  facet normal 0 1 0
    outer loop
      vertex 60.5713 4 4.13964
      vertex 56.9998 4 4.57568
      vertex 60.501 4 4.25
    endloop
  endfacet
  facet normal 0 1 0
    outer loop
      vertex 60.6509 4 4.03582
      vertex 56.9998 4 4.57568
      vertex 60.5713 4 4.13964
    endloop
  endfacet
  facet normal 0 1 0
    outer loop
      vertex 56.8 4 8.88178e-016
      vertex 60.6509 4 4.03582
      vertex 60.7393 4 3.93934
    endloop
  endfacet
  facet normal 0 1 0
    outer loop
      vertex 56.8 4 8.88178e-016
      vertex 60.7393 4 3.93934
      vertex 60.8358 4 3.85093
    endloop
  endfacet
  facet normal 0 1 0
    outer loop
      vertex 56.8 4 8.88178e-016
      vertex 60.8358 4 3.85093
      vertex 60.9396 4 3.77127
    endloop
  endfacet
  facet normal 0 1 0
    outer loop
      vertex 56.8 4 8.88178e-016
      vertex 60.9396 4 3.77127
      vertex 61.05 4 3.70096
    endloop
  endfacet
  facet normal 0 1 0
    outer loop
      vertex 56.8 4 8.88178e-016
      vertex 61.05 4 3.70096
      vertex 61.1661 4 3.64054
    endloop
  endfacet
  facet normal 0 1 0
    outer loop
      vertex 56.8 4 8.88178e-016
      vertex 61.1661 4 3.64054
      vertex 61.287 4 3.59046
    endloop
  endfacet
  facet normal 0 1 0
    outer loop
      vertex 56.8 4 8.88178e-016
      vertex 61.287 4 3.59046
      vertex 61.4118 4 3.55111
    endloop
  endfacet
  facet normal 0 1 0
    outer loop
      vertex 56.8 4 8.88178e-016
      vertex 61.8 4 3.5
      vertex 66.8 4 8.88178e-016
    endloop
  endfacet
  facet normal 0 1 0
    outer loop
      vertex 61.8 4 3.5
      vertex 56.8 4 8.88178e-016
      vertex 61.6693 4 3.50571
    endloop
  endfacet
  facet normal 0 1 0
    outer loop
      vertex 61.6693 4 3.50571
      vertex 56.8 4 8.88178e-016
      vertex 61.5395 4 3.52279
    endloop
  endfacet
  facet normal 0 1 0
    outer loop
      vertex 61.5395 4 3.52279
      vertex 56.8 4 8.88178e-016
      vertex 61.4118 4 3.55111
    endloop
  endfacet
  facet normal 0 1 0
    outer loop
      vertex 60.6509 4 4.03582
      vertex 56.8 4 8.88178e-016
      vertex 56.9998 4 4.57568
    endloop
  endfacet
  facet normal 1 0 0
    outer loop
      vertex 66.8 4 10
      vertex 66.8 0 0
      vertex 66.8 4 8.88178e-016
    endloop
  endfacet
  facet normal 1 0 -0
    outer loop
      vertex 66.8 0 0
      vertex 66.8 4 10
      vertex 66.8 -2.22045e-015 10
    endloop
  endfacet
  facet normal -0 0 1
    outer loop
      vertex 57.7935 4 10
      vertex 66.8 -2.22045e-015 10
      vertex 66.8 4 10
    endloop
  endfacet
  facet normal 0 0 1
    outer loop
      vertex 66.8 -2.22045e-015 10
      vertex 57.7935 4 10
      vertex 57.7935 -2.22045e-015 10
    endloop
  endfacet
  facet normal 0 2.22045e-016 -1
    outer loop
      vertex 56.8 0 0
      vertex 66.8 4 8.88178e-016
      vertex 66.8 0 0
    endloop
  endfacet
  facet normal 0 2.22045e-016 -1
    outer loop
      vertex 66.8 4 8.88178e-016
      vertex 56.8 0 0
      vertex 56.8 4 8.88178e-016
    endloop
  endfacet
  facet normal -0.60876 0 0.793354
    outer loop
      vertex 62.6604 4 3.77127
      vertex 62.7642 -8.55079e-016 3.85093
      vertex 62.7642 4 3.85093
    endloop
  endfacet
  facet normal -0.60876 0 0.793354
    outer loop
      vertex 62.7642 -8.55079e-016 3.85093
      vertex 62.6604 4 3.77127
      vertex 62.6604 -8.37391e-016 3.77127
    endloop
  endfacet
  facet normal 0.461741 0 0.887015
    outer loop
      vertex 61.05 4 3.70096
      vertex 61.1661 -8.08362e-016 3.64054
      vertex 61.1661 4 3.64054
    endloop
  endfacet
  facet normal 0.461741 0 0.887015
    outer loop
      vertex 61.1661 -8.08362e-016 3.64054
      vertex 61.05 4 3.70096
      vertex 61.05 -8.21779e-016 3.70096
    endloop
  endfacet
  facet normal 0.923884 0 0.382672
    outer loop
      vertex 60.3905 4 4.48697
      vertex 60.4405 -9.69463e-016 4.36607
      vertex 60.4405 4 4.36607
    endloop
  endfacet
  facet normal 0.923884 0 0.382672
    outer loop
      vertex 60.4405 -9.69463e-016 4.36607
      vertex 60.3905 4 4.48697
      vertex 60.3905 -9.96307e-016 4.48697
    endloop
  endfacet
  facet normal -0.887007 0 0.461756
    outer loop
      vertex 63.099 -9.4369e-016 4.25
      vertex 63.1595 4 4.36607
      vertex 63.099 4 4.25
    endloop
  endfacet
  facet normal -0.887007 0 0.461756
    outer loop
      vertex 63.1595 4 4.36607
      vertex 63.099 -9.4369e-016 4.25
      vertex 63.1595 -9.69463e-016 4.36607
    endloop
  endfacet
  facet normal -0.843395 0 0.537295
    outer loop
      vertex 63.0287 -9.19184e-016 4.13964
      vertex 63.099 4 4.25
      vertex 63.0287 4 4.13964
    endloop
  endfacet
  facet normal -0.843395 0 0.537295
    outer loop
      vertex 63.099 4 4.25
      vertex 63.0287 -9.19184e-016 4.13964
      vertex 63.099 -9.4369e-016 4.25
    endloop
  endfacet
  facet normal -0.382689 0 0.923877
    outer loop
      vertex 62.313 4 3.59046
      vertex 62.4339 -8.08362e-016 3.64054
      vertex 62.4339 4 3.64054
    endloop
  endfacet
  facet normal -0.382689 0 0.923877
    outer loop
      vertex 62.4339 -8.08362e-016 3.64054
      vertex 62.313 4 3.59046
      vertex 62.313 -7.97243e-016 3.59046
    endloop
  endfacet
  facet normal -0.0436251 0 0.999048
    outer loop
      vertex 61.8 4 3.5
      vertex 61.9307 -7.78424e-016 3.50571
      vertex 61.9307 4 3.50571
    endloop
  endfacet
  facet normal -0.0436251 0 0.999048
    outer loop
      vertex 61.9307 -7.78424e-016 3.50571
      vertex 61.8 4 3.5
      vertex 61.8 -7.77156e-016 3.5
    endloop
  endfacet
  facet normal 0.999049 0 0.0436105
    outer loop
      vertex 60.3 4 5
      vertex 60.3057 -1.08119e-015 4.86927
      vertex 60.3057 4 4.86927
    endloop
  endfacet
  facet normal 0.999049 0 0.0436105
    outer loop
      vertex 60.3057 -1.08119e-015 4.86927
      vertex 60.3 4 5
      vertex 60.3 -1.11022e-015 5
    endloop
  endfacet
  facet normal 0.793351 0 0.608765
    outer loop
      vertex 60.5713 4 4.13964
      vertex 60.6509 -8.96132e-016 4.03582
      vertex 60.6509 4 4.03582
    endloop
  endfacet
  facet normal 0.793351 0 0.608765
    outer loop
      vertex 60.6509 -8.96132e-016 4.03582
      vertex 60.5713 4 4.13964
      vertex 60.5713 -9.19184e-016 4.13964
    endloop
  endfacet
  facet normal 0.300704 0 0.953717
    outer loop
      vertex 61.287 4 3.59046
      vertex 61.4118 -7.88505e-016 3.55111
      vertex 61.4118 4 3.55111
    endloop
  endfacet
  facet normal 0.300704 0 0.953717
    outer loop
      vertex 61.4118 -7.88505e-016 3.55111
      vertex 61.287 4 3.59046
      vertex 61.287 -7.97243e-016 3.59046
    endloop
  endfacet
  facet normal -0.999049 0 -0.0436102
    outer loop
      vertex 63.3 -1.11022e-015 5
      vertex 63.2943 4 5.13073
      vertex 63.3 4 5
    endloop
  endfacet
  facet normal -0.999049 -0 -0.0436102
    outer loop
      vertex 63.2943 4 5.13073
      vertex 63.3 -1.11022e-015 5
      vertex 63.2943 -1.13925e-015 5.13073
    endloop
  endfacet
  facet normal -0.793351 0 -0.608765
    outer loop
      vertex 63.0287 -1.30126e-015 5.86036
      vertex 62.9491 4 5.96418
      vertex 63.0287 4 5.86036
    endloop
  endfacet
  facet normal -0.793351 -0 -0.608765
    outer loop
      vertex 62.9491 4 5.96418
      vertex 63.0287 -1.30126e-015 5.86036
      vertex 62.9491 -1.32431e-015 5.96418
    endloop
  endfacet
  facet normal 0.0436178 0 -0.999048
    outer loop
      vertex 61.6693 -1.44202e-015 6.49429
      vertex 61.8 4 6.5
      vertex 61.8 -1.44329e-015 6.5
    endloop
  endfacet
  facet normal 0.0436178 0 -0.999048
    outer loop
      vertex 61.8 4 6.5
      vertex 61.6693 -1.44202e-015 6.49429
      vertex 61.6693 4 6.49429
    endloop
  endfacet
  facet normal 0.60876 0 -0.793354
    outer loop
      vertex 60.8358 -1.36537e-015 6.14907
      vertex 60.9396 4 6.22873
      vertex 60.9396 -1.38306e-015 6.22873
    endloop
  endfacet
  facet normal 0.60876 0 -0.793354
    outer loop
      vertex 60.9396 4 6.22873
      vertex 60.8358 -1.36537e-015 6.14907
      vertex 60.8358 4 6.14907
    endloop
  endfacet
  facet normal 0.95372 0 -0.300697
    outer loop
      vertex 60.3905 4 5.51303
      vertex 60.3511 -1.19643e-015 5.38823
      vertex 60.3511 4 5.38823
    endloop
  endfacet
  facet normal 0.95372 0 -0.300697
    outer loop
      vertex 60.3511 -1.19643e-015 5.38823
      vertex 60.3905 4 5.51303
      vertex 60.3905 -1.22414e-015 5.51303
    endloop
  endfacet
  facet normal -0.991443 0 0.13054
    outer loop
      vertex 63.2772 -1.05239e-015 4.73953
      vertex 63.2943 4 4.86927
      vertex 63.2772 4 4.73953
    endloop
  endfacet
  facet normal -0.991443 0 0.13054
    outer loop
      vertex 63.2943 4 4.86927
      vertex 63.2772 -1.05239e-015 4.73953
      vertex 63.2943 -1.08119e-015 4.86927
    endloop
  endfacet
  facet normal -0.95372 0 0.300697
    outer loop
      vertex 63.2095 -9.96307e-016 4.48697
      vertex 63.2489 4 4.61177
      vertex 63.2095 4 4.48697
    endloop
  endfacet
  facet normal -0.95372 0 0.300697
    outer loop
      vertex 63.2489 4 4.61177
      vertex 63.2095 -9.96307e-016 4.48697
      vertex 63.2489 -1.02402e-015 4.61177
    endloop
  endfacet
  facet normal -0.923884 0 0.382672
    outer loop
      vertex 63.1595 -9.69463e-016 4.36607
      vertex 63.2095 4 4.48697
      vertex 63.1595 4 4.36607
    endloop
  endfacet
  facet normal -0.923884 0 0.382672
    outer loop
      vertex 63.2095 4 4.48697
      vertex 63.1595 -9.69463e-016 4.36607
      vertex 63.2095 -9.96307e-016 4.48697
    endloop
  endfacet
  facet normal -0.73728 0 0.675588
    outer loop
      vertex 62.8607 -8.74709e-016 3.93934
      vertex 62.9491 4 4.03582
      vertex 62.8607 4 3.93934
    endloop
  endfacet
  facet normal -0.73728 0 0.675588
    outer loop
      vertex 62.9491 4 4.03582
      vertex 62.8607 -8.74709e-016 3.93934
      vertex 62.9491 -8.96132e-016 4.03582
    endloop
  endfacet
  facet normal -0.793351 0 0.608765
    outer loop
      vertex 62.9491 -8.96132e-016 4.03582
      vertex 63.0287 4 4.13964
      vertex 62.9491 4 4.03582
    endloop
  endfacet
  facet normal -0.793351 0 0.608765
    outer loop
      vertex 63.0287 4 4.13964
      vertex 62.9491 -8.96132e-016 4.03582
      vertex 63.0287 -9.19184e-016 4.13964
    endloop
  endfacet
  facet normal -0.675581 0 0.737286
    outer loop
      vertex 62.7642 4 3.85093
      vertex 62.8607 -8.74709e-016 3.93934
      vertex 62.8607 4 3.93934
    endloop
  endfacet
  facet normal -0.675581 0 0.737286
    outer loop
      vertex 62.8607 -8.74709e-016 3.93934
      vertex 62.7642 4 3.85093
      vertex 62.7642 -8.55079e-016 3.85093
    endloop
  endfacet
  facet normal -0.537308 0 0.843386
    outer loop
      vertex 62.55 4 3.70096
      vertex 62.6604 -8.37391e-016 3.77127
      vertex 62.6604 4 3.77127
    endloop
  endfacet
  facet normal -0.537308 0 0.843386
    outer loop
      vertex 62.6604 -8.37391e-016 3.77127
      vertex 62.55 4 3.70096
      vertex 62.55 -8.21779e-016 3.70096
    endloop
  endfacet
  facet normal 0.0436251 0 0.999048
    outer loop
      vertex 61.6693 4 3.50571
      vertex 61.8 -7.77156e-016 3.5
      vertex 61.8 4 3.5
    endloop
  endfacet
  facet normal 0.0436251 0 0.999048
    outer loop
      vertex 61.8 -7.77156e-016 3.5
      vertex 61.6693 4 3.50571
      vertex 61.6693 -7.78424e-016 3.50571
    endloop
  endfacet
  facet normal -0.461741 0 0.887015
    outer loop
      vertex 62.4339 4 3.64054
      vertex 62.55 -8.21779e-016 3.70096
      vertex 62.55 4 3.70096
    endloop
  endfacet
  facet normal -0.461741 0 0.887015
    outer loop
      vertex 62.55 -8.21779e-016 3.70096
      vertex 62.4339 4 3.64054
      vertex 62.4339 -8.08362e-016 3.64054
    endloop
  endfacet
  facet normal -0.130526 0 0.991445
    outer loop
      vertex 61.9307 4 3.50571
      vertex 62.0605 -7.82216e-016 3.52279
      vertex 62.0605 4 3.52279
    endloop
  endfacet
  facet normal -0.130526 0 0.991445
    outer loop
      vertex 62.0605 -7.82216e-016 3.52279
      vertex 61.9307 4 3.50571
      vertex 61.9307 -7.78424e-016 3.50571
    endloop
  endfacet
  facet normal 0.991443 0 0.13054
    outer loop
      vertex 60.3057 4 4.86927
      vertex 60.3228 -1.05239e-015 4.73953
      vertex 60.3228 4 4.73953
    endloop
  endfacet
  facet normal 0.991443 0 0.13054
    outer loop
      vertex 60.3228 -1.05239e-015 4.73953
      vertex 60.3057 4 4.86927
      vertex 60.3057 -1.08119e-015 4.86927
    endloop
  endfacet
  facet normal 0.887007 0 0.461756
    outer loop
      vertex 60.4405 4 4.36607
      vertex 60.501 -9.4369e-016 4.25
      vertex 60.501 4 4.25
    endloop
  endfacet
  facet normal 0.887007 0 0.461756
    outer loop
      vertex 60.501 -9.4369e-016 4.25
      vertex 60.4405 4 4.36607
      vertex 60.4405 -9.69463e-016 4.36607
    endloop
  endfacet
  facet normal 0.843395 0 0.537295
    outer loop
      vertex 60.501 4 4.25
      vertex 60.5713 -9.19184e-016 4.13964
      vertex 60.5713 4 4.13964
    endloop
  endfacet
  facet normal 0.843395 0 0.537295
    outer loop
      vertex 60.5713 -9.19184e-016 4.13964
      vertex 60.501 4 4.25
      vertex 60.501 -9.4369e-016 4.25
    endloop
  endfacet
  facet normal 0.382689 0 0.923877
    outer loop
      vertex 61.1661 4 3.64054
      vertex 61.287 -7.97243e-016 3.59046
      vertex 61.287 4 3.59046
    endloop
  endfacet
  facet normal 0.382689 0 0.923877
    outer loop
      vertex 61.287 -7.97243e-016 3.59046
      vertex 61.1661 4 3.64054
      vertex 61.1661 -8.08362e-016 3.64054
    endloop
  endfacet
  facet normal 0.130526 0 0.991445
    outer loop
      vertex 61.5395 4 3.52279
      vertex 61.6693 -7.78424e-016 3.50571
      vertex 61.6693 4 3.50571
    endloop
  endfacet
  facet normal 0.130526 0 0.991445
    outer loop
      vertex 61.6693 -7.78424e-016 3.50571
      vertex 61.5395 4 3.52279
      vertex 61.5395 -7.82216e-016 3.52279
    endloop
  endfacet
  facet normal 0.60876 0 0.793354
    outer loop
      vertex 60.8358 4 3.85093
      vertex 60.9396 -8.37391e-016 3.77127
      vertex 60.9396 4 3.77127
    endloop
  endfacet
  facet normal 0.60876 0 0.793354
    outer loop
      vertex 60.9396 -8.37391e-016 3.77127
      vertex 60.8358 4 3.85093
      vertex 60.8358 -8.55079e-016 3.85093
    endloop
  endfacet
  facet normal 0.675581 0 0.737286
    outer loop
      vertex 60.7393 4 3.93934
      vertex 60.8358 -8.55079e-016 3.85093
      vertex 60.8358 4 3.85093
    endloop
  endfacet
  facet normal 0.675581 0 0.737286
    outer loop
      vertex 60.8358 -8.55079e-016 3.85093
      vertex 60.7393 4 3.93934
      vertex 60.7393 -8.74709e-016 3.93934
    endloop
  endfacet
  facet normal 0.537308 0 0.843386
    outer loop
      vertex 60.9396 4 3.77127
      vertex 61.05 -8.21779e-016 3.70096
      vertex 61.05 4 3.70096
    endloop
  endfacet
  facet normal 0.537308 0 0.843386
    outer loop
      vertex 61.05 -8.21779e-016 3.70096
      vertex 60.9396 4 3.77127
      vertex 60.9396 -8.37391e-016 3.77127
    endloop
  endfacet
  facet normal 0.73728 0 0.675588
    outer loop
      vertex 60.6509 4 4.03582
      vertex 60.7393 -8.74709e-016 3.93934
      vertex 60.7393 4 3.93934
    endloop
  endfacet
  facet normal 0.73728 0 0.675588
    outer loop
      vertex 60.7393 -8.74709e-016 3.93934
      vertex 60.6509 4 4.03582
      vertex 60.6509 -8.96132e-016 4.03582
    endloop
  endfacet
  facet normal -0.999049 0 0.0436105
    outer loop
      vertex 63.2943 -1.08119e-015 4.86927
      vertex 63.3 4 5
      vertex 63.2943 4 4.86927
    endloop
  endfacet
  facet normal -0.999049 0 0.0436105
    outer loop
      vertex 63.3 4 5
      vertex 63.2943 -1.08119e-015 4.86927
      vertex 63.3 -1.11022e-015 5
    endloop
  endfacet
  facet normal -0.130526 0 -0.991445
    outer loop
      vertex 61.9307 -1.44202e-015 6.49429
      vertex 62.0605 4 6.47721
      vertex 62.0605 -1.43823e-015 6.47721
    endloop
  endfacet
  facet normal -0.130526 0 -0.991445
    outer loop
      vertex 62.0605 4 6.47721
      vertex 61.9307 -1.44202e-015 6.49429
      vertex 61.9307 4 6.49429
    endloop
  endfacet
  facet normal -0.382689 0 -0.923877
    outer loop
      vertex 62.313 -1.4232e-015 6.40954
      vertex 62.4339 4 6.35946
      vertex 62.4339 -1.41208e-015 6.35946
    endloop
  endfacet
  facet normal -0.382689 0 -0.923877
    outer loop
      vertex 62.4339 4 6.35946
      vertex 62.313 -1.4232e-015 6.40954
      vertex 62.313 4 6.40954
    endloop
  endfacet
  facet normal -0.675581 0 -0.737286
    outer loop
      vertex 62.7642 -1.36537e-015 6.14907
      vertex 62.8607 4 6.06066
      vertex 62.8607 -1.34574e-015 6.06066
    endloop
  endfacet
  facet normal -0.675581 0 -0.737286
    outer loop
      vertex 62.8607 4 6.06066
      vertex 62.7642 -1.36537e-015 6.14907
      vertex 62.7642 4 6.14907
    endloop
  endfacet
  facet normal -0.537308 0 -0.843386
    outer loop
      vertex 62.55 -1.39867e-015 6.29904
      vertex 62.6604 4 6.22873
      vertex 62.6604 -1.38306e-015 6.22873
    endloop
  endfacet
  facet normal -0.537308 0 -0.843386
    outer loop
      vertex 62.6604 4 6.22873
      vertex 62.55 -1.39867e-015 6.29904
      vertex 62.55 4 6.29904
    endloop
  endfacet
  facet normal -0.887006 0 -0.461759
    outer loop
      vertex 63.1595 -1.25098e-015 5.63393
      vertex 63.099 4 5.75
      vertex 63.1595 4 5.63393
    endloop
  endfacet
  facet normal -0.887006 -0 -0.461759
    outer loop
      vertex 63.099 4 5.75
      vertex 63.1595 -1.25098e-015 5.63393
      vertex 63.099 -1.27676e-015 5.75
    endloop
  endfacet
  facet normal 0.461741 0 -0.887015
    outer loop
      vertex 61.05 -1.39867e-015 6.29904
      vertex 61.1661 4 6.35946
      vertex 61.1661 -1.41208e-015 6.35946
    endloop
  endfacet
  facet normal 0.461741 0 -0.887015
    outer loop
      vertex 61.1661 4 6.35946
      vertex 61.05 -1.39867e-015 6.29904
      vertex 61.05 4 6.29904
    endloop
  endfacet
  facet normal 0.923884 0 -0.382672
    outer loop
      vertex 60.4405 4 5.63393
      vertex 60.3905 -1.22414e-015 5.51303
      vertex 60.3905 4 5.51303
    endloop
  endfacet
  facet normal 0.923884 0 -0.382672
    outer loop
      vertex 60.3905 -1.22414e-015 5.51303
      vertex 60.4405 4 5.63393
      vertex 60.4405 -1.25098e-015 5.63393
    endloop
  endfacet
  facet normal 0.991443 0 -0.13054
    outer loop
      vertex 60.3228 4 5.26047
      vertex 60.3057 -1.13925e-015 5.13073
      vertex 60.3057 4 5.13073
    endloop
  endfacet
  facet normal 0.991443 0 -0.13054
    outer loop
      vertex 60.3057 -1.13925e-015 5.13073
      vertex 60.3228 4 5.26047
      vertex 60.3228 -1.16806e-015 5.26047
    endloop
  endfacet
  facet normal 0.73728 0 -0.675588
    outer loop
      vertex 60.7393 4 6.06066
      vertex 60.6509 -1.32431e-015 5.96418
      vertex 60.6509 4 5.96418
    endloop
  endfacet
  facet normal 0.73728 0 -0.675588
    outer loop
      vertex 60.6509 -1.32431e-015 5.96418
      vertex 60.7393 4 6.06066
      vertex 60.7393 -1.34574e-015 6.06066
    endloop
  endfacet
  facet normal 0.843397 0 -0.537291
    outer loop
      vertex 60.5713 4 5.86036
      vertex 60.501 -1.27676e-015 5.75
      vertex 60.501 4 5.75
    endloop
  endfacet
  facet normal 0.843397 0 -0.537291
    outer loop
      vertex 60.501 -1.27676e-015 5.75
      vertex 60.5713 4 5.86036
      vertex 60.5713 -1.30126e-015 5.86036
    endloop
  endfacet
  facet normal -0.976294 0 0.216447
    outer loop
      vertex 63.2489 -1.02402e-015 4.61177
      vertex 63.2772 4 4.73953
      vertex 63.2489 4 4.61177
    endloop
  endfacet
  facet normal -0.976294 0 0.216447
    outer loop
      vertex 63.2772 4 4.73953
      vertex 63.2489 -1.02402e-015 4.61177
      vertex 63.2772 -1.05239e-015 4.73953
    endloop
  endfacet
  facet normal -0.216439 0 0.976296
    outer loop
      vertex 62.0605 4 3.52279
      vertex 62.1882 -7.88505e-016 3.55111
      vertex 62.1882 4 3.55111
    endloop
  endfacet
  facet normal -0.216439 0 0.976296
    outer loop
      vertex 62.1882 -7.88505e-016 3.55111
      vertex 62.0605 4 3.52279
      vertex 62.0605 -7.82216e-016 3.52279
    endloop
  endfacet
  facet normal -0.300704 0 0.953717
    outer loop
      vertex 62.1882 4 3.55111
      vertex 62.313 -7.97243e-016 3.59046
      vertex 62.313 4 3.59046
    endloop
  endfacet
  facet normal -0.300704 0 0.953717
    outer loop
      vertex 62.313 -7.97243e-016 3.59046
      vertex 62.1882 4 3.55111
      vertex 62.1882 -7.88505e-016 3.55111
    endloop
  endfacet
  facet normal 0.976294 0 0.216447
    outer loop
      vertex 60.3228 4 4.73953
      vertex 60.3511 -1.02402e-015 4.61177
      vertex 60.3511 4 4.61177
    endloop
  endfacet
  facet normal 0.976294 0 0.216447
    outer loop
      vertex 60.3511 -1.02402e-015 4.61177
      vertex 60.3228 4 4.73953
      vertex 60.3228 -1.05239e-015 4.73953
    endloop
  endfacet
  facet normal 0.95372 0 0.300697
    outer loop
      vertex 60.3511 4 4.61177
      vertex 60.3905 -9.96307e-016 4.48697
      vertex 60.3905 4 4.48697
    endloop
  endfacet
  facet normal 0.95372 0 0.300697
    outer loop
      vertex 60.3905 -9.96307e-016 4.48697
      vertex 60.3511 4 4.61177
      vertex 60.3511 -1.02402e-015 4.61177
    endloop
  endfacet
  facet normal 0.999049 0 -0.0436102
    outer loop
      vertex 60.3057 4 5.13073
      vertex 60.3 -1.11022e-015 5
      vertex 60.3 4 5
    endloop
  endfacet
  facet normal 0.999049 0 -0.0436102
    outer loop
      vertex 60.3 -1.11022e-015 5
      vertex 60.3057 4 5.13073
      vertex 60.3057 -1.13925e-015 5.13073
    endloop
  endfacet
  facet normal 0.216439 0 0.976296
    outer loop
      vertex 61.4118 4 3.55111
      vertex 61.5395 -7.82216e-016 3.52279
      vertex 61.5395 4 3.52279
    endloop
  endfacet
  facet normal 0.216439 0 0.976296
    outer loop
      vertex 61.5395 -7.82216e-016 3.52279
      vertex 61.4118 4 3.55111
      vertex 61.4118 -7.88505e-016 3.55111
    endloop
  endfacet
  facet normal -0.991443 0 -0.13054
    outer loop
      vertex 63.2943 -1.13925e-015 5.13073
      vertex 63.2772 4 5.26047
      vertex 63.2943 4 5.13073
    endloop
  endfacet
  facet normal -0.991443 -0 -0.13054
    outer loop
      vertex 63.2772 4 5.26047
      vertex 63.2943 -1.13925e-015 5.13073
      vertex 63.2772 -1.16806e-015 5.26047
    endloop
  endfacet
  facet normal -0.95372 0 -0.300697
    outer loop
      vertex 63.2489 -1.19643e-015 5.38823
      vertex 63.2095 4 5.51303
      vertex 63.2489 4 5.38823
    endloop
  endfacet
  facet normal -0.95372 -0 -0.300697
    outer loop
      vertex 63.2095 4 5.51303
      vertex 63.2489 -1.19643e-015 5.38823
      vertex 63.2095 -1.22414e-015 5.51303
    endloop
  endfacet
  facet normal -0.216439 0 -0.976296
    outer loop
      vertex 62.0605 -1.43823e-015 6.47721
      vertex 62.1882 4 6.44889
      vertex 62.1882 -1.43194e-015 6.44889
    endloop
  endfacet
  facet normal -0.216439 0 -0.976296
    outer loop
      vertex 62.1882 4 6.44889
      vertex 62.0605 -1.43823e-015 6.47721
      vertex 62.0605 4 6.47721
    endloop
  endfacet
  facet normal -0.461741 0 -0.887015
    outer loop
      vertex 62.4339 -1.41208e-015 6.35946
      vertex 62.55 4 6.29904
      vertex 62.55 -1.39867e-015 6.29904
    endloop
  endfacet
  facet normal -0.461741 0 -0.887015
    outer loop
      vertex 62.55 4 6.29904
      vertex 62.4339 -1.41208e-015 6.35946
      vertex 62.4339 4 6.35946
    endloop
  endfacet
  facet normal -0.73728 0 -0.675588
    outer loop
      vertex 62.9491 -1.32431e-015 5.96418
      vertex 62.8607 4 6.06066
      vertex 62.9491 4 5.96418
    endloop
  endfacet
  facet normal -0.73728 -0 -0.675588
    outer loop
      vertex 62.8607 4 6.06066
      vertex 62.9491 -1.32431e-015 5.96418
      vertex 62.8607 -1.34574e-015 6.06066
    endloop
  endfacet
  facet normal -0.60876 0 -0.793354
    outer loop
      vertex 62.6604 -1.38306e-015 6.22873
      vertex 62.7642 4 6.14907
      vertex 62.7642 -1.36537e-015 6.14907
    endloop
  endfacet
  facet normal -0.60876 0 -0.793354
    outer loop
      vertex 62.7642 4 6.14907
      vertex 62.6604 -1.38306e-015 6.22873
      vertex 62.6604 4 6.22873
    endloop
  endfacet
  facet normal -0.923884 0 -0.382672
    outer loop
      vertex 63.2095 -1.22414e-015 5.51303
      vertex 63.1595 4 5.63393
      vertex 63.2095 4 5.51303
    endloop
  endfacet
  facet normal -0.923884 -0 -0.382672
    outer loop
      vertex 63.1595 4 5.63393
      vertex 63.2095 -1.22414e-015 5.51303
      vertex 63.1595 -1.25098e-015 5.63393
    endloop
  endfacet
  facet normal -0.843397 0 -0.537291
    outer loop
      vertex 63.099 -1.27676e-015 5.75
      vertex 63.0287 4 5.86036
      vertex 63.099 4 5.75
    endloop
  endfacet
  facet normal -0.843397 -0 -0.537291
    outer loop
      vertex 63.0287 4 5.86036
      vertex 63.099 -1.27676e-015 5.75
      vertex 63.0287 -1.30126e-015 5.86036
    endloop
  endfacet
  facet normal 0.300704 0 -0.953717
    outer loop
      vertex 61.287 -1.4232e-015 6.40954
      vertex 61.4118 4 6.44889
      vertex 61.4118 -1.43194e-015 6.44889
    endloop
  endfacet
  facet normal 0.300704 0 -0.953717
    outer loop
      vertex 61.4118 4 6.44889
      vertex 61.287 -1.4232e-015 6.40954
      vertex 61.287 4 6.40954
    endloop
  endfacet
  facet normal -0.0436178 0 -0.999048
    outer loop
      vertex 61.8 -1.44329e-015 6.5
      vertex 61.9307 4 6.49429
      vertex 61.9307 -1.44202e-015 6.49429
    endloop
  endfacet
  facet normal -0.0436178 0 -0.999048
    outer loop
      vertex 61.9307 4 6.49429
      vertex 61.8 -1.44329e-015 6.5
      vertex 61.8 4 6.5
    endloop
  endfacet
  facet normal 0.130526 0 -0.991445
    outer loop
      vertex 61.5395 -1.43823e-015 6.47721
      vertex 61.6693 4 6.49429
      vertex 61.6693 -1.44202e-015 6.49429
    endloop
  endfacet
  facet normal 0.130526 0 -0.991445
    outer loop
      vertex 61.6693 4 6.49429
      vertex 61.5395 -1.43823e-015 6.47721
      vertex 61.5395 4 6.47721
    endloop
  endfacet
  facet normal 0.382689 0 -0.923877
    outer loop
      vertex 61.1661 -1.41208e-015 6.35946
      vertex 61.287 4 6.40954
      vertex 61.287 -1.4232e-015 6.40954
    endloop
  endfacet
  facet normal 0.382689 0 -0.923877
    outer loop
      vertex 61.287 4 6.40954
      vertex 61.1661 -1.41208e-015 6.35946
      vertex 61.1661 4 6.35946
    endloop
  endfacet
  facet normal 0.537308 0 -0.843386
    outer loop
      vertex 60.9396 -1.38306e-015 6.22873
      vertex 61.05 4 6.29904
      vertex 61.05 -1.39867e-015 6.29904
    endloop
  endfacet
  facet normal 0.537308 0 -0.843386
    outer loop
      vertex 61.05 4 6.29904
      vertex 60.9396 -1.38306e-015 6.22873
      vertex 60.9396 4 6.22873
    endloop
  endfacet
  facet normal 0.887006 0 -0.461759
    outer loop
      vertex 60.501 4 5.75
      vertex 60.4405 -1.25098e-015 5.63393
      vertex 60.4405 4 5.63393
    endloop
  endfacet
  facet normal 0.887006 0 -0.461759
    outer loop
      vertex 60.4405 -1.25098e-015 5.63393
      vertex 60.501 4 5.75
      vertex 60.501 -1.27676e-015 5.75
    endloop
  endfacet
  facet normal 0.976294 0 -0.216447
    outer loop
      vertex 60.3511 4 5.38823
      vertex 60.3228 -1.16806e-015 5.26047
      vertex 60.3228 4 5.26047
    endloop
  endfacet
  facet normal 0.976294 0 -0.216447
    outer loop
      vertex 60.3228 -1.16806e-015 5.26047
      vertex 60.3511 4 5.38823
      vertex 60.3511 -1.19643e-015 5.38823
    endloop
  endfacet
  facet normal 0.793351 0 -0.608765
    outer loop
      vertex 60.6509 4 5.96418
      vertex 60.5713 -1.30126e-015 5.86036
      vertex 60.5713 4 5.86036
    endloop
  endfacet
  facet normal 0.793351 0 -0.608765
    outer loop
      vertex 60.5713 -1.30126e-015 5.86036
      vertex 60.6509 4 5.96418
      vertex 60.6509 -1.32431e-015 5.96418
    endloop
  endfacet
  facet normal 0.675581 0 -0.737286
    outer loop
      vertex 60.7393 -1.34574e-015 6.06066
      vertex 60.8358 4 6.14907
      vertex 60.8358 -1.36537e-015 6.14907
    endloop
  endfacet
  facet normal 0.675581 0 -0.737286
    outer loop
      vertex 60.8358 4 6.14907
      vertex 60.7393 -1.34574e-015 6.06066
      vertex 60.7393 4 6.06066
    endloop
  endfacet
  facet normal -0.976294 0 -0.216447
    outer loop
      vertex 63.2772 -1.16806e-015 5.26047
      vertex 63.2489 4 5.38823
      vertex 63.2772 4 5.26047
    endloop
  endfacet
  facet normal -0.976294 -0 -0.216447
    outer loop
      vertex 63.2489 4 5.38823
      vertex 63.2772 -1.16806e-015 5.26047
      vertex 63.2489 -1.19643e-015 5.38823
    endloop
  endfacet
  facet normal -0.300704 0 -0.953717
    outer loop
      vertex 62.1882 -1.43194e-015 6.44889
      vertex 62.313 4 6.40954
      vertex 62.313 -1.4232e-015 6.40954
    endloop
  endfacet
  facet normal -0.300704 0 -0.953717
    outer loop
      vertex 62.313 4 6.40954
      vertex 62.1882 -1.43194e-015 6.44889
      vertex 62.1882 4 6.44889
    endloop
  endfacet
  facet normal 0.216439 0 -0.976296
    outer loop
      vertex 61.4118 -1.43194e-015 6.44889
      vertex 61.5395 4 6.47721
      vertex 61.5395 -1.43823e-015 6.47721
    endloop
  endfacet
  facet normal 0.216439 0 -0.976296
    outer loop
      vertex 61.5395 4 6.47721
      vertex 61.4118 -1.43194e-015 6.44889
      vertex 61.4118 4 6.44889
    endloop
  endfacet
endsolid OpenSCAD_Model
