solid OpenSCAD_Model
  facet normal -1 0 0
    outer loop
      vertex 0 49 0
      vertex 0 42.999 10
      vertex 0 49 40
    endloop
  endfacet
  facet normal -1 0 0
    outer loop
      vertex 0 49 0
      vertex 0 7.999 10
      vertex 0 42.999 10
    endloop
  endfacet
  facet normal -1 0 0
    outer loop
      vertex 0 7.999 10
      vertex 0 2 10
      vertex 0 7.999 40
    endloop
  endfacet
  facet normal -1 0 0
    outer loop
      vertex 0 0 0
      vertex 0 7.999 10
      vertex 0 49 0
    endloop
  endfacet
  facet normal -1 -0 0
    outer loop
      vertex 0 7.999 10
      vertex 0 0 0
      vertex 0 2 10
    endloop
  endfacet
  facet normal -1 -0 0
    outer loop
      vertex 0 2 10
      vertex 0 0 0
      vertex 0 0 10
    endloop
  endfacet
  facet normal -1 -0 0
    outer loop
      vertex 0 49 40
      vertex 0 42.999 10
      vertex 0 42.999 40
    endloop
  endfacet
  facet normal -1 -0 0
    outer loop
      vertex 0 7.999 40
      vertex 0 2 10
      vertex 0 2 40
    endloop
  endfacet
  facet normal -0 0 1
    outer loop
      vertex 82 47 10
      vertex 84 42.999 10
      vertex 84 47 10
    endloop
  endfacet
  facet normal 0 0 1
    outer loop
      vertex 84 42.999 10
      vertex 82 47 10
      vertex 82 42.999 10
    endloop
  endfacet
  facet normal -0 0 1
    outer loop
      vertex 2 2 10
      vertex 84 0 10
      vertex 84 2 10
    endloop
  endfacet
  facet normal 0 0 1
    outer loop
      vertex 0 0 10
      vertex 2 2 10
      vertex 0 2 10
    endloop
  endfacet
  facet normal 0 0 1
    outer loop
      vertex 2 2 10
      vertex 0 0 10
      vertex 84 0 10
    endloop
  endfacet
  facet normal -0 0 1
    outer loop
      vertex 82 42.999 10
      vertex 84 20 10
      vertex 84 42.999 10
    endloop
  endfacet
  facet normal 0 0 1
    outer loop
      vertex 84 20 10
      vertex 82 42.999 10
      vertex 82 20 10
    endloop
  endfacet
  facet normal -0 0 1
    outer loop
      vertex 0 42.999 10
      vertex 2 7.999 10
      vertex 2 42.999 10
    endloop
  endfacet
  facet normal 0 0 1
    outer loop
      vertex 2 7.999 10
      vertex 0 42.999 10
      vertex 0 7.999 10
    endloop
  endfacet
  facet normal 1 0 0
    outer loop
      vertex 84 2 10
      vertex 84 0 10
      vertex 84 2 2
    endloop
  endfacet
  facet normal 1 0 0
    outer loop
      vertex 84 47 10
      vertex 84 49 30
      vertex 84 47 30
    endloop
  endfacet
  facet normal 1 0 0
    outer loop
      vertex 84 49 30
      vertex 84 47 10
      vertex 84 49 0
    endloop
  endfacet
  facet normal 1 -0 0
    outer loop
      vertex 84 42.999 10
      vertex 84 49 0
      vertex 84 47 10
    endloop
  endfacet
  facet normal 1 0 0
    outer loop
      vertex 84 20 2
      vertex 84 42.999 10
      vertex 84 20 10
    endloop
  endfacet
  facet normal 1 0 0
    outer loop
      vertex 84 42.999 10
      vertex 84 20 2
      vertex 84 49 0
    endloop
  endfacet
  facet normal 1 0 0
    outer loop
      vertex 84 0 0
      vertex 84 20 2
      vertex 84 2 2
    endloop
  endfacet
  facet normal 1 0 0
    outer loop
      vertex 84 20 2
      vertex 84 0 0
      vertex 84 49 0
    endloop
  endfacet
  facet normal 1 0 0
    outer loop
      vertex 84 0 0
      vertex 84 2 2
      vertex 84 0 10
    endloop
  endfacet
  facet normal 0 0 -1
    outer loop
      vertex 84 0 0
      vertex 82 2 0
      vertex 84 49 0
    endloop
  endfacet
  facet normal 0 0 -1
    outer loop
      vertex 84 0 0
      vertex 2 2 0
      vertex 82 2 0
    endloop
  endfacet
  facet normal -0 0 -1
    outer loop
      vertex 2 2 0
      vertex 0 0 0
      vertex 2 47 0
    endloop
  endfacet
  facet normal 0 0 -1
    outer loop
      vertex 0 0 0
      vertex 2 2 0
      vertex 84 0 0
    endloop
  endfacet
  facet normal 0 0 -1
    outer loop
      vertex 82 47 0
      vertex 84 49 0
      vertex 82 2 0
    endloop
  endfacet
  facet normal 0 0 -1
    outer loop
      vertex 2 47 0
      vertex 84 49 0
      vertex 82 47 0
    endloop
  endfacet
  facet normal 0 0 -1
    outer loop
      vertex 2 47 0
      vertex 0 49 0
      vertex 84 49 0
    endloop
  endfacet
  facet normal 0 0 -1
    outer loop
      vertex 0 49 0
      vertex 2 47 0
      vertex 0 0 0
    endloop
  endfacet
  facet normal 0 -1 0
    outer loop
      vertex 0 0 0
      vertex 84 0 10
      vertex 0 0 10
    endloop
  endfacet
  facet normal 0 -1 -0
    outer loop
      vertex 84 0 10
      vertex 0 0 0
      vertex 84 0 0
    endloop
  endfacet
  facet normal 0 1 0
    outer loop
      vertex 84 49 30
      vertex 77 49 10
      vertex 77 49 30
    endloop
  endfacet
  facet normal 0 1 0
    outer loop
      vertex 77 49 10
      vertex 84 49 0
      vertex 7 49 10
    endloop
  endfacet
  facet normal 0 1 -0
    outer loop
      vertex 84 49 0
      vertex 77 49 10
      vertex 84 49 30
    endloop
  endfacet
  facet normal 0 1 0
    outer loop
      vertex 7 49 30
      vertex 7 49 10
      vertex 2 49 30
    endloop
  endfacet
  facet normal 0 1 -0
    outer loop
      vertex 2 49 30
      vertex 0 49 40
      vertex 2 49 40
    endloop
  endfacet
  facet normal 0 1 0
    outer loop
      vertex 2 49 30
      vertex 0 49 0
      vertex 0 49 40
    endloop
  endfacet
  facet normal 0 1 0
    outer loop
      vertex 7 49 10
      vertex 0 49 0
      vertex 2 49 30
    endloop
  endfacet
  facet normal 0 1 0
    outer loop
      vertex 0 49 0
      vertex 7 49 10
      vertex 84 49 0
    endloop
  endfacet
  facet normal 1 -0 0
    outer loop
      vertex 2 42.999 10
      vertex 2 47 0
      vertex 2 47 10
    endloop
  endfacet
  facet normal 1 -0 0
    outer loop
      vertex 2 7.999 10
      vertex 2 47 0
      vertex 2 42.999 10
    endloop
  endfacet
  facet normal 1 0 0
    outer loop
      vertex 2 2 0
      vertex 2 7.999 10
      vertex 2 2 10
    endloop
  endfacet
  facet normal 1 0 0
    outer loop
      vertex 2 7.999 10
      vertex 2 2 0
      vertex 2 47 0
    endloop
  endfacet
  facet normal -1 0 0
    outer loop
      vertex 82 47 0
      vertex 82 42.999 10
      vertex 82 47 10
    endloop
  endfacet
  facet normal -1 0 0
    outer loop
      vertex 82 47 0
      vertex 82 20 2
      vertex 82 42.999 10
    endloop
  endfacet
  facet normal -1 0 0
    outer loop
      vertex 82 2 0
      vertex 82 20 2
      vertex 82 47 0
    endloop
  endfacet
  facet normal -1 -0 0
    outer loop
      vertex 82 20 2
      vertex 82 2 0
      vertex 82 2 2
    endloop
  endfacet
  facet normal -1 -0 0
    outer loop
      vertex 82 42.999 10
      vertex 82 20 2
      vertex 82 20 10
    endloop
  endfacet
  facet normal 0 1 0
    outer loop
      vertex 82 2 2
      vertex 84 2 10
      vertex 84 2 2
    endloop
  endfacet
  facet normal 0 1 0
    outer loop
      vertex 84 2 10
      vertex 82 2 2
      vertex 2 2 10
    endloop
  endfacet
  facet normal 0 1 0
    outer loop
      vertex 2 2 0
      vertex 82 2 2
      vertex 82 2 0
    endloop
  endfacet
  facet normal 0 1 0
    outer loop
      vertex 82 2 2
      vertex 2 2 0
      vertex 2 2 10
    endloop
  endfacet
  facet normal 0 -1 0
    outer loop
      vertex 2 47 0
      vertex 7 47 10
      vertex 2 47 10
    endloop
  endfacet
  facet normal 0 -1 -0
    outer loop
      vertex 7 47 10
      vertex 2 47 0
      vertex 77 47 10
    endloop
  endfacet
  facet normal 0 -1 0
    outer loop
      vertex 82 47 0
      vertex 77 47 10
      vertex 2 47 0
    endloop
  endfacet
  facet normal 0 -1 0
    outer loop
      vertex 77 47 10
      vertex 82 47 0
      vertex 82 47 10
    endloop
  endfacet
  facet normal -0 0 1
    outer loop
      vertex 82 20 2
      vertex 84 2 2
      vertex 84 20 2
    endloop
  endfacet
  facet normal 0 0 1
    outer loop
      vertex 84 2 2
      vertex 82 20 2
      vertex 82 2 2
    endloop
  endfacet
  facet normal 0 -1 0
    outer loop
      vertex 82 20 2
      vertex 84 20 10
      vertex 82 20 10
    endloop
  endfacet
  facet normal 0 -1 -0
    outer loop
      vertex 84 20 10
      vertex 82 20 2
      vertex 84 20 2
    endloop
  endfacet
  facet normal -0 0 1
    outer loop
      vertex 0 7.999 40
      vertex 2 2 40
      vertex 2 7.999 40
    endloop
  endfacet
  facet normal 0 0 1
    outer loop
      vertex 2 2 40
      vertex 0 7.999 40
      vertex 0 2 40
    endloop
  endfacet
  facet normal -0 0 1
    outer loop
      vertex 0 49 40
      vertex 2 42.999 40
      vertex 2 49 40
    endloop
  endfacet
  facet normal 0 0 1
    outer loop
      vertex 2 42.999 40
      vertex 0 49 40
      vertex 0 42.999 40
    endloop
  endfacet
  facet normal 1 -0 0
    outer loop
      vertex 2 2 40
      vertex 2 7.999 10
      vertex 2 7.999 40
    endloop
  endfacet
  facet normal 1 0 0
    outer loop
      vertex 2 7.999 10
      vertex 2 2 40
      vertex 2 2 10
    endloop
  endfacet
  facet normal 1 0 0
    outer loop
      vertex 2 49 40
      vertex 2 47 30
      vertex 2 49 30
    endloop
  endfacet
  facet normal 1 -0 0
    outer loop
      vertex 2 42.999 40
      vertex 2 47 30
      vertex 2 49 40
    endloop
  endfacet
  facet normal 1 0 0
    outer loop
      vertex 2 42.999 10
      vertex 2 47 30
      vertex 2 42.999 40
    endloop
  endfacet
  facet normal 1 0 0
    outer loop
      vertex 2 47 30
      vertex 2 42.999 10
      vertex 2 47 10
    endloop
  endfacet
  facet normal 0 -1 0
    outer loop
      vertex 0 2 10
      vertex 2 2 40
      vertex 0 2 40
    endloop
  endfacet
  facet normal 0 -1 -0
    outer loop
      vertex 2 2 40
      vertex 0 2 10
      vertex 2 2 10
    endloop
  endfacet
  facet normal -0 0 1
    outer loop
      vertex 77 49 30
      vertex 84 47 30
      vertex 84 49 30
    endloop
  endfacet
  facet normal 0 0 1
    outer loop
      vertex 84 47 30
      vertex 77 49 30
      vertex 77 47 30
    endloop
  endfacet
  facet normal -0 0 1
    outer loop
      vertex 2 49 30
      vertex 7 47 30
      vertex 7 49 30
    endloop
  endfacet
  facet normal 0 0 1
    outer loop
      vertex 7 47 30
      vertex 2 49 30
      vertex 2 47 30
    endloop
  endfacet
  facet normal 0 -1 0
    outer loop
      vertex 82 47 10
      vertex 77 47 30
      vertex 77 47 10
    endloop
  endfacet
  facet normal 0 -1 0
    outer loop
      vertex 77 47 30
      vertex 82 47 10
      vertex 84 47 30
    endloop
  endfacet
  facet normal 0 -1 -0
    outer loop
      vertex 84 47 30
      vertex 82 47 10
      vertex 84 47 10
    endloop
  endfacet
  facet normal 0 -1 0
    outer loop
      vertex 2 47 10
      vertex 7 47 30
      vertex 2 47 30
    endloop
  endfacet
  facet normal 0 -1 -0
    outer loop
      vertex 7 47 30
      vertex 2 47 10
      vertex 7 47 10
    endloop
  endfacet
  facet normal 0 1 -0
    outer loop
      vertex 2 7.999 10
      vertex 0 7.999 40
      vertex 2 7.999 40
    endloop
  endfacet
  facet normal 0 1 0
    outer loop
      vertex 0 7.999 40
      vertex 2 7.999 10
      vertex 0 7.999 10
    endloop
  endfacet
  facet normal 0 -1 0
    outer loop
      vertex 0 42.999 10
      vertex 2 42.999 40
      vertex 0 42.999 40
    endloop
  endfacet
  facet normal 0 -1 -0
    outer loop
      vertex 2 42.999 40
      vertex 0 42.999 10
      vertex 2 42.999 10
    endloop
  endfacet
  facet normal 1 -0 0
    outer loop
      vertex 7 47 30
      vertex 7 49 10
      vertex 7 49 30
    endloop
  endfacet
  facet normal 1 0 0
    outer loop
      vertex 7 49 10
      vertex 7 47 30
      vertex 7 47 10
    endloop
  endfacet
  facet normal -1 0 0
    outer loop
      vertex 77 47 10
      vertex 77 49 30
      vertex 77 49 10
    endloop
  endfacet
  facet normal -1 -0 0
    outer loop
      vertex 77 49 30
      vertex 77 47 10
      vertex 77 47 30
    endloop
  endfacet
  facet normal -0 0 1
    outer loop
      vertex 7 49 10
      vertex 77 47 10
      vertex 77 49 10
    endloop
  endfacet
  facet normal 0 0 1
    outer loop
      vertex 77 47 10
      vertex 7 49 10
      vertex 7 47 10
    endloop
  endfacet
endsolid OpenSCAD_Model
