solid OpenSCAD_Model
  facet normal 0.91421 0.405241 0
    outer loop
      vertex 19.2806 37.9845 1
      vertex 18.1866 40.4524 0
      vertex 18.1866 40.4524 1
    endloop
  endfacet
  facet normal 0.91421 0.405241 0
    outer loop
      vertex 18.1866 40.4524 0
      vertex 19.2806 37.9845 1
      vertex 19.2806 37.9845 0
    endloop
  endfacet
  facet normal -0.963776 -0.266712 0
    outer loop
      vertex 122.352 74.8639 0
      vertex 121.632 77.4657 1
      vertex 121.632 77.4657 0
    endloop
  endfacet
  facet normal -0.963776 -0.266712 0
    outer loop
      vertex 121.632 77.4657 1
      vertex 122.352 74.8639 0
      vertex 122.352 74.8639 1
    endloop
  endfacet
  facet normal -0.219101 0.975702 0
    outer loop
      vertex 82.3639 8.14828 0
      vertex 79.73 7.55681 1
      vertex 82.3639 8.14828 1
    endloop
  endfacet
  facet normal -0.219101 0.975702 0
    outer loop
      vertex 79.73 7.55681 1
      vertex 82.3639 8.14828 0
      vertex 79.73 7.55681 0
    endloop
  endfacet
  facet normal -0.653173 0.757209 0
    outer loop
      vertex 105.936 20.7477 0
      vertex 103.892 18.9844 1
      vertex 105.936 20.7477 1
    endloop
  endfacet
  facet normal -0.653173 0.757209 0
    outer loop
      vertex 103.892 18.9844 1
      vertex 105.936 20.7477 0
      vertex 103.892 18.9844 0
    endloop
  endfacet
  facet normal 0.0735643 0.99729 -0
    outer loop
      vertex 66.3013 6.56625 0
      vertex 63.6091 6.76484 1
      vertex 66.3013 6.56625 1
    endloop
  endfacet
  facet normal 0.0735643 0.99729 0
    outer loop
      vertex 63.6091 6.76484 1
      vertex 66.3013 6.56625 0
      vertex 63.6091 6.76484 0
    endloop
  endfacet
  facet normal 0.975702 -0.219101 0
    outer loop
      vertex 15.0568 72.23 1
      vertex 15.6483 74.8639 0
      vertex 15.6483 74.8639 1
    endloop
  endfacet
  facet normal 0.975702 -0.219101 0
    outer loop
      vertex 15.6483 74.8639 0
      vertex 15.0568 72.23 1
      vertex 15.0568 72.23 0
    endloop
  endfacet
  facet normal 0.99248 -0.122411 0
    outer loop
      vertex 14.2648 66.8909 1
      vertex 14.5953 69.5702 0
      vertex 14.5953 69.5702 1
    endloop
  endfacet
  facet normal 0.99248 -0.122411 0
    outer loop
      vertex 14.5953 69.5702 0
      vertex 14.2648 66.8909 1
      vertex 14.2648 66.8909 0
    endloop
  endfacet
  facet normal -0.999699 0.0245426 0
    outer loop
      vertex 123.934 58.8013 0
      vertex 124 61.5 1
      vertex 124 61.5 0
    endloop
  endfacet
  facet normal -0.999699 0.0245426 0
    outer loop
      vertex 124 61.5 1
      vertex 123.934 58.8013 0
      vertex 123.934 58.8013 1
    endloop
  endfacet
  facet normal 0.449612 0.893224 -0
    outer loop
      vertex 45.4845 11.7806 0
      vertex 43.0732 12.9943 1
      vertex 45.4845 11.7806 1
    endloop
  endfacet
  facet normal 0.449612 0.893224 0
    outer loop
      vertex 43.0732 12.9943 1
      vertex 45.4845 11.7806 0
      vertex 43.0732 12.9943 0
    endloop
  endfacet
  facet normal 0.653173 0.757208 -0
    outer loop
      vertex 34.1084 18.9844 0
      vertex 32.0643 20.7477 1
      vertex 34.1084 18.9844 1
    endloop
  endfacet
  facet normal 0.653173 0.757208 0
    outer loop
      vertex 32.0643 20.7477 1
      vertex 34.1084 18.9844 0
      vertex 32.0643 20.7477 0
    endloop
  endfacet
  facet normal 0.99729 0.0735643 0
    outer loop
      vertex 14.2648 56.1091 1
      vertex 14.0663 58.8013 0
      vertex 14.0663 58.8013 1
    endloop
  endfacet
  facet normal 0.99729 0.0735643 0
    outer loop
      vertex 14.0663 58.8013 0
      vertex 14.2648 56.1091 1
      vertex 14.2648 56.1091 0
    endloop
  endfacet
  facet normal 0.757209 0.653173 0
    outer loop
      vertex 28.2477 24.5643 1
      vertex 26.4844 26.6084 0
      vertex 26.4844 26.6084 1
    endloop
  endfacet
  facet normal 0.757209 0.653173 0
    outer loop
      vertex 26.4844 26.6084 0
      vertex 28.2477 24.5643 1
      vertex 28.2477 24.5643 0
    endloop
  endfacet
  facet normal -0.997291 -0.0735628 0
    outer loop
      vertex 123.934 64.1987 0
      vertex 123.735 66.8909 1
      vertex 123.735 66.8909 0
    endloop
  endfacet
  facet normal -0.997291 -0.0735628 0
    outer loop
      vertex 123.735 66.8909 1
      vertex 123.934 64.1987 0
      vertex 123.934 64.1987 1
    endloop
  endfacet
  facet normal -0.949529 -0.31368 0
    outer loop
      vertex 121.632 77.4657 0
      vertex 120.785 80.0289 1
      vertex 120.785 80.0289 0
    endloop
  endfacet
  facet normal -0.949529 -0.31368 0
    outer loop
      vertex 120.785 80.0289 1
      vertex 121.632 77.4657 0
      vertex 121.632 77.4657 1
    endloop
  endfacet
  facet normal 0.999699 -0.0245416 0
    outer loop
      vertex 14 61.5 1
      vertex 14.0663 64.1987 0
      vertex 14.0663 64.1987 1
    endloop
  endfacet
  facet normal 0.999699 -0.0245416 0
    outer loop
      vertex 14.0663 64.1987 0
      vertex 14 61.5 1
      vertex 14 61.5 0
    endloop
  endfacet
  facet normal 0.932993 -0.359895 0
    outer loop
      vertex 17.2151 80.0289 1
      vertex 17.9754 82 0
      vertex 17.9754 82 1
    endloop
  endfacet
  facet normal 0.932993 -0.359895 0
    outer loop
      vertex 17.9754 82 0
      vertex 17.2151 80.0289 1
      vertex 17.2151 80.0289 0
    endloop
  endfacet
  facet normal 0.949528 -0.313682 0
    outer loop
      vertex 16.3683 77.4657 1
      vertex 17.2151 80.0289 0
      vertex 17.2151 80.0289 1
    endloop
  endfacet
  facet normal 0.949528 -0.313682 0
    outer loop
      vertex 17.2151 80.0289 0
      vertex 16.3683 77.4657 1
      vertex 16.3683 77.4657 0
    endloop
  endfacet
  facet normal 0.963776 -0.266712 0
    outer loop
      vertex 15.6483 74.8639 1
      vertex 16.3683 77.4657 0
      vertex 16.3683 77.4657 1
    endloop
  endfacet
  facet normal 0.963776 -0.266712 0
    outer loop
      vertex 16.3683 77.4657 0
      vertex 15.6483 74.8639 1
      vertex 15.6483 74.8639 0
    endloop
  endfacet
  facet normal 0.985278 -0.170962 0
    outer loop
      vertex 14.5953 69.5702 1
      vertex 15.0568 72.23 0
      vertex 15.0568 72.23 1
    endloop
  endfacet
  facet normal 0.985278 -0.170962 0
    outer loop
      vertex 15.0568 72.23 0
      vertex 14.5953 69.5702 1
      vertex 14.5953 69.5702 0
    endloop
  endfacet
  facet normal -0.999699 -0.0245426 0
    outer loop
      vertex 124 61.5 0
      vertex 123.934 64.1987 1
      vertex 123.934 64.1987 0
    endloop
  endfacet
  facet normal -0.999699 -0.0245426 0
    outer loop
      vertex 123.934 64.1987 1
      vertex 124 61.5 0
      vertex 124 61.5 1
    endloop
  endfacet
  facet normal -0.997291 0.0735629 0
    outer loop
      vertex 123.735 56.1091 0
      vertex 123.934 58.8013 1
      vertex 123.934 58.8013 0
    endloop
  endfacet
  facet normal -0.997291 0.0735629 0
    outer loop
      vertex 123.934 58.8013 1
      vertex 123.735 56.1091 0
      vertex 123.735 56.1091 1
    endloop
  endfacet
  facet normal -0.0245416 0.999699 0
    outer loop
      vertex 71.6987 6.56625 0
      vertex 69 6.5 1
      vertex 71.6987 6.56625 1
    endloop
  endfacet
  facet normal -0.0245416 0.999699 0
    outer loop
      vertex 69 6.5 1
      vertex 71.6987 6.56625 0
      vertex 69 6.5 0
    endloop
  endfacet
  facet normal -0.975702 0.219103 0
    outer loop
      vertex 122.352 48.1361 0
      vertex 122.943 50.77 1
      vertex 122.943 50.77 0
    endloop
  endfacet
  facet normal -0.975702 0.219103 0
    outer loop
      vertex 122.943 50.77 1
      vertex 122.352 48.1361 0
      vertex 122.352 48.1361 1
    endloop
  endfacet
  facet normal -0.949529 0.313679 0
    outer loop
      vertex 120.785 42.9711 0
      vertex 121.632 45.5343 1
      vertex 121.632 45.5343 0
    endloop
  endfacet
  facet normal -0.949529 0.313679 0
    outer loop
      vertex 121.632 45.5343 1
      vertex 120.785 42.9711 0
      vertex 120.785 42.9711 1
    endloop
  endfacet
  facet normal -0.788346 0.615233 0
    outer loop
      vertex 111.516 26.6084 0
      vertex 113.176 28.7365 1
      vertex 113.176 28.7365 0
    endloop
  endfacet
  facet normal -0.788346 0.615233 0
    outer loop
      vertex 113.176 28.7365 1
      vertex 111.516 26.6084 0
      vertex 111.516 26.6084 1
    endloop
  endfacet
  facet normal -0.122411 0.99248 0
    outer loop
      vertex 77.0702 7.09529 0
      vertex 74.3909 6.76484 1
      vertex 77.0702 7.09529 1
    endloop
  endfacet
  facet normal -0.122411 0.99248 0
    outer loop
      vertex 74.3909 6.76484 1
      vertex 77.0702 7.09529 0
      vertex 74.3909 6.76484 0
    endloop
  endfacet
  facet normal -0.313682 0.949528 0
    outer loop
      vertex 87.5289 9.71508 0
      vertex 84.9657 8.86828 1
      vertex 87.5289 9.71508 1
    endloop
  endfacet
  facet normal -0.313682 0.949528 0
    outer loop
      vertex 84.9657 8.86828 1
      vertex 87.5289 9.71508 0
      vertex 84.9657 8.86828 0
    endloop
  endfacet
  facet normal -0.359894 0.932993 0
    outer loop
      vertex 90.0476 10.6866 0
      vertex 87.5289 9.71508 1
      vertex 90.0476 10.6866 1
    endloop
  endfacet
  facet normal -0.359894 0.932993 0
    outer loop
      vertex 87.5289 9.71508 1
      vertex 90.0476 10.6866 0
      vertex 87.5289 9.71508 0
    endloop
  endfacet
  facet normal -0.689542 0.724246 0
    outer loop
      vertex 107.891 22.6091 0
      vertex 105.936 20.7477 1
      vertex 107.891 22.6091 1
    endloop
  endfacet
  facet normal -0.689542 0.724246 0
    outer loop
      vertex 105.936 20.7477 1
      vertex 107.891 22.6091 0
      vertex 105.936 20.7477 0
    endloop
  endfacet
  facet normal -0.575809 0.817584 0
    outer loop
      vertex 101.763 17.3236 0
      vertex 99.5564 15.7692 1
      vertex 101.763 17.3236 1
    endloop
  endfacet
  facet normal -0.575809 0.817584 0
    outer loop
      vertex 99.5564 15.7692 1
      vertex 101.763 17.3236 0
      vertex 99.5564 15.7692 0
    endloop
  endfacet
  facet normal -0.492898 0.870087 0
    outer loop
      vertex 97.2757 14.3249 0
      vertex 94.9268 12.9943 1
      vertex 97.2757 14.3249 1
    endloop
  endfacet
  facet normal -0.492898 0.870087 0
    outer loop
      vertex 94.9268 12.9943 1
      vertex 97.2757 14.3249 0
      vertex 94.9268 12.9943 0
    endloop
  endfacet
  facet normal -0.405241 0.91421 0
    outer loop
      vertex 92.5155 11.7806 0
      vertex 90.0476 10.6866 1
      vertex 92.5155 11.7806 1
    endloop
  endfacet
  facet normal -0.405241 0.91421 0
    outer loop
      vertex 90.0476 10.6866 1
      vertex 92.5155 11.7806 0
      vertex 90.0476 10.6866 0
    endloop
  endfacet
  facet normal -0.534997 0.844854 0
    outer loop
      vertex 99.5564 15.7692 0
      vertex 97.2757 14.3249 1
      vertex 99.5564 15.7692 1
    endloop
  endfacet
  facet normal -0.534997 0.844854 0
    outer loop
      vertex 97.2757 14.3249 1
      vertex 99.5564 15.7692 0
      vertex 97.2757 14.3249 0
    endloop
  endfacet
  facet normal 0.0245416 0.999699 -0
    outer loop
      vertex 69 6.5 0
      vertex 66.3013 6.56625 1
      vertex 69 6.5 1
    endloop
  endfacet
  facet normal 0.0245416 0.999699 0
    outer loop
      vertex 66.3013 6.56625 1
      vertex 69 6.5 0
      vertex 66.3013 6.56625 0
    endloop
  endfacet
  facet normal 0.359895 0.932993 -0
    outer loop
      vertex 50.4711 9.71508 0
      vertex 47.9524 10.6866 1
      vertex 50.4711 9.71508 1
    endloop
  endfacet
  facet normal 0.359895 0.932993 0
    outer loop
      vertex 47.9524 10.6866 1
      vertex 50.4711 9.71508 0
      vertex 47.9524 10.6866 0
    endloop
  endfacet
  facet normal 0.313681 0.949528 -0
    outer loop
      vertex 53.0343 8.86828 0
      vertex 50.4711 9.71508 1
      vertex 53.0343 8.86828 1
    endloop
  endfacet
  facet normal 0.313681 0.949528 0
    outer loop
      vertex 50.4711 9.71508 1
      vertex 53.0343 8.86828 0
      vertex 50.4711 9.71508 0
    endloop
  endfacet
  facet normal 0.266713 0.963776 -0
    outer loop
      vertex 55.6361 8.14828 0
      vertex 53.0343 8.86828 1
      vertex 55.6361 8.14828 1
    endloop
  endfacet
  facet normal 0.266713 0.963776 0
    outer loop
      vertex 53.0343 8.86828 1
      vertex 55.6361 8.14828 0
      vertex 53.0343 8.86828 0
    endloop
  endfacet
  facet normal 0.170962 0.985278 -0
    outer loop
      vertex 60.9298 7.09529 0
      vertex 58.27 7.55681 1
      vertex 60.9298 7.09529 1
    endloop
  endfacet
  facet normal 0.170962 0.985278 0
    outer loop
      vertex 58.27 7.55681 1
      vertex 60.9298 7.09529 0
      vertex 58.27 7.55681 0
    endloop
  endfacet
  facet normal 0.405241 0.91421 -0
    outer loop
      vertex 47.9524 10.6866 0
      vertex 45.4845 11.7806 1
      vertex 47.9524 10.6866 1
    endloop
  endfacet
  facet normal 0.405241 0.91421 0
    outer loop
      vertex 45.4845 11.7806 1
      vertex 47.9524 10.6866 0
      vertex 45.4845 11.7806 0
    endloop
  endfacet
  facet normal 0.534997 0.844854 -0
    outer loop
      vertex 40.7243 14.3249 0
      vertex 38.4436 15.7692 1
      vertex 40.7243 14.3249 1
    endloop
  endfacet
  facet normal 0.534997 0.844854 0
    outer loop
      vertex 38.4436 15.7692 1
      vertex 40.7243 14.3249 0
      vertex 38.4436 15.7692 0
    endloop
  endfacet
  facet normal 0.615231 0.788347 -0
    outer loop
      vertex 36.2365 17.3236 0
      vertex 34.1084 18.9844 1
      vertex 36.2365 17.3236 1
    endloop
  endfacet
  facet normal 0.615231 0.788347 0
    outer loop
      vertex 34.1084 18.9844 1
      vertex 36.2365 17.3236 0
      vertex 34.1084 18.9844 0
    endloop
  endfacet
  facet normal 0.68954 0.724247 -0
    outer loop
      vertex 32.0643 20.7477 0
      vertex 30.1091 22.6091 1
      vertex 32.0643 20.7477 1
    endloop
  endfacet
  facet normal 0.68954 0.724247 0
    outer loop
      vertex 30.1091 22.6091 1
      vertex 32.0643 20.7477 0
      vertex 30.1091 22.6091 0
    endloop
  endfacet
  facet normal 0.99248 0.122411 0
    outer loop
      vertex 14.5953 53.4298 1
      vertex 14.2648 56.1091 0
      vertex 14.2648 56.1091 1
    endloop
  endfacet
  facet normal 0.99248 0.122411 0
    outer loop
      vertex 14.2648 56.1091 0
      vertex 14.5953 53.4298 1
      vertex 14.5953 53.4298 0
    endloop
  endfacet
  facet normal 0.999699 0.0245416 0
    outer loop
      vertex 14.0663 58.8013 1
      vertex 14 61.5 0
      vertex 14 61.5 1
    endloop
  endfacet
  facet normal 0.999699 0.0245416 0
    outer loop
      vertex 14 61.5 0
      vertex 14.0663 58.8013 1
      vertex 14.0663 58.8013 0
    endloop
  endfacet
  facet normal 0 0 -1
    outer loop
      vertex 123.405 53.4298 0
      vertex 160 90 0
      vertex 160 0 0
    endloop
  endfacet
  facet normal 0 0 -1
    outer loop
      vertex 160 90 0
      vertex 123.934 58.8013 0
      vertex 124 61.5 0
    endloop
  endfacet
  facet normal 0 0 -1
    outer loop
      vertex 160 90 0
      vertex 123.735 56.1091 0
      vertex 123.934 58.8013 0
    endloop
  endfacet
  facet normal 0 0 -1
    outer loop
      vertex 160 90 0
      vertex 123.405 53.4298 0
      vertex 123.735 56.1091 0
    endloop
  endfacet
  facet normal 0 0 -1
    outer loop
      vertex 160 0 0
      vertex 122.943 50.77 0
      vertex 123.405 53.4298 0
    endloop
  endfacet
  facet normal 0 0 -1
    outer loop
      vertex 160 0 0
      vertex 122.352 48.1361 0
      vertex 122.943 50.77 0
    endloop
  endfacet
  facet normal 0 0 -1
    outer loop
      vertex 160 0 0
      vertex 121.632 45.5343 0
      vertex 122.352 48.1361 0
    endloop
  endfacet
  facet normal 0 0 -1
    outer loop
      vertex 160 0 0
      vertex 120.785 42.9711 0
      vertex 121.632 45.5343 0
    endloop
  endfacet
  facet normal 0 0 -1
    outer loop
      vertex 160 0 0
      vertex 119.813 40.4524 0
      vertex 120.785 42.9711 0
    endloop
  endfacet
  facet normal 0 0 -1
    outer loop
      vertex 160 0 0
      vertex 118.719 37.9845 0
      vertex 119.813 40.4524 0
    endloop
  endfacet
  facet normal 0 0 -1
    outer loop
      vertex 160 0 0
      vertex 117.506 35.5732 0
      vertex 118.719 37.9845 0
    endloop
  endfacet
  facet normal 0 0 -1
    outer loop
      vertex 160 0 0
      vertex 116.175 33.2243 0
      vertex 117.506 35.5732 0
    endloop
  endfacet
  facet normal 0 0 -1
    outer loop
      vertex 160 0 0
      vertex 114.731 30.9436 0
      vertex 116.175 33.2243 0
    endloop
  endfacet
  facet normal 0 0 -1
    outer loop
      vertex 160 0 0
      vertex 113.176 28.7365 0
      vertex 114.731 30.9436 0
    endloop
  endfacet
  facet normal 0 0 -1
    outer loop
      vertex 160 0 0
      vertex 111.516 26.6084 0
      vertex 113.176 28.7365 0
    endloop
  endfacet
  facet normal 0 0 -1
    outer loop
      vertex 160 0 0
      vertex 109.752 24.5643 0
      vertex 111.516 26.6084 0
    endloop
  endfacet
  facet normal 0 0 -1
    outer loop
      vertex 160 0 0
      vertex 107.891 22.6091 0
      vertex 109.752 24.5643 0
    endloop
  endfacet
  facet normal 0 0 -1
    outer loop
      vertex 160 0 0
      vertex 105.936 20.7477 0
      vertex 107.891 22.6091 0
    endloop
  endfacet
  facet normal 0 0 -1
    outer loop
      vertex 160 0 0
      vertex 103.892 18.9844 0
      vertex 105.936 20.7477 0
    endloop
  endfacet
  facet normal 0 0 -1
    outer loop
      vertex 160 0 0
      vertex 101.763 17.3236 0
      vertex 103.892 18.9844 0
    endloop
  endfacet
  facet normal 0 0 -1
    outer loop
      vertex 160 0 0
      vertex 99.5564 15.7692 0
      vertex 101.763 17.3236 0
    endloop
  endfacet
  facet normal 0 0 -1
    outer loop
      vertex 160 0 0
      vertex 97.2757 14.3249 0
      vertex 99.5564 15.7692 0
    endloop
  endfacet
  facet normal 0 0 -1
    outer loop
      vertex 160 0 0
      vertex 94.9268 12.9943 0
      vertex 97.2757 14.3249 0
    endloop
  endfacet
  facet normal 0 0 -1
    outer loop
      vertex 160 0 0
      vertex 92.5155 11.7806 0
      vertex 94.9268 12.9943 0
    endloop
  endfacet
  facet normal 0 0 -1
    outer loop
      vertex 160 0 0
      vertex 90.0476 10.6866 0
      vertex 92.5155 11.7806 0
    endloop
  endfacet
  facet normal 0 0 -1
    outer loop
      vertex 160 0 0
      vertex 87.5289 9.71508 0
      vertex 90.0476 10.6866 0
    endloop
  endfacet
  facet normal 0 0 -1
    outer loop
      vertex 160 0 0
      vertex 84.9657 8.86828 0
      vertex 87.5289 9.71508 0
    endloop
  endfacet
  facet normal 0 0 -1
    outer loop
      vertex 160 0 0
      vertex 82.3639 8.14828 0
      vertex 84.9657 8.86828 0
    endloop
  endfacet
  facet normal 0 0 -1
    outer loop
      vertex 160 0 0
      vertex 79.73 7.55681 0
      vertex 82.3639 8.14828 0
    endloop
  endfacet
  facet normal 0 0 -1
    outer loop
      vertex 160 0 0
      vertex 77.0702 7.09529 0
      vertex 79.73 7.55681 0
    endloop
  endfacet
  facet normal 0 0 -1
    outer loop
      vertex 160 0 0
      vertex 74.3909 6.76484 0
      vertex 77.0702 7.09529 0
    endloop
  endfacet
  facet normal 0 0 -1
    outer loop
      vertex 160 0 0
      vertex 71.6987 6.56625 0
      vertex 74.3909 6.76484 0
    endloop
  endfacet
  facet normal 0 0 -1
    outer loop
      vertex 160 0 0
      vertex 69 6.5 0
      vertex 71.6987 6.56625 0
    endloop
  endfacet
  facet normal 0 0 -1
    outer loop
      vertex 0 0 0
      vertex 69 6.5 0
      vertex 160 0 0
    endloop
  endfacet
  facet normal 0 0 -1
    outer loop
      vertex 14.2648 56.1091 0
      vertex 0 90 0
      vertex 14.0663 58.8013 0
    endloop
  endfacet
  facet normal 0 0 -1
    outer loop
      vertex 0 90 0
      vertex 14.2648 56.1091 0
      vertex 0 0 0
    endloop
  endfacet
  facet normal -0 0 -1
    outer loop
      vertex 14.5953 53.4298 0
      vertex 0 0 0
      vertex 14.2648 56.1091 0
    endloop
  endfacet
  facet normal -0 0 -1
    outer loop
      vertex 15.0568 50.77 0
      vertex 0 0 0
      vertex 14.5953 53.4298 0
    endloop
  endfacet
  facet normal -0 0 -1
    outer loop
      vertex 15.6483 48.1361 0
      vertex 0 0 0
      vertex 15.0568 50.77 0
    endloop
  endfacet
  facet normal -0 0 -1
    outer loop
      vertex 16.3683 45.5343 0
      vertex 0 0 0
      vertex 15.6483 48.1361 0
    endloop
  endfacet
  facet normal -0 0 -1
    outer loop
      vertex 17.2151 42.9711 0
      vertex 0 0 0
      vertex 16.3683 45.5343 0
    endloop
  endfacet
  facet normal -0 0 -1
    outer loop
      vertex 18.1866 40.4524 0
      vertex 0 0 0
      vertex 17.2151 42.9711 0
    endloop
  endfacet
  facet normal -0 0 -1
    outer loop
      vertex 19.2806 37.9845 0
      vertex 0 0 0
      vertex 18.1866 40.4524 0
    endloop
  endfacet
  facet normal -0 0 -1
    outer loop
      vertex 20.4943 35.5732 0
      vertex 0 0 0
      vertex 19.2806 37.9845 0
    endloop
  endfacet
  facet normal -0 0 -1
    outer loop
      vertex 21.8249 33.2243 0
      vertex 0 0 0
      vertex 20.4943 35.5732 0
    endloop
  endfacet
  facet normal -0 0 -1
    outer loop
      vertex 23.2692 30.9436 0
      vertex 0 0 0
      vertex 21.8249 33.2243 0
    endloop
  endfacet
  facet normal -0 0 -1
    outer loop
      vertex 24.8236 28.7365 0
      vertex 0 0 0
      vertex 23.2692 30.9436 0
    endloop
  endfacet
  facet normal -0 0 -1
    outer loop
      vertex 26.4844 26.6084 0
      vertex 0 0 0
      vertex 24.8236 28.7365 0
    endloop
  endfacet
  facet normal -0 0 -1
    outer loop
      vertex 28.2477 24.5643 0
      vertex 0 0 0
      vertex 26.4844 26.6084 0
    endloop
  endfacet
  facet normal -0 0 -1
    outer loop
      vertex 30.1091 22.6091 0
      vertex 0 0 0
      vertex 28.2477 24.5643 0
    endloop
  endfacet
  facet normal -0 0 -1
    outer loop
      vertex 32.0643 20.7477 0
      vertex 0 0 0
      vertex 30.1091 22.6091 0
    endloop
  endfacet
  facet normal -0 0 -1
    outer loop
      vertex 34.1084 18.9844 0
      vertex 0 0 0
      vertex 32.0643 20.7477 0
    endloop
  endfacet
  facet normal -0 0 -1
    outer loop
      vertex 36.2365 17.3236 0
      vertex 0 0 0
      vertex 34.1084 18.9844 0
    endloop
  endfacet
  facet normal -0 0 -1
    outer loop
      vertex 38.4436 15.7692 0
      vertex 0 0 0
      vertex 36.2365 17.3236 0
    endloop
  endfacet
  facet normal -0 0 -1
    outer loop
      vertex 40.7243 14.3249 0
      vertex 0 0 0
      vertex 38.4436 15.7692 0
    endloop
  endfacet
  facet normal -0 0 -1
    outer loop
      vertex 43.0732 12.9943 0
      vertex 0 0 0
      vertex 40.7243 14.3249 0
    endloop
  endfacet
  facet normal -0 0 -1
    outer loop
      vertex 45.4845 11.7806 0
      vertex 0 0 0
      vertex 43.0732 12.9943 0
    endloop
  endfacet
  facet normal -0 0 -1
    outer loop
      vertex 47.9524 10.6866 0
      vertex 0 0 0
      vertex 45.4845 11.7806 0
    endloop
  endfacet
  facet normal -0 0 -1
    outer loop
      vertex 50.4711 9.71508 0
      vertex 0 0 0
      vertex 47.9524 10.6866 0
    endloop
  endfacet
  facet normal -0 0 -1
    outer loop
      vertex 53.0343 8.86828 0
      vertex 0 0 0
      vertex 50.4711 9.71508 0
    endloop
  endfacet
  facet normal -0 0 -1
    outer loop
      vertex 55.6361 8.14828 0
      vertex 0 0 0
      vertex 53.0343 8.86828 0
    endloop
  endfacet
  facet normal -0 0 -1
    outer loop
      vertex 58.27 7.55681 0
      vertex 0 0 0
      vertex 55.6361 8.14828 0
    endloop
  endfacet
  facet normal -0 0 -1
    outer loop
      vertex 60.9298 7.09529 0
      vertex 0 0 0
      vertex 58.27 7.55681 0
    endloop
  endfacet
  facet normal -0 0 -1
    outer loop
      vertex 63.6091 6.76484 0
      vertex 0 0 0
      vertex 60.9298 7.09529 0
    endloop
  endfacet
  facet normal -0 0 -1
    outer loop
      vertex 66.3013 6.56625 0
      vertex 0 0 0
      vertex 63.6091 6.76484 0
    endloop
  endfacet
  facet normal -0 0 -1
    outer loop
      vertex 69 6.5 0
      vertex 0 0 0
      vertex 66.3013 6.56625 0
    endloop
  endfacet
  facet normal 0 0 -1
    outer loop
      vertex 123.934 64.1987 0
      vertex 160 90 0
      vertex 124 61.5 0
    endloop
  endfacet
  facet normal 0 0 -1
    outer loop
      vertex 123.735 66.8909 0
      vertex 160 90 0
      vertex 123.934 64.1987 0
    endloop
  endfacet
  facet normal 0 0 -1
    outer loop
      vertex 123.405 69.5702 0
      vertex 160 90 0
      vertex 123.735 66.8909 0
    endloop
  endfacet
  facet normal 0 0 -1
    outer loop
      vertex 122.943 72.23 0
      vertex 160 90 0
      vertex 123.405 69.5702 0
    endloop
  endfacet
  facet normal 0 0 -1
    outer loop
      vertex 122.352 74.8639 0
      vertex 160 90 0
      vertex 122.943 72.23 0
    endloop
  endfacet
  facet normal 0 0 -1
    outer loop
      vertex 121.632 77.4657 0
      vertex 160 90 0
      vertex 122.352 74.8639 0
    endloop
  endfacet
  facet normal 0 0 -1
    outer loop
      vertex 120.785 80.0289 0
      vertex 160 90 0
      vertex 121.632 77.4657 0
    endloop
  endfacet
  facet normal 0 0 -1
    outer loop
      vertex 120.025 82 0
      vertex 160 90 0
      vertex 120.785 80.0289 0
    endloop
  endfacet
  facet normal 0 0 -1
    outer loop
      vertex 0 90 0
      vertex 120.025 82 0
      vertex 17.9754 82 0
    endloop
  endfacet
  facet normal 0 0 -1
    outer loop
      vertex 14.0663 58.8013 0
      vertex 0 90 0
      vertex 14 61.5 0
    endloop
  endfacet
  facet normal 0 0 -1
    outer loop
      vertex 14 61.5 0
      vertex 0 90 0
      vertex 14.0663 64.1987 0
    endloop
  endfacet
  facet normal 0 0 -1
    outer loop
      vertex 14.0663 64.1987 0
      vertex 0 90 0
      vertex 14.2648 66.8909 0
    endloop
  endfacet
  facet normal 0 0 -1
    outer loop
      vertex 14.2648 66.8909 0
      vertex 0 90 0
      vertex 14.5953 69.5702 0
    endloop
  endfacet
  facet normal 0 0 -1
    outer loop
      vertex 120.025 82 0
      vertex 0 90 0
      vertex 160 90 0
    endloop
  endfacet
  facet normal 0 0 -1
    outer loop
      vertex 17.2151 80.0289 0
      vertex 0 90 0
      vertex 17.9754 82 0
    endloop
  endfacet
  facet normal 0 0 -1
    outer loop
      vertex 16.3683 77.4657 0
      vertex 0 90 0
      vertex 17.2151 80.0289 0
    endloop
  endfacet
  facet normal 0 0 -1
    outer loop
      vertex 15.6483 74.8639 0
      vertex 0 90 0
      vertex 16.3683 77.4657 0
    endloop
  endfacet
  facet normal 0 0 -1
    outer loop
      vertex 15.0568 72.23 0
      vertex 0 90 0
      vertex 15.6483 74.8639 0
    endloop
  endfacet
  facet normal 0 0 -1
    outer loop
      vertex 14.5953 69.5702 0
      vertex 0 90 0
      vertex 15.0568 72.23 0
    endloop
  endfacet
  facet normal 0.949528 0.313681 0
    outer loop
      vertex 17.2151 42.9711 1
      vertex 16.3683 45.5343 0
      vertex 16.3683 45.5343 1
    endloop
  endfacet
  facet normal 0.949528 0.313681 0
    outer loop
      vertex 16.3683 45.5343 0
      vertex 17.2151 42.9711 1
      vertex 17.2151 42.9711 0
    endloop
  endfacet
  facet normal 0.975702 0.219101 0
    outer loop
      vertex 15.6483 48.1361 1
      vertex 15.0568 50.77 0
      vertex 15.0568 50.77 1
    endloop
  endfacet
  facet normal 0.975702 0.219101 0
    outer loop
      vertex 15.0568 50.77 0
      vertex 15.6483 48.1361 1
      vertex 15.6483 48.1361 0
    endloop
  endfacet
  facet normal 0.870087 0.492898 0
    outer loop
      vertex 21.8249 33.2243 1
      vertex 20.4943 35.5732 0
      vertex 20.4943 35.5732 1
    endloop
  endfacet
  facet normal 0.870087 0.492898 0
    outer loop
      vertex 20.4943 35.5732 0
      vertex 21.8249 33.2243 1
      vertex 21.8249 33.2243 0
    endloop
  endfacet
  facet normal 0.724247 0.68954 0
    outer loop
      vertex 30.1091 22.6091 1
      vertex 28.2477 24.5643 0
      vertex 28.2477 24.5643 1
    endloop
  endfacet
  facet normal 0.724247 0.68954 0
    outer loop
      vertex 28.2477 24.5643 0
      vertex 30.1091 22.6091 1
      vertex 30.1091 22.6091 0
    endloop
  endfacet
  facet normal 0.817585 0.575808 0
    outer loop
      vertex 24.8236 28.7365 1
      vertex 23.2692 30.9436 0
      vertex 23.2692 30.9436 1
    endloop
  endfacet
  facet normal 0.817585 0.575808 0
    outer loop
      vertex 23.2692 30.9436 0
      vertex 24.8236 28.7365 1
      vertex 24.8236 28.7365 0
    endloop
  endfacet
  facet normal -0.975702 -0.219103 0
    outer loop
      vertex 122.943 72.23 0
      vertex 122.352 74.8639 1
      vertex 122.352 74.8639 0
    endloop
  endfacet
  facet normal -0.975702 -0.219103 0
    outer loop
      vertex 122.352 74.8639 1
      vertex 122.943 72.23 0
      vertex 122.943 72.23 1
    endloop
  endfacet
  facet normal -0.985278 -0.170962 0
    outer loop
      vertex 123.405 69.5702 0
      vertex 122.943 72.23 1
      vertex 122.943 72.23 0
    endloop
  endfacet
  facet normal -0.985278 -0.170962 0
    outer loop
      vertex 122.943 72.23 1
      vertex 123.405 69.5702 0
      vertex 123.405 69.5702 1
    endloop
  endfacet
  facet normal -0.932993 -0.359895 0
    outer loop
      vertex 120.785 80.0289 0
      vertex 120.025 82 1
      vertex 120.025 82 0
    endloop
  endfacet
  facet normal -0.932993 -0.359895 0
    outer loop
      vertex 120.025 82 1
      vertex 120.785 80.0289 0
      vertex 120.785 80.0289 1
    endloop
  endfacet
  facet normal 0.99729 -0.0735642 0
    outer loop
      vertex 14.0663 64.1987 1
      vertex 14.2648 66.8909 0
      vertex 14.2648 66.8909 1
    endloop
  endfacet
  facet normal 0.99729 -0.0735642 0
    outer loop
      vertex 14.2648 66.8909 0
      vertex 14.0663 64.1987 1
      vertex 14.0663 64.1987 0
    endloop
  endfacet
  facet normal -0.99248 0.122411 0
    outer loop
      vertex 123.405 53.4298 0
      vertex 123.735 56.1091 1
      vertex 123.735 56.1091 0
    endloop
  endfacet
  facet normal -0.99248 0.122411 0
    outer loop
      vertex 123.735 56.1091 1
      vertex 123.405 53.4298 0
      vertex 123.405 53.4298 1
    endloop
  endfacet
  facet normal -0.844854 0.534997 0
    outer loop
      vertex 114.731 30.9436 0
      vertex 116.175 33.2243 1
      vertex 116.175 33.2243 0
    endloop
  endfacet
  facet normal -0.844854 0.534997 0
    outer loop
      vertex 116.175 33.2243 1
      vertex 114.731 30.9436 0
      vertex 114.731 30.9436 1
    endloop
  endfacet
  facet normal -0.893224 0.449613 0
    outer loop
      vertex 117.506 35.5732 0
      vertex 118.719 37.9845 1
      vertex 118.719 37.9845 0
    endloop
  endfacet
  facet normal -0.893224 0.449613 0
    outer loop
      vertex 118.719 37.9845 1
      vertex 117.506 35.5732 0
      vertex 117.506 35.5732 1
    endloop
  endfacet
  facet normal -0.914211 0.405239 0
    outer loop
      vertex 118.719 37.9845 0
      vertex 119.813 40.4524 1
      vertex 119.813 40.4524 0
    endloop
  endfacet
  facet normal -0.914211 0.405239 0
    outer loop
      vertex 119.813 40.4524 1
      vertex 118.719 37.9845 0
      vertex 118.719 37.9845 1
    endloop
  endfacet
  facet normal -0.724247 0.689541 0
    outer loop
      vertex 107.891 22.6091 0
      vertex 109.752 24.5643 1
      vertex 109.752 24.5643 0
    endloop
  endfacet
  facet normal -0.724247 0.689541 0
    outer loop
      vertex 109.752 24.5643 1
      vertex 107.891 22.6091 0
      vertex 107.891 22.6091 1
    endloop
  endfacet
  facet normal -0.757209 0.653172 0
    outer loop
      vertex 109.752 24.5643 0
      vertex 111.516 26.6084 1
      vertex 111.516 26.6084 0
    endloop
  endfacet
  facet normal -0.757209 0.653172 0
    outer loop
      vertex 111.516 26.6084 1
      vertex 109.752 24.5643 0
      vertex 109.752 24.5643 1
    endloop
  endfacet
  facet normal -0.170962 0.985278 0
    outer loop
      vertex 79.73 7.55681 0
      vertex 77.0702 7.09529 1
      vertex 79.73 7.55681 1
    endloop
  endfacet
  facet normal -0.170962 0.985278 0
    outer loop
      vertex 77.0702 7.09529 1
      vertex 79.73 7.55681 0
      vertex 77.0702 7.09529 0
    endloop
  endfacet
  facet normal -0.0735642 0.99729 0
    outer loop
      vertex 74.3909 6.76484 0
      vertex 71.6987 6.56625 1
      vertex 74.3909 6.76484 1
    endloop
  endfacet
  facet normal -0.0735642 0.99729 0
    outer loop
      vertex 71.6987 6.56625 1
      vertex 74.3909 6.76484 0
      vertex 71.6987 6.56625 0
    endloop
  endfacet
  facet normal -0.266712 0.963776 0
    outer loop
      vertex 84.9657 8.86828 0
      vertex 82.3639 8.14828 1
      vertex 84.9657 8.86828 1
    endloop
  endfacet
  facet normal -0.266712 0.963776 0
    outer loop
      vertex 82.3639 8.14828 1
      vertex 84.9657 8.86828 0
      vertex 82.3639 8.14828 0
    endloop
  endfacet
  facet normal -0.615231 0.788347 0
    outer loop
      vertex 103.892 18.9844 0
      vertex 101.763 17.3236 1
      vertex 103.892 18.9844 1
    endloop
  endfacet
  facet normal -0.615231 0.788347 0
    outer loop
      vertex 101.763 17.3236 1
      vertex 103.892 18.9844 0
      vertex 101.763 17.3236 0
    endloop
  endfacet
  facet normal -0.449612 0.893224 0
    outer loop
      vertex 94.9268 12.9943 0
      vertex 92.5155 11.7806 1
      vertex 94.9268 12.9943 1
    endloop
  endfacet
  facet normal -0.449612 0.893224 0
    outer loop
      vertex 92.5155 11.7806 1
      vertex 94.9268 12.9943 0
      vertex 92.5155 11.7806 0
    endloop
  endfacet
  facet normal 0.219101 0.975702 -0
    outer loop
      vertex 58.27 7.55681 0
      vertex 55.6361 8.14828 1
      vertex 58.27 7.55681 1
    endloop
  endfacet
  facet normal 0.219101 0.975702 0
    outer loop
      vertex 55.6361 8.14828 1
      vertex 58.27 7.55681 0
      vertex 55.6361 8.14828 0
    endloop
  endfacet
  facet normal 0.122411 0.99248 -0
    outer loop
      vertex 63.6091 6.76484 0
      vertex 60.9298 7.09529 1
      vertex 63.6091 6.76484 1
    endloop
  endfacet
  facet normal 0.122411 0.99248 0
    outer loop
      vertex 60.9298 7.09529 1
      vertex 63.6091 6.76484 0
      vertex 60.9298 7.09529 0
    endloop
  endfacet
  facet normal 0.492898 0.870087 -0
    outer loop
      vertex 43.0732 12.9943 0
      vertex 40.7243 14.3249 1
      vertex 43.0732 12.9943 1
    endloop
  endfacet
  facet normal 0.492898 0.870087 0
    outer loop
      vertex 40.7243 14.3249 1
      vertex 43.0732 12.9943 0
      vertex 40.7243 14.3249 0
    endloop
  endfacet
  facet normal 0.575808 0.817585 -0
    outer loop
      vertex 38.4436 15.7692 0
      vertex 36.2365 17.3236 1
      vertex 38.4436 15.7692 1
    endloop
  endfacet
  facet normal 0.575808 0.817585 0
    outer loop
      vertex 36.2365 17.3236 1
      vertex 38.4436 15.7692 0
      vertex 36.2365 17.3236 0
    endloop
  endfacet
  facet normal 0.985278 0.170962 0
    outer loop
      vertex 15.0568 50.77 1
      vertex 14.5953 53.4298 0
      vertex 14.5953 53.4298 1
    endloop
  endfacet
  facet normal 0.985278 0.170962 0
    outer loop
      vertex 14.5953 53.4298 0
      vertex 15.0568 50.77 1
      vertex 15.0568 50.77 0
    endloop
  endfacet
  facet normal 0.963776 0.266713 0
    outer loop
      vertex 16.3683 45.5343 1
      vertex 15.6483 48.1361 0
      vertex 15.6483 48.1361 1
    endloop
  endfacet
  facet normal 0.963776 0.266713 0
    outer loop
      vertex 15.6483 48.1361 0
      vertex 16.3683 45.5343 1
      vertex 16.3683 45.5343 0
    endloop
  endfacet
  facet normal 0.932993 0.359895 0
    outer loop
      vertex 18.1866 40.4524 1
      vertex 17.2151 42.9711 0
      vertex 17.2151 42.9711 1
    endloop
  endfacet
  facet normal 0.932993 0.359895 0
    outer loop
      vertex 17.2151 42.9711 0
      vertex 18.1866 40.4524 1
      vertex 18.1866 40.4524 0
    endloop
  endfacet
  facet normal 0.893224 0.449611 0
    outer loop
      vertex 20.4943 35.5732 1
      vertex 19.2806 37.9845 0
      vertex 19.2806 37.9845 1
    endloop
  endfacet
  facet normal 0.893224 0.449611 0
    outer loop
      vertex 19.2806 37.9845 0
      vertex 20.4943 35.5732 1
      vertex 20.4943 35.5732 0
    endloop
  endfacet
  facet normal 0.844854 0.534997 0
    outer loop
      vertex 23.2692 30.9436 1
      vertex 21.8249 33.2243 0
      vertex 21.8249 33.2243 1
    endloop
  endfacet
  facet normal 0.844854 0.534997 0
    outer loop
      vertex 21.8249 33.2243 0
      vertex 23.2692 30.9436 1
      vertex 23.2692 30.9436 0
    endloop
  endfacet
  facet normal 0.788346 0.615232 0
    outer loop
      vertex 26.4844 26.6084 1
      vertex 24.8236 28.7365 0
      vertex 24.8236 28.7365 1
    endloop
  endfacet
  facet normal 0.788346 0.615232 0
    outer loop
      vertex 24.8236 28.7365 0
      vertex 26.4844 26.6084 1
      vertex 26.4844 26.6084 0
    endloop
  endfacet
  facet normal -0.99248 -0.122411 0
    outer loop
      vertex 123.735 66.8909 0
      vertex 123.405 69.5702 1
      vertex 123.405 69.5702 0
    endloop
  endfacet
  facet normal -0.99248 -0.122411 0
    outer loop
      vertex 123.405 69.5702 1
      vertex 123.735 66.8909 0
      vertex 123.735 66.8909 1
    endloop
  endfacet
  facet normal -0.963776 0.266713 0
    outer loop
      vertex 121.632 45.5343 0
      vertex 122.352 48.1361 1
      vertex 122.352 48.1361 0
    endloop
  endfacet
  facet normal -0.963776 0.266713 0
    outer loop
      vertex 122.352 48.1361 1
      vertex 121.632 45.5343 0
      vertex 121.632 45.5343 1
    endloop
  endfacet
  facet normal -0.985278 0.170962 0
    outer loop
      vertex 122.943 50.77 0
      vertex 123.405 53.4298 1
      vertex 123.405 53.4298 0
    endloop
  endfacet
  facet normal -0.985278 0.170962 0
    outer loop
      vertex 123.405 53.4298 1
      vertex 122.943 50.77 0
      vertex 122.943 50.77 1
    endloop
  endfacet
  facet normal -0.932992 0.359898 0
    outer loop
      vertex 119.813 40.4524 0
      vertex 120.785 42.9711 1
      vertex 120.785 42.9711 0
    endloop
  endfacet
  facet normal -0.932992 0.359898 0
    outer loop
      vertex 120.785 42.9711 1
      vertex 119.813 40.4524 0
      vertex 119.813 40.4524 1
    endloop
  endfacet
  facet normal -0.817585 0.575808 0
    outer loop
      vertex 113.176 28.7365 0
      vertex 114.731 30.9436 1
      vertex 114.731 30.9436 0
    endloop
  endfacet
  facet normal -0.817585 0.575808 0
    outer loop
      vertex 114.731 30.9436 1
      vertex 113.176 28.7365 0
      vertex 113.176 28.7365 1
    endloop
  endfacet
  facet normal -0.870087 0.492898 0
    outer loop
      vertex 116.175 33.2243 0
      vertex 117.506 35.5732 1
      vertex 117.506 35.5732 0
    endloop
  endfacet
  facet normal -0.870087 0.492898 0
    outer loop
      vertex 117.506 35.5732 1
      vertex 116.175 33.2243 0
      vertex 116.175 33.2243 1
    endloop
  endfacet
  facet normal 0 -1 0
    outer loop
      vertex 17.9754 82 0
      vertex 120.025 82 1
      vertex 17.9754 82 1
    endloop
  endfacet
  facet normal 0 -1 -0
    outer loop
      vertex 120.025 82 1
      vertex 17.9754 82 0
      vertex 120.025 82 0
    endloop
  endfacet
  facet normal -1 0 0
    outer loop
      vertex 0 0 0
      vertex 0 90 37
      vertex 0 90 0
    endloop
  endfacet
  facet normal -1 -0 0
    outer loop
      vertex 0 90 37
      vertex 0 0 0
      vertex 0 0 37
    endloop
  endfacet
  facet normal 0 0 1
    outer loop
      vertex 160 90 37
      vertex 159 89 37
      vertex 160 0 37
    endloop
  endfacet
  facet normal 0 0 1
    outer loop
      vertex 160 90 37
      vertex 1 89 37
      vertex 159 89 37
    endloop
  endfacet
  facet normal 0 0 1
    outer loop
      vertex 1 89 37
      vertex 0 90 37
      vertex 1 1 37
    endloop
  endfacet
  facet normal -0 0 1
    outer loop
      vertex 0 90 37
      vertex 1 89 37
      vertex 160 90 37
    endloop
  endfacet
  facet normal -0 0 1
    outer loop
      vertex 159 1 37
      vertex 160 0 37
      vertex 159 89 37
    endloop
  endfacet
  facet normal -0 0 1
    outer loop
      vertex 1 1 37
      vertex 160 0 37
      vertex 159 1 37
    endloop
  endfacet
  facet normal 0 0 1
    outer loop
      vertex 1 1 37
      vertex 0 0 37
      vertex 160 0 37
    endloop
  endfacet
  facet normal 0 0 1
    outer loop
      vertex 0 0 37
      vertex 1 1 37
      vertex 0 90 37
    endloop
  endfacet
  facet normal 1 -0 0
    outer loop
      vertex 160 0 37
      vertex 160 90 0
      vertex 160 90 37
    endloop
  endfacet
  facet normal 1 0 0
    outer loop
      vertex 160 90 0
      vertex 160 0 37
      vertex 160 0 0
    endloop
  endfacet
  facet normal 0 1 -0
    outer loop
      vertex 160 90 0
      vertex 0 90 37
      vertex 160 90 37
    endloop
  endfacet
  facet normal 0 1 0
    outer loop
      vertex 0 90 37
      vertex 160 90 0
      vertex 0 90 0
    endloop
  endfacet
  facet normal 0 -1 0
    outer loop
      vertex 0 0 0
      vertex 160 0 37
      vertex 0 0 37
    endloop
  endfacet
  facet normal 0 -1 -0
    outer loop
      vertex 160 0 37
      vertex 0 0 0
      vertex 160 0 0
    endloop
  endfacet
  facet normal 1 -0 0
    outer loop
      vertex 1 1 37
      vertex 1 89 1
      vertex 1 89 37
    endloop
  endfacet
  facet normal 1 0 0
    outer loop
      vertex 1 89 1
      vertex 1 1 37
      vertex 1 1 1
    endloop
  endfacet
  facet normal -1 0 0
    outer loop
      vertex 159 1 1
      vertex 159 89 37
      vertex 159 89 1
    endloop
  endfacet
  facet normal -1 -0 0
    outer loop
      vertex 159 89 37
      vertex 159 1 1
      vertex 159 1 37
    endloop
  endfacet
  facet normal 0 -1 0
    outer loop
      vertex 1 89 1
      vertex 159 89 37
      vertex 1 89 37
    endloop
  endfacet
  facet normal 0 -1 -0
    outer loop
      vertex 159 89 37
      vertex 1 89 1
      vertex 159 89 1
    endloop
  endfacet
  facet normal 0 0 1
    outer loop
      vertex 123.934 58.8013 1
      vertex 159 89 1
      vertex 124 61.5 1
    endloop
  endfacet
  facet normal 0 0 1
    outer loop
      vertex 159 89 1
      vertex 123.934 64.1987 1
      vertex 124 61.5 1
    endloop
  endfacet
  facet normal 0 0 1
    outer loop
      vertex 159 89 1
      vertex 123.735 66.8909 1
      vertex 123.934 64.1987 1
    endloop
  endfacet
  facet normal 0 0 1
    outer loop
      vertex 159 89 1
      vertex 123.405 69.5702 1
      vertex 123.735 66.8909 1
    endloop
  endfacet
  facet normal 0 0 1
    outer loop
      vertex 159 89 1
      vertex 122.943 72.23 1
      vertex 123.405 69.5702 1
    endloop
  endfacet
  facet normal 0 0 1
    outer loop
      vertex 159 89 1
      vertex 122.352 74.8639 1
      vertex 122.943 72.23 1
    endloop
  endfacet
  facet normal 0 0 1
    outer loop
      vertex 159 89 1
      vertex 121.632 77.4657 1
      vertex 122.352 74.8639 1
    endloop
  endfacet
  facet normal 0 0 1
    outer loop
      vertex 159 89 1
      vertex 120.785 80.0289 1
      vertex 121.632 77.4657 1
    endloop
  endfacet
  facet normal 0 0 1
    outer loop
      vertex 159 89 1
      vertex 120.025 82 1
      vertex 120.785 80.0289 1
    endloop
  endfacet
  facet normal -0 0 1
    outer loop
      vertex 1 89 1
      vertex 120.025 82 1
      vertex 159 89 1
    endloop
  endfacet
  facet normal 0 0 1
    outer loop
      vertex 14.0663 64.1987 1
      vertex 1 89 1
      vertex 14 61.5 1
    endloop
  endfacet
  facet normal 0 0 1
    outer loop
      vertex 14.2648 66.8909 1
      vertex 1 89 1
      vertex 14.0663 64.1987 1
    endloop
  endfacet
  facet normal 0 0 1
    outer loop
      vertex 14.5953 69.5702 1
      vertex 1 89 1
      vertex 14.2648 66.8909 1
    endloop
  endfacet
  facet normal 0 0 1
    outer loop
      vertex 15.0568 72.23 1
      vertex 1 89 1
      vertex 14.5953 69.5702 1
    endloop
  endfacet
  facet normal 0 0 1
    outer loop
      vertex 15.6483 74.8639 1
      vertex 1 89 1
      vertex 15.0568 72.23 1
    endloop
  endfacet
  facet normal 0 0 1
    outer loop
      vertex 16.3683 77.4657 1
      vertex 1 89 1
      vertex 15.6483 74.8639 1
    endloop
  endfacet
  facet normal 0 0 1
    outer loop
      vertex 17.2151 80.0289 1
      vertex 1 89 1
      vertex 16.3683 77.4657 1
    endloop
  endfacet
  facet normal 0 0 1
    outer loop
      vertex 17.9754 82 1
      vertex 1 89 1
      vertex 17.2151 80.0289 1
    endloop
  endfacet
  facet normal 0 0 1
    outer loop
      vertex 120.025 82 1
      vertex 1 89 1
      vertex 17.9754 82 1
    endloop
  endfacet
  facet normal 0 0 1
    outer loop
      vertex 123.735 56.1091 1
      vertex 159 89 1
      vertex 123.934 58.8013 1
    endloop
  endfacet
  facet normal 0 0 1
    outer loop
      vertex 123.405 53.4298 1
      vertex 159 89 1
      vertex 123.735 56.1091 1
    endloop
  endfacet
  facet normal 0 0 1
    outer loop
      vertex 159 89 1
      vertex 123.405 53.4298 1
      vertex 159 1 1
    endloop
  endfacet
  facet normal -0 0 1
    outer loop
      vertex 122.943 50.77 1
      vertex 159 1 1
      vertex 123.405 53.4298 1
    endloop
  endfacet
  facet normal -0 0 1
    outer loop
      vertex 122.352 48.1361 1
      vertex 159 1 1
      vertex 122.943 50.77 1
    endloop
  endfacet
  facet normal -0 0 1
    outer loop
      vertex 121.632 45.5343 1
      vertex 159 1 1
      vertex 122.352 48.1361 1
    endloop
  endfacet
  facet normal -0 0 1
    outer loop
      vertex 120.785 42.9711 1
      vertex 159 1 1
      vertex 121.632 45.5343 1
    endloop
  endfacet
  facet normal -0 0 1
    outer loop
      vertex 119.813 40.4524 1
      vertex 159 1 1
      vertex 120.785 42.9711 1
    endloop
  endfacet
  facet normal -0 0 1
    outer loop
      vertex 118.719 37.9845 1
      vertex 159 1 1
      vertex 119.813 40.4524 1
    endloop
  endfacet
  facet normal -0 0 1
    outer loop
      vertex 117.506 35.5732 1
      vertex 159 1 1
      vertex 118.719 37.9845 1
    endloop
  endfacet
  facet normal -0 0 1
    outer loop
      vertex 116.175 33.2243 1
      vertex 159 1 1
      vertex 117.506 35.5732 1
    endloop
  endfacet
  facet normal -0 0 1
    outer loop
      vertex 114.731 30.9436 1
      vertex 159 1 1
      vertex 116.175 33.2243 1
    endloop
  endfacet
  facet normal -0 0 1
    outer loop
      vertex 113.176 28.7365 1
      vertex 159 1 1
      vertex 114.731 30.9436 1
    endloop
  endfacet
  facet normal -0 0 1
    outer loop
      vertex 111.516 26.6084 1
      vertex 159 1 1
      vertex 113.176 28.7365 1
    endloop
  endfacet
  facet normal -0 0 1
    outer loop
      vertex 109.752 24.5643 1
      vertex 159 1 1
      vertex 111.516 26.6084 1
    endloop
  endfacet
  facet normal -0 0 1
    outer loop
      vertex 107.891 22.6091 1
      vertex 159 1 1
      vertex 109.752 24.5643 1
    endloop
  endfacet
  facet normal -0 0 1
    outer loop
      vertex 105.936 20.7477 1
      vertex 159 1 1
      vertex 107.891 22.6091 1
    endloop
  endfacet
  facet normal -0 0 1
    outer loop
      vertex 103.892 18.9844 1
      vertex 159 1 1
      vertex 105.936 20.7477 1
    endloop
  endfacet
  facet normal -0 0 1
    outer loop
      vertex 101.763 17.3236 1
      vertex 159 1 1
      vertex 103.892 18.9844 1
    endloop
  endfacet
  facet normal -0 0 1
    outer loop
      vertex 99.5564 15.7692 1
      vertex 159 1 1
      vertex 101.763 17.3236 1
    endloop
  endfacet
  facet normal -0 0 1
    outer loop
      vertex 97.2757 14.3249 1
      vertex 159 1 1
      vertex 99.5564 15.7692 1
    endloop
  endfacet
  facet normal -0 0 1
    outer loop
      vertex 94.9268 12.9943 1
      vertex 159 1 1
      vertex 97.2757 14.3249 1
    endloop
  endfacet
  facet normal -0 0 1
    outer loop
      vertex 92.5155 11.7806 1
      vertex 159 1 1
      vertex 94.9268 12.9943 1
    endloop
  endfacet
  facet normal -0 0 1
    outer loop
      vertex 90.0476 10.6866 1
      vertex 159 1 1
      vertex 92.5155 11.7806 1
    endloop
  endfacet
  facet normal -0 0 1
    outer loop
      vertex 87.5289 9.71508 1
      vertex 159 1 1
      vertex 90.0476 10.6866 1
    endloop
  endfacet
  facet normal -0 0 1
    outer loop
      vertex 84.9657 8.86828 1
      vertex 159 1 1
      vertex 87.5289 9.71508 1
    endloop
  endfacet
  facet normal -0 0 1
    outer loop
      vertex 82.3639 8.14828 1
      vertex 159 1 1
      vertex 84.9657 8.86828 1
    endloop
  endfacet
  facet normal -0 0 1
    outer loop
      vertex 79.73 7.55681 1
      vertex 159 1 1
      vertex 82.3639 8.14828 1
    endloop
  endfacet
  facet normal -0 0 1
    outer loop
      vertex 77.0702 7.09529 1
      vertex 159 1 1
      vertex 79.73 7.55681 1
    endloop
  endfacet
  facet normal -0 0 1
    outer loop
      vertex 74.3909 6.76484 1
      vertex 159 1 1
      vertex 77.0702 7.09529 1
    endloop
  endfacet
  facet normal -0 0 1
    outer loop
      vertex 71.6987 6.56625 1
      vertex 159 1 1
      vertex 74.3909 6.76484 1
    endloop
  endfacet
  facet normal -0 0 1
    outer loop
      vertex 69 6.5 1
      vertex 159 1 1
      vertex 71.6987 6.56625 1
    endloop
  endfacet
  facet normal 0 0 1
    outer loop
      vertex 1 1 1
      vertex 69 6.5 1
      vertex 66.3013 6.56625 1
    endloop
  endfacet
  facet normal 0 0 1
    outer loop
      vertex 1 89 1
      vertex 14.0663 58.8013 1
      vertex 14 61.5 1
    endloop
  endfacet
  facet normal 0 0 1
    outer loop
      vertex 1 89 1
      vertex 14.2648 56.1091 1
      vertex 14.0663 58.8013 1
    endloop
  endfacet
  facet normal 0 0 1
    outer loop
      vertex 1 89 1
      vertex 14.5953 53.4298 1
      vertex 14.2648 56.1091 1
    endloop
  endfacet
  facet normal 0 0 1
    outer loop
      vertex 1 1 1
      vertex 14.5953 53.4298 1
      vertex 1 89 1
    endloop
  endfacet
  facet normal 0 0 1
    outer loop
      vertex 14.5953 53.4298 1
      vertex 1 1 1
      vertex 15.0568 50.77 1
    endloop
  endfacet
  facet normal 0 0 1
    outer loop
      vertex 15.0568 50.77 1
      vertex 1 1 1
      vertex 15.6483 48.1361 1
    endloop
  endfacet
  facet normal 0 0 1
    outer loop
      vertex 15.6483 48.1361 1
      vertex 1 1 1
      vertex 16.3683 45.5343 1
    endloop
  endfacet
  facet normal 0 0 1
    outer loop
      vertex 69 6.5 1
      vertex 1 1 1
      vertex 159 1 1
    endloop
  endfacet
  facet normal 0 0 1
    outer loop
      vertex 63.6091 6.76484 1
      vertex 1 1 1
      vertex 66.3013 6.56625 1
    endloop
  endfacet
  facet normal 0 0 1
    outer loop
      vertex 60.9298 7.09529 1
      vertex 1 1 1
      vertex 63.6091 6.76484 1
    endloop
  endfacet
  facet normal 0 0 1
    outer loop
      vertex 58.27 7.55681 1
      vertex 1 1 1
      vertex 60.9298 7.09529 1
    endloop
  endfacet
  facet normal 0 0 1
    outer loop
      vertex 55.6361 8.14828 1
      vertex 1 1 1
      vertex 58.27 7.55681 1
    endloop
  endfacet
  facet normal 0 0 1
    outer loop
      vertex 53.0343 8.86828 1
      vertex 1 1 1
      vertex 55.6361 8.14828 1
    endloop
  endfacet
  facet normal 0 0 1
    outer loop
      vertex 50.4711 9.71508 1
      vertex 1 1 1
      vertex 53.0343 8.86828 1
    endloop
  endfacet
  facet normal 0 0 1
    outer loop
      vertex 47.9524 10.6866 1
      vertex 1 1 1
      vertex 50.4711 9.71508 1
    endloop
  endfacet
  facet normal 0 0 1
    outer loop
      vertex 45.4845 11.7806 1
      vertex 1 1 1
      vertex 47.9524 10.6866 1
    endloop
  endfacet
  facet normal 0 0 1
    outer loop
      vertex 43.0732 12.9943 1
      vertex 1 1 1
      vertex 45.4845 11.7806 1
    endloop
  endfacet
  facet normal 0 0 1
    outer loop
      vertex 40.7243 14.3249 1
      vertex 1 1 1
      vertex 43.0732 12.9943 1
    endloop
  endfacet
  facet normal 0 0 1
    outer loop
      vertex 38.4436 15.7692 1
      vertex 1 1 1
      vertex 40.7243 14.3249 1
    endloop
  endfacet
  facet normal 0 0 1
    outer loop
      vertex 36.2365 17.3236 1
      vertex 1 1 1
      vertex 38.4436 15.7692 1
    endloop
  endfacet
  facet normal 0 0 1
    outer loop
      vertex 34.1084 18.9844 1
      vertex 1 1 1
      vertex 36.2365 17.3236 1
    endloop
  endfacet
  facet normal 0 0 1
    outer loop
      vertex 32.0643 20.7477 1
      vertex 1 1 1
      vertex 34.1084 18.9844 1
    endloop
  endfacet
  facet normal 0 0 1
    outer loop
      vertex 30.1091 22.6091 1
      vertex 1 1 1
      vertex 32.0643 20.7477 1
    endloop
  endfacet
  facet normal 0 0 1
    outer loop
      vertex 28.2477 24.5643 1
      vertex 1 1 1
      vertex 30.1091 22.6091 1
    endloop
  endfacet
  facet normal 0 0 1
    outer loop
      vertex 26.4844 26.6084 1
      vertex 1 1 1
      vertex 28.2477 24.5643 1
    endloop
  endfacet
  facet normal 0 0 1
    outer loop
      vertex 24.8236 28.7365 1
      vertex 1 1 1
      vertex 26.4844 26.6084 1
    endloop
  endfacet
  facet normal 0 0 1
    outer loop
      vertex 23.2692 30.9436 1
      vertex 1 1 1
      vertex 24.8236 28.7365 1
    endloop
  endfacet
  facet normal 0 0 1
    outer loop
      vertex 21.8249 33.2243 1
      vertex 1 1 1
      vertex 23.2692 30.9436 1
    endloop
  endfacet
  facet normal 0 0 1
    outer loop
      vertex 20.4943 35.5732 1
      vertex 1 1 1
      vertex 21.8249 33.2243 1
    endloop
  endfacet
  facet normal 0 0 1
    outer loop
      vertex 19.2806 37.9845 1
      vertex 1 1 1
      vertex 20.4943 35.5732 1
    endloop
  endfacet
  facet normal 0 0 1
    outer loop
      vertex 18.1866 40.4524 1
      vertex 1 1 1
      vertex 19.2806 37.9845 1
    endloop
  endfacet
  facet normal 0 0 1
    outer loop
      vertex 17.2151 42.9711 1
      vertex 1 1 1
      vertex 18.1866 40.4524 1
    endloop
  endfacet
  facet normal 0 0 1
    outer loop
      vertex 16.3683 45.5343 1
      vertex 1 1 1
      vertex 17.2151 42.9711 1
    endloop
  endfacet
  facet normal 0 1 -0
    outer loop
      vertex 159 1 1
      vertex 1 1 37
      vertex 159 1 37
    endloop
  endfacet
  facet normal 0 1 0
    outer loop
      vertex 1 1 37
      vertex 159 1 1
      vertex 1 1 1
    endloop
  endfacet
endsolid OpenSCAD_Model
